Preview_wdth25wght-wght_400.00.ufo
<glyph name="exclam" format="2">
  <advance width="301"/>
  <unicode hex="0021"/>
  <outline>
    <contour>
      <point x="-47.25" y="86.25" type="qcurve" smooth="yes"/>
      <point x="-45.75" y="125.25"/>
      <point x="10.125" y="179.625"/>
      <point x="60.0" y="179.625" type="qcurve" smooth="yes"/>
      <point x="111.0" y="179.625"/>
      <point x="162.375" y="124.875"/>
      <point x="160.875" y="85.5" type="qcurve" smooth="yes"/>
      <point x="159.375" y="46.5"/>
      <point x="103.5" y="-7.5"/>
      <point x="53.25" y="-7.5" type="qcurve" smooth="yes"/>
      <point x="2.25" y="-7.5"/>
      <point x="-48.75" y="47.25"/>
    </contour>
    <contour>
      <point x="13.5" y="418.125" type="line"/>
      <point x="169.875" y="1457.25" type="line"/>
      <point x="361.875" y="1457.25" type="line"/>
      <point x="196.125" y="418.125" type="line"/>
    </contour>
  </outline>
</glyph>
<glyph name="quotedbl" format="2">
  <advance width="484"/>
  <unicode hex="0022"/>
  <outline>
    <contour>
      <point x="121.875" y="1039.5" type="line"/>
      <point x="161.625" y="1332.75" type="line"/>
      <point x="180.75" y="1457.25" type="line"/>
      <point x="315.0" y="1457.25" type="line"/>
      <point x="295.875" y="1332.75" type="line"/>
      <point x="243.75" y="1039.5" type="line"/>
    </contour>
    <contour>
      <point x="328.5" y="1039.5" type="line"/>
      <point x="368.25" y="1332.75" type="line"/>
      <point x="387.375" y="1457.25" type="line"/>
      <point x="521.25" y="1457.25" type="line"/>
      <point x="502.125" y="1332.75" type="line"/>
      <point x="450.0" y="1039.5" type="line"/>
    </contour>
  </outline>
</glyph>
<glyph name="numbersign" format="2">
  <advance width="611"/>
  <unicode hex="0023"/>
  <outline>
    <contour>
      <point x="-30.0" y="-16.125" type="line"/>
      <point x="326.625" y="1473.375" type="line"/>
      <point x="444.75" y="1473.375" type="line"/>
      <point x="88.875" y="-16.125" type="line"/>
    </contour>
    <contour>
      <point x="167.625" y="-16.125" type="line"/>
      <point x="523.875" y="1473.375" type="line"/>
      <point x="642.375" y="1473.375" type="line"/>
      <point x="286.125" y="-16.125" type="line"/>
    </contour>
    <contour>
      <point x="-9.375" y="554.625" type="line"/>
      <point x="6.375" y="646.5" type="line"/>
      <point x="552.375" y="646.5" type="line"/>
      <point x="536.625" y="554.625" type="line"/>
    </contour>
    <contour>
      <point x="54.375" y="825.375" type="line"/>
      <point x="69.75" y="917.25" type="line"/>
      <point x="619.5" y="917.25" type="line"/>
      <point x="600.375" y="825.375" type="line"/>
    </contour>
  </outline>
</glyph>
<glyph name="dollar" format="2">
  <advance width="467"/>
  <unicode hex="0024"/>
  <outline>
    <contour>
      <point x="-38.5" y="287.25" type="qcurve" smooth="yes"/>
      <point x="-16.375" y="458.25" type="line"/>
      <point x="116.375" y="458.25" type="line"/>
      <point x="95.75" y="299.625" type="line" smooth="yes"/>
      <point x="79.625" y="189.75"/>
      <point x="102.5" y="101.625"/>
      <point x="137.75" y="101.625" type="qcurve" smooth="yes"/>
      <point x="174.875" y="101.625"/>
      <point x="220.625" y="189.375"/>
      <point x="243.875" y="346.875" type="qcurve" smooth="yes"/>
      <point x="263.0" y="473.25"/>
      <point x="249.5" y="622.875"/>
      <point x="198.875" y="712.5" type="qcurve" smooth="yes"/>
      <point x="122.0" y="810.0"/>
      <point x="69.5" y="977.25"/>
      <point x="96.875" y="1162.5" type="qcurve" smooth="yes"/>
      <point x="124.625" y="1324.5"/>
      <point x="249.125" y="1455.375"/>
      <point x="339.5" y="1455.375" type="qcurve" smooth="yes"/>
      <point x="434.375" y="1455.375"/>
      <point x="520.625" y="1330.875"/>
      <point x="494.375" y="1166.25" type="qcurve" smooth="yes"/>
      <point x="472.625" y="1018.5" type="line"/>
      <point x="338.0" y="1018.5" type="line"/>
      <point x="358.625" y="1159.5" type="line" smooth="yes"/>
      <point x="375.5" y="1266.75"/>
      <point x="357.125" y="1347.375"/>
      <point x="324.5" y="1347.375" type="qcurve" smooth="yes"/>
      <point x="291.875" y="1347.375"/>
      <point x="251.75" y="1274.25"/>
      <point x="231.875" y="1164.0" type="qcurve" smooth="yes"/>
      <point x="212.0" y="1030.5"/>
      <point x="233.0" y="919.875"/>
      <point x="297.125" y="825.375" type="qcurve" smooth="yes"/>
      <point x="362.375" y="732.0"/>
      <point x="411.125" y="534.0"/>
      <point x="383.0" y="347.625" type="qcurve" smooth="yes"/>
      <point x="352.625" y="144.75"/>
      <point x="215.0" y="0.75"/>
      <point x="122.75" y="0.75" type="qcurve" smooth="yes"/>
      <point x="38.0" y="0.75"/>
      <point x="-63.25" y="128.25"/>
    </contour>
    <contour>
      <point x="40.625" y="-150.375" type="line"/>
      <point x="143.75" y="558.0" type="line"/>
      <point x="258.5" y="550.5" type="line"/>
      <point x="185.75" y="33.375" type="line"/>
      <point x="187.625" y="25.875" type="line"/>
      <point x="158.0" y="-150.375" type="line"/>
    </contour>
    <contour>
      <point x="216.875" y="959.25" type="line"/>
      <point x="286.25" y="1422.0" type="line"/>
      <point x="284.375" y="1425.75" type="line"/>
      <point x="310.25" y="1607.25" type="line"/>
      <point x="427.625" y="1607.25" type="line"/>
      <point x="331.625" y="951.75" type="line"/>
    </contour>
  </outline>
</glyph>
<glyph name="ampersand" format="2">
  <advance width="568"/>
  <unicode hex="0026"/>
  <outline>
    <contour>
      <point x="-46.5" y="338.0" type="qcurve" smooth="yes"/>
      <point x="-17.125" y="520.5"/>
      <point x="77.125" y="680.5"/>
      <point x="164.25" y="788.625" type="qcurve" smooth="yes"/>
      <point x="242.25" y="884.625" type="line" smooth="yes"/>
      <point x="290.375" y="941.5"/>
      <point x="340.375" y="1095.375"/>
      <point x="352.875" y="1179.375" type="qcurve" smooth="yes"/>
      <point x="371.625" y="1319.875"/>
      <point x="367.875" y="1384.125"/>
      <point x="345.375" y="1384.125" type="qcurve" smooth="yes"/>
      <point x="324.375" y="1384.125"/>
      <point x="295.125" y="1318.125"/>
      <point x="273.375" y="1175.625" type="qcurve" smooth="yes"/>
      <point x="256.875" y="1067.25"/>
      <point x="268.625" y="917.25"/>
      <point x="288.25" y="790.5" type="qcurve" smooth="yes"/>
      <point x="445.875" y="0.0" type="line"/>
      <point x="296.5" y="0.0" type="line"/>
      <point x="157.375" y="753.75" type="line" smooth="yes"/>
      <point x="134.75" y="887.25"/>
      <point x="116.25" y="1048.5"/>
      <point x="136.125" y="1175.25" type="qcurve" smooth="yes"/>
      <point x="163.5" y="1352.25"/>
      <point x="274.125" y="1468.5"/>
      <point x="363.75" y="1468.5" type="qcurve" smooth="yes"/>
      <point x="448.375" y="1468.5"/>
      <point x="511.375" y="1350.0"/>
      <point x="487.125" y="1172.25" type="qcurve" smooth="yes"/>
      <point x="472.375" y="1067.0"/>
      <point x="383.0" y="897.125"/>
      <point x="321.0" y="826.875" type="qcurve" smooth="yes"/>
      <point x="249.375" y="729.0" type="line" smooth="yes"/>
      <point x="180.0" y="633.0"/>
      <point x="130.0" y="498.0"/>
      <point x="104.625" y="343.625" type="qcurve" smooth="yes"/>
      <point x="81.625" y="203.5"/>
      <point x="112.125" y="91.125"/>
      <point x="164.5" y="91.125" type="qcurve" smooth="yes"/>
      <point x="236.5" y="91.125"/>
      <point x="353.0" y="401.25"/>
      <point x="405.5" y="692.625" type="qcurve"/>
      <point x="538.125" y="692.625" type="line"/>
      <point x="490.5" y="387.0"/>
      <point x="250.875" y="-7.5"/>
      <point x="110.125" y="-7.5" type="qcurve" smooth="yes"/>
      <point x="4.0" y="-7.5"/>
      <point x="-75.75" y="157.375"/>
    </contour>
  </outline>
</glyph>
<glyph name="quotesingle" format="2">
  <advance width="264"/>
  <unicode hex="0027"/>
  <outline>
    <contour>
      <point x="121.125" y="1039.5" type="line"/>
      <point x="161.625" y="1332.75" type="line"/>
      <point x="180.75" y="1457.25" type="line"/>
      <point x="313.875" y="1457.25" type="line"/>
      <point x="294.75" y="1332.375" type="line"/>
      <point x="243.0" y="1039.5" type="line"/>
    </contour>
  </outline>
</glyph>
<glyph name="parenleft" format="2">
  <advance width="312"/>
  <unicode hex="0028"/>
  <outline>
    <contour>
      <point x="119.375" y="-436.625" type="line"/>
      <point x="11.75" y="-367.75"/>
      <point x="-43.375" y="122.625"/>
      <point x="9.375" y="515.25" type="qcurve" smooth="yes"/>
      <point x="11.375" y="531.25" type="line" smooth="yes"/>
      <point x="63.75" y="923.0"/>
      <point x="280.5" y="1407.75"/>
      <point x="413.25" y="1476.0" type="qcurve"/>
      <point x="400.375" y="1385.375" type="line"/>
      <point x="328.5" y="1324.375"/>
      <point x="214.75" y="898.125"/>
      <point x="166.75" y="533.25" type="qcurve" smooth="yes"/>
      <point x="164.0" y="512.375" type="line" smooth="yes"/>
      <point x="115.625" y="144.375"/>
      <point x="90.0" y="-281.875"/>
      <point x="139.5" y="-344.75" type="qcurve"/>
    </contour>
  </outline>
</glyph>
<glyph name="parenright" format="2">
  <advance width="312"/>
  <unicode hex="0029"/>
  <outline>
    <contour>
      <point x="-166.875" y="-437.25" type="qcurve"/>
      <point x="-154.875" y="-345.375" type="line"/>
      <point x="-83.625" y="-281.25"/>
      <point x="25.375" y="141.25"/>
      <point x="78.75" y="508.0" type="qcurve" smooth="yes"/>
      <point x="82.125" y="532.0" type="line" smooth="yes"/>
      <point x="134.5" y="895.0"/>
      <point x="162.375" y="1323.75"/>
      <point x="105.375" y="1384.125" type="qcurve"/>
      <point x="124.5" y="1476.0" type="line"/>
      <point x="237.75" y="1407.75"/>
      <point x="296.0" y="929.875"/>
      <point x="236.75" y="529.125" type="qcurve" smooth="yes"/>
      <point x="234.125" y="510.625" type="line" smooth="yes"/>
      <point x="174.5" y="109.5"/>
      <point x="-37.875" y="-369.0"/>
    </contour>
  </outline>
</glyph>
<glyph name="asterisk" format="2">
  <advance width="458"/>
  <unicode hex="002A"/>
  <outline>
    <contour>
      <point x="78.0" y="1219.5" type="line"/>
      <point x="134.625" y="1328.625" type="line"/>
      <point x="253.375" y="1248.25" type="line"/>
      <point x="273.0" y="1465.375" type="line"/>
      <point x="395.375" y="1465.375" type="line"/>
      <point x="346.375" y="1248.25" type="line"/>
      <point x="502.875" y="1328.625" type="line"/>
      <point x="524.25" y="1219.875" type="line"/>
      <point x="366.0" y="1159.25" type="line"/>
      <point x="444.75" y="988.125" type="line"/>
      <point x="345.375" y="922.5" type="line"/>
      <point x="286.125" y="1104.375" type="line"/>
      <point x="171.75" y="923.125" type="line"/>
      <point x="87.375" y="988.125" type="line"/>
      <point x="217.5" y="1159.875" type="line"/>
    </contour>
  </outline>
</glyph>
<glyph name="plus" format="2">
  <advance width="459"/>
  <unicode hex="002B"/>
  <outline>
    <contour>
      <point x="-3.375" y="647.25" type="line"/>
      <point x="18.75" y="777.0" type="line"/>
      <point x="454.125" y="777.0" type="line"/>
      <point x="428.25" y="647.25" type="line"/>
    </contour>
    <contour>
      <point x="113.625" y="438.0" type="line"/>
      <point x="204.0" y="986.25" type="line"/>
      <point x="333.375" y="986.25" type="line"/>
      <point x="243.0" y="438.0" type="line"/>
    </contour>
  </outline>
</glyph>
<glyph name="comma" format="2">
  <advance width="262"/>
  <unicode hex="002C"/>
  <outline>
    <contour>
      <point x="-152.75" y="-145.625" type="line"/>
      <point x="-105.125" y="-94.25"/>
      <point x="-58.875" y="25.875"/>
      <point x="-51.625" y="101.25" type="qcurve" smooth="yes"/>
      <point x="-24.5" y="272.25" type="line"/>
      <point x="154.125" y="272.25" type="line"/>
      <point x="127.0" y="106.5" type="line" smooth="yes"/>
      <point x="118.0" y="18.375"/>
      <point x="62.25" y="-111.75"/>
      <point x="7.875" y="-162.375" type="qcurve"/>
    </contour>
  </outline>
</glyph>
<glyph name="hyphen" format="2">
  <advance width="359"/>
  <unicode hex="002D"/>
  <outline>
    <contour>
      <point x="-11.625" y="539.625" type="line"/>
      <point x="19.5" y="721.5" type="line"/>
      <point x="333.0" y="721.5" type="line"/>
      <point x="301.875" y="539.625" type="line"/>
    </contour>
  </outline>
</glyph>
<glyph name="period" format="2">
  <advance width="290"/>
  <unicode hex="002E"/>
  <outline>
    <contour>
      <point x="-67.125" y="101.375" type="qcurve" smooth="yes"/>
      <point x="-65.25" y="147.25"/>
      <point x="-3.125" y="208.0"/>
      <point x="52.75" y="208.375" type="qcurve" smooth="yes"/>
      <point x="107.625" y="208.75"/>
      <point x="163.5" y="146.75"/>
      <point x="161.25" y="101.125" type="qcurve" smooth="yes"/>
      <point x="159.75" y="54.875"/>
      <point x="97.25" y="-6.875"/>
      <point x="41.75" y="-7.25" type="qcurve" smooth="yes"/>
      <point x="-13.75" y="-7.625"/>
      <point x="-69.0" y="55.875"/>
    </contour>
  </outline>
</glyph>
<glyph name="slash" format="2">
  <advance width="400"/>
  <unicode hex="002F"/>
  <outline>
    <contour>
      <point x="-141.0" y="-47.625" type="line"/>
      <point x="342.0" y="1457.25" type="line"/>
      <point x="517.75" y="1457.25" type="line"/>
      <point x="34.375" y="-47.625" type="line"/>
    </contour>
  </outline>
</glyph>
<glyph name="zero" format="2">
  <advance width="520"/>
  <unicode hex="0030"/>
  <outline>
    <contour>
      <point x="-29.625" y="284.25" type="qcurve" smooth="yes"/>
      <point x="100.5" y="1171.875" type="line" smooth="yes"/>
      <point x="126.75" y="1330.875"/>
      <point x="265.5" y="1464.75"/>
      <point x="373.125" y="1464.75" type="qcurve" smooth="yes"/>
      <point x="480.375" y="1464.75"/>
      <point x="576.75" y="1334.625"/>
      <point x="549.75" y="1171.875" type="qcurve" smooth="yes"/>
      <point x="419.625" y="284.25" type="line" smooth="yes"/>
      <point x="393.75" y="126.75"/>
      <point x="240.0" y="-11.25"/>
      <point x="146.625" y="-11.25" type="qcurve" smooth="yes"/>
      <point x="37.5" y="-11.25"/>
      <point x="-59.25" y="127.875"/>
    </contour>
    <contour>
      <point x="142.875" y="238.5" type="line" smooth="yes"/>
      <point x="134.25" y="184.125"/>
      <point x="149.25" y="134.625"/>
      <point x="170.25" y="134.625" type="qcurve" smooth="yes"/>
      <point x="191.25" y="134.625"/>
      <point x="219.0" y="184.125"/>
      <point x="227.625" y="238.5" type="qcurve" smooth="yes"/>
      <point x="373.125" y="1213.125" type="line" smooth="yes"/>
      <point x="381.375" y="1270.5"/>
      <point x="366.375" y="1311.75"/>
      <point x="345.375" y="1311.75" type="qcurve" smooth="yes"/>
      <point x="324.75" y="1311.75"/>
      <point x="292.875" y="1270.5"/>
      <point x="288.375" y="1213.125" type="qcurve" smooth="yes"/>
    </contour>
  </outline>
</glyph>
<glyph name="one" format="2">
  <advance width="520"/>
  <unicode hex="0031"/>
  <outline>
    <contour>
      <point x="100.375" y="0.0" type="line"/>
      <point x="294.75" y="1265.75" type="line"/>
      <point x="83.75" y="1160.875" type="line"/>
      <point x="112.75" y="1342.625" type="line"/>
      <point x="346.875" y="1453.875" type="line"/>
      <point x="546.5" y="1453.875" type="line"/>
      <point x="319.625" y="0.0" type="line"/>
    </contour>
  </outline>
</glyph>
<glyph name="two" format="2">
  <advance width="520"/>
  <unicode hex="0032"/>
  <outline>
    <contour>
      <point x="-91.875" y="0.0" type="line"/>
      <point x="-66.375" y="147.75" type="line"/>
      <point x="269.5" y="745.875" type="line" smooth="yes"/>
      <point x="307.0" y="844.5"/>
      <point x="347.375" y="983.0"/>
      <point x="365.375" y="1102.125" type="qcurve" smooth="yes"/>
      <point x="385.875" y="1238.625"/>
      <point x="371.75" y="1308.0"/>
      <point x="341.125" y="1308.0" type="qcurve" smooth="yes"/>
      <point x="313.0" y="1308.0"/>
      <point x="272.625" y="1240.625"/>
      <point x="260.25" y="1153.5" type="qcurve" smooth="yes"/>
      <point x="236.25" y="994.125" type="line"/>
      <point x="57.75" y="994.125" type="line"/>
      <point x="79.875" y="1142.625" type="line" smooth="yes"/>
      <point x="107.25" y="1311.75"/>
      <point x="261.0" y="1464.75"/>
      <point x="376.5" y="1464.75" type="qcurve" smooth="yes"/>
      <point x="489.625" y="1464.75"/>
      <point x="580.25" y="1317.875"/>
      <point x="550.25" y="1128.75" type="qcurve" smooth="yes"/>
      <point x="521.75" y="949.0"/>
      <point x="446.625" y="759.25"/>
      <point x="381.25" y="637.25" type="qcurve" smooth="yes"/>
      <point x="172.75" y="163.25" type="line"/>
      <point x="418.5" y="163.25" type="line"/>
      <point x="388.875" y="0.0" type="line"/>
    </contour>
  </outline>
</glyph>
<glyph name="three" format="2">
  <advance width="520"/>
  <unicode hex="0033"/>
  <outline>
    <contour>
      <point x="-39.75" y="310.875" type="qcurve" smooth="yes"/>
      <point x="-17.25" y="461.625" type="line"/>
      <point x="160.875" y="461.625" type="line"/>
      <point x="134.25" y="286.875" type="line" smooth="yes"/>
      <point x="121.125" y="202.875"/>
      <point x="136.5" y="134.0"/>
      <point x="161.625" y="134.0" type="qcurve" smooth="yes"/>
      <point x="189.875" y="134.0"/>
      <point x="221.625" y="206.0"/>
      <point x="248.625" y="381.75" type="qcurve" smooth="yes"/>
      <point x="276.625" y="565.75"/>
      <point x="274.25" y="693.75"/>
      <point x="239.25" y="693.75" type="qcurve" smooth="yes"/>
      <point x="174.75" y="693.75" type="line"/>
      <point x="195.0" y="815.0" type="line"/>
      <point x="255.375" y="815.0" type="line" smooth="yes"/>
      <point x="288.75" y="815.0"/>
      <point x="329.25" y="936.75"/>
      <point x="349.625" y="1089.625" type="qcurve" smooth="yes"/>
      <point x="370.625" y="1249.5"/>
      <point x="360.125" y="1312.375"/>
      <point x="334.875" y="1312.375" type="qcurve" smooth="yes"/>
      <point x="308.125" y="1312.375"/>
      <point x="280.5" y="1242.75"/>
      <point x="269.625" y="1166.625" type="qcurve" smooth="yes"/>
      <point x="248.625" y="1021.875" type="line"/>
      <point x="76.875" y="1021.875" type="line"/>
      <point x="96.375" y="1165.5" type="line" smooth="yes"/>
      <point x="116.625" y="1309.125"/>
      <point x="250.875" y="1464.75"/>
      <point x="366.75" y="1464.75" type="qcurve" smooth="yes"/>
      <point x="475.875" y="1464.75"/>
      <point x="564.375" y="1319.625"/>
      <point x="534.875" y="1112.5" type="qcurve" smooth="yes"/>
      <point x="511.125" y="938.625"/>
      <point x="430.375" y="779.375"/>
      <point x="376.875" y="764.375" type="qcurve"/>
      <point x="376.875" y="761.625" type="line"/>
      <point x="427.25" y="747.5"/>
      <point x="464.5" y="564.75"/>
      <point x="432.0" y="351.75" type="qcurve" smooth="yes"/>
      <point x="400.5" y="147.0"/>
      <point x="261.125" y="-11.25"/>
      <point x="140.25" y="-11.25" type="qcurve" smooth="yes"/>
      <point x="30.375" y="-11.25"/>
      <point x="-58.875" y="144.0"/>
    </contour>
  </outline>
</glyph>
<glyph name="four" format="2">
  <advance width="520"/>
  <unicode hex="0034"/>
  <outline>
    <contour>
      <point x="147.75" y="0.0" type="line"/>
      <point x="204.0" y="364.125" type="line"/>
      <point x="213.375" y="369.375" type="line"/>
      <point x="332.375" y="1188.375" type="line"/>
      <point x="329.0" y="1188.375" type="line"/>
      <point x="107.625" y="466.875" type="line"/>
      <point x="321.0" y="466.875" type="line"/>
      <point x="334.875" y="485.625" type="line"/>
      <point x="471.0" y="485.625" type="line"/>
      <point x="441.75" y="314.625" type="line"/>
      <point x="-57.875" y="314.625" type="line"/>
      <point x="-25.875" y="502.0" type="line"/>
      <point x="396.375" y="1457.25" type="line"/>
      <point x="575.625" y="1457.25" type="line"/>
      <point x="351.75" y="0.0" type="line"/>
    </contour>
  </outline>
</glyph>
<glyph name="five" format="2">
  <advance width="520"/>
  <unicode hex="0035"/>
  <outline>
    <contour>
      <point x="-50.25" y="303.375" type="qcurve" smooth="yes"/>
      <point x="-27.375" y="461.625" type="line"/>
      <point x="151.875" y="461.625" type="line"/>
      <point x="126.75" y="290.25" type="line" smooth="yes"/>
      <point x="113.25" y="198.0"/>
      <point x="132.0" y="134.625"/>
      <point x="162.75" y="134.625" type="qcurve" smooth="yes"/>
      <point x="193.5" y="134.625"/>
      <point x="228.75" y="222.625"/>
      <point x="267.0" y="475.875" type="qcurve" smooth="yes"/>
      <point x="310.25" y="761.25"/>
      <point x="298.75" y="822.5"/>
      <point x="270.375" y="822.5" type="qcurve" smooth="yes"/>
      <point x="246.75" y="822.5"/>
      <point x="210.25" y="773.0"/>
      <point x="194.125" y="704.25" type="qcurve"/>
      <point x="28.375" y="723.75" type="line"/>
      <point x="181.875" y="1456.0" type="line"/>
      <point x="570.0" y="1456.0" type="line"/>
      <point x="541.875" y="1280.875" type="line"/>
      <point x="307.25" y="1280.875" type="line"/>
      <point x="228.25" y="847.125" type="line"/>
      <point x="259.125" y="897.5"/>
      <point x="320.625" y="938.625"/>
      <point x="359.5" y="938.625" type="qcurve" smooth="yes"/>
      <point x="435.125" y="938.625"/>
      <point x="508.75" y="807.75"/>
      <point x="457.5" y="481.5" type="qcurve" smooth="yes"/>
      <point x="406.375" y="158.625"/>
      <point x="254.25" y="-11.25"/>
      <point x="134.625" y="-11.25" type="qcurve" smooth="yes"/>
      <point x="22.125" y="-11.25"/>
      <point x="-75.75" y="141.75"/>
    </contour>
  </outline>
</glyph>
<glyph name="six" format="2">
  <advance width="520"/>
  <unicode hex="0036"/>
  <outline>
    <contour>
      <point x="4.75" y="588.375" type="qcurve" smooth="yes"/>
      <point x="13.625" y="639.625" type="line" smooth="yes"/>
      <point x="91.75" y="1112.0"/>
      <point x="303.0" y="1464.75"/>
      <point x="501.0" y="1464.75" type="qcurve" smooth="yes"/>
      <point x="551.625" y="1464.75" type="line"/>
      <point x="523.875" y="1303.5" type="line"/>
      <point x="501.375" y="1303.5" type="line" smooth="yes"/>
      <point x="395.75" y="1303.5"/>
      <point x="258.25" y="1068.75"/>
      <point x="181.375" y="603.0" type="qcurve" smooth="yes"/>
      <point x="168.0" y="526.625" type="line" smooth="yes"/>
      <point x="120.625" y="228.875"/>
      <point x="133.5" y="134.25"/>
      <point x="170.5" y="134.25" type="qcurve" smooth="yes"/>
      <point x="200.25" y="134.25"/>
      <point x="238.5" y="226.875"/>
      <point x="275.625" y="486.75" type="qcurve" smooth="yes"/>
      <point x="313.125" y="724.125"/>
      <point x="301.125" y="791.25"/>
      <point x="270.75" y="791.25" type="qcurve" smooth="yes"/>
      <point x="233.625" y="791.25"/>
      <point x="185.25" y="624.375"/>
      <point x="166.875" y="511.875" type="qcurve"/>
      <point x="147.75" y="511.875" type="line"/>
      <point x="175.5" y="692.625"/>
      <point x="271.875" y="901.125"/>
      <point x="360.375" y="901.125" type="qcurve" smooth="yes"/>
      <point x="445.125" y="901.125"/>
      <point x="501.75" y="755.625"/>
      <point x="455.625" y="465.375" type="qcurve" smooth="yes"/>
      <point x="413.25" y="175.125"/>
      <point x="263.25" y="-11.25"/>
      <point x="148.5" y="-11.25" type="qcurve" smooth="yes"/>
      <point x="29.25" y="-11.25"/>
      <point x="-62.75" y="181.375"/>
    </contour>
  </outline>
</glyph>
<glyph name="seven" format="2">
  <advance width="520"/>
  <unicode hex="0037"/>
  <outline>
    <contour>
      <point x="-32.25" y="0.0" type="line"/>
      <point x="381.75" y="1279.875" type="line"/>
      <point x="95.625" y="1279.875" type="line"/>
      <point x="126.0" y="1456.0" type="line"/>
      <point x="617.625" y="1456.0" type="line"/>
      <point x="586.125" y="1274.5" type="line"/>
      <point x="192.0" y="0.0" type="line"/>
    </contour>
  </outline>
</glyph>
<glyph name="eight" format="2">
  <advance width="520"/>
  <unicode hex="0038"/>
  <outline>
    <contour>
      <point x="-38.25" y="394.5" type="qcurve" smooth="yes"/>
      <point x="-10.125" y="562.125"/>
      <point x="79.625" y="739.875"/>
      <point x="138.75" y="756.25" type="qcurve"/>
      <point x="139.125" y="758.375" type="line"/>
      <point x="93.75" y="781.625"/>
      <point x="71.5" y="966.0"/>
      <point x="103.5" y="1134.0" type="qcurve" smooth="yes"/>
      <point x="140.25" y="1328.0"/>
      <point x="261.25" y="1464.75"/>
      <point x="371.625" y="1464.75" type="qcurve" smooth="yes"/>
      <point x="486.25" y="1464.75"/>
      <point x="566.25" y="1309.875"/>
      <point x="536.75" y="1107.75" type="qcurve" smooth="yes"/>
      <point x="515.0" y="953.25"/>
      <point x="453.0" y="782.125"/>
      <point x="393.75" y="756.5" type="qcurve"/>
      <point x="393.375" y="754.375" type="line"/>
      <point x="448.25" y="734.625"/>
      <point x="476.125" y="549.375"/>
      <point x="446.625" y="374.25" type="qcurve" smooth="yes"/>
      <point x="414.75" y="179.25"/>
      <point x="264.625" y="-11.25"/>
      <point x="145.125" y="-11.25" type="qcurve" smooth="yes"/>
      <point x="23.0" y="-11.25"/>
      <point x="-71.875" y="192.875"/>
    </contour>
    <contour>
      <point x="148.125" y="417.0" type="qcurve" smooth="yes"/>
      <point x="121.0" y="251.0"/>
      <point x="134.625" y="132.0"/>
      <point x="168.0" y="132.0" type="qcurve" smooth="yes"/>
      <point x="199.5" y="132.0"/>
      <point x="244.0" y="248.5"/>
      <point x="269.25" y="417.0" type="qcurve" smooth="yes"/>
      <point x="291.375" y="566.625"/>
      <point x="289.875" y="696.0"/>
      <point x="250.25" y="696.0" type="qcurve" smooth="yes"/>
      <point x="211.875" y="696.0"/>
      <point x="173.375" y="571.0"/>
    </contour>
    <contour>
      <point x="260.625" y="1075.5" type="qcurve" smooth="yes"/>
      <point x="237.875" y="933.0"/>
      <point x="234.375" y="807.375"/>
      <point x="271.125" y="807.375" type="qcurve" smooth="yes"/>
      <point x="303.75" y="807.375"/>
      <point x="337.5" y="933.0"/>
      <point x="357.75" y="1075.5" type="qcurve" smooth="yes"/>
      <point x="380.625" y="1238.125"/>
      <point x="374.125" y="1318.125"/>
      <point x="344.625" y="1318.125" type="qcurve" smooth="yes"/>
      <point x="315.375" y="1318.125"/>
      <point x="286.625" y="1236.875"/>
    </contour>
  </outline>
</glyph>
<glyph name="nine" format="2">
  <advance width="520"/>
  <unicode hex="0039"/>
  <outline>
    <contour>
      <point x="54.75" y="981.0" type="qcurve" smooth="yes"/>
      <point x="100.875" y="1275.0"/>
      <point x="254.25" y="1464.75"/>
      <point x="369.0" y="1464.75" type="qcurve" smooth="yes"/>
      <point x="489.375" y="1464.75"/>
      <point x="589.375" y="1275.25"/>
      <point x="519.375" y="865.125" type="qcurve" smooth="yes"/>
      <point x="509.875" y="810.75" type="line" smooth="yes"/>
      <point x="429.25" y="338.375"/>
      <point x="214.125" y="-11.25"/>
      <point x="12.375" y="-11.25" type="qcurve" smooth="yes"/>
      <point x="-38.25" y="-11.25" type="line"/>
      <point x="-10.125" y="150.0" type="line"/>
      <point x="12.375" y="150.0" type="line" smooth="yes"/>
      <point x="123.0" y="150.0"/>
      <point x="257.5" y="382.875"/>
      <point x="336.625" y="847.375" type="qcurve" smooth="yes"/>
      <point x="350.5" y="926.875" type="line" smooth="yes"/>
      <point x="399.75" y="1224.0"/>
      <point x="378.25" y="1315.5"/>
      <point x="344.625" y="1315.5" type="qcurve" smooth="yes"/>
      <point x="315.375" y="1315.5"/>
      <point x="278.625" y="1231.125"/>
      <point x="238.5" y="970.5" type="qcurve" smooth="yes"/>
      <point x="204.75" y="729.375"/>
      <point x="216.75" y="662.25"/>
      <point x="247.375" y="662.25" type="qcurve" smooth="yes"/>
      <point x="284.25" y="662.25"/>
      <point x="335.375" y="833.5"/>
      <point x="352.5" y="945.375" type="qcurve"/>
      <point x="373.5" y="945.375" type="line"/>
      <point x="345.125" y="765.875"/>
      <point x="245.625" y="552.375"/>
      <point x="157.125" y="552.375" type="qcurve" smooth="yes"/>
      <point x="72.375" y="552.375"/>
      <point x="12.375" y="687.0"/>
    </contour>
  </outline>
</glyph>
<glyph name="colon" format="2">
  <advance width="290"/>
  <unicode hex="003A"/>
  <outline>
    <contour>
      <point x="-45.375" y="80.75" type="qcurve" smooth="yes"/>
      <point x="-45.375" y="117.25"/>
      <point x="2.5" y="166.0"/>
      <point x="46.0" y="166.0" type="qcurve" smooth="yes"/>
      <point x="89.25" y="166.0"/>
      <point x="135.375" y="116.0"/>
      <point x="135.0" y="79.375" type="qcurve" smooth="yes"/>
      <point x="135.0" y="41.375"/>
      <point x="86.75" y="-7.625"/>
      <point x="43.25" y="-7.625" type="qcurve" smooth="yes"/>
      <point x="-0.625" y="-7.625"/>
      <point x="-45.75" y="43.5"/>
    </contour>
    <contour>
      <point x="61.75" y="776.125" type="qcurve" smooth="yes"/>
      <point x="62.125" y="812.625"/>
      <point x="113.375" y="861.75"/>
      <point x="156.875" y="861.75" type="qcurve" smooth="yes"/>
      <point x="197.125" y="861.75"/>
      <point x="242.5" y="811.375"/>
      <point x="242.5" y="775.125" type="qcurve" smooth="yes"/>
      <point x="242.125" y="737.125"/>
      <point x="194.25" y="687.75"/>
      <point x="150.375" y="687.75" type="qcurve" smooth="yes"/>
      <point x="106.875" y="687.75"/>
      <point x="61.375" y="739.25"/>
    </contour>
  </outline>
</glyph>
<glyph name="semicolon" format="2">
  <advance width="290"/>
  <unicode hex="003B"/>
  <outline>
    <contour>
      <point x="-142.125" y="-144.75" type="line"/>
      <point x="-96.0" y="-96.0"/>
      <point x="-58.125" y="8.875"/>
      <point x="-42.0" y="91.125" type="qcurve" smooth="yes"/>
      <point x="-14.375" y="222.75" type="line"/>
      <point x="131.875" y="222.75" type="line"/>
      <point x="103.875" y="92.25" type="line" smooth="yes"/>
      <point x="86.0" y="3.5"/>
      <point x="40.875" y="-112.875"/>
      <point x="-7.875" y="-162.0" type="qcurve"/>
    </contour>
    <contour>
      <point x="54.25" y="776.125" type="qcurve" smooth="yes"/>
      <point x="54.625" y="812.625"/>
      <point x="102.125" y="861.75"/>
      <point x="146.0" y="861.75" type="qcurve" smooth="yes"/>
      <point x="188.875" y="861.75"/>
      <point x="235.0" y="811.375"/>
      <point x="235.0" y="775.125" type="qcurve" smooth="yes"/>
      <point x="234.625" y="737.125"/>
      <point x="186.75" y="687.75"/>
      <point x="142.875" y="687.75" type="qcurve" smooth="yes"/>
      <point x="99.375" y="687.75"/>
      <point x="53.875" y="739.25"/>
    </contour>
  </outline>
</glyph>
<glyph name="less" format="2">
  <advance width="403"/>
  <unicode hex="003C"/>
  <outline>
    <contour>
      <point x="300.75" y="314.625" type="line"/>
      <point x="-7.5" y="613.5" type="line"/>
      <point x="18.375" y="735.75" type="line"/>
      <point x="417.0" y="1031.625" type="line"/>
      <point x="393.75" y="891.75" type="line"/>
      <point x="113.25" y="670.125" type="line"/>
      <point x="327.0" y="448.875" type="line"/>
    </contour>
  </outline>
</glyph>
<glyph name="equal" format="2">
  <advance width="451"/>
  <unicode hex="003D"/>
  <outline>
    <contour>
      <point x="-22.875" y="452.625" type="line"/>
      <point x="-11.625" y="584.875" type="line"/>
      <point x="403.5" y="584.875" type="line"/>
      <point x="392.25" y="452.625" type="line"/>
    </contour>
    <contour>
      <point x="25.875" y="763.25" type="line"/>
      <point x="37.125" y="895.5" type="line"/>
      <point x="452.25" y="895.5" type="line"/>
      <point x="441.0" y="763.25" type="line"/>
    </contour>
  </outline>
</glyph>
<glyph name="greater" format="2">
  <advance width="404"/>
  <unicode hex="003E"/>
  <outline>
    <contour>
      <point x="41.875" y="710.375" type="line"/>
      <point x="225.75" y="579.0" type="line"/>
      <point x="361.125" y="614.25" type="line"/>
      <point x="10.625" y="632.125" type="line"/>
      <point x="40.125" y="773.25" type="line"/>
      <point x="277.5" y="679.875" type="line"/>
      <point x="181.875" y="741.75" type="line"/>
    </contour>
  </outline>
</glyph>
<glyph name="question" format="2">
  <advance width="437"/>
  <unicode hex="003F"/>
  <outline>
    <contour>
      <point x="50.625" y="82.25" type="qcurve" smooth="yes"/>
      <point x="52.5" y="119.875"/>
      <point x="106.0" y="171.625"/>
      <point x="153.625" y="171.625" type="qcurve" smooth="yes"/>
      <point x="200.25" y="171.625"/>
      <point x="248.25" y="118.625"/>
      <point x="246.375" y="81.625" type="qcurve" smooth="yes"/>
      <point x="244.125" y="44.375"/>
      <point x="191.0" y="-8.0"/>
      <point x="143.75" y="-8.0" type="qcurve" smooth="yes"/>
      <point x="96.875" y="-8.0"/>
      <point x="48.75" y="45.375"/>
    </contour>
    <contour>
      <point x="76.125" y="1030.125" type="line"/>
      <point x="107.625" y="1249.5" type="line" smooth="yes"/>
      <point x="124.125" y="1363.25"/>
      <point x="239.125" y="1467.0"/>
      <point x="337.125" y="1467.0" type="qcurve" smooth="yes"/>
      <point x="440.25" y="1467.0"/>
      <point x="518.625" y="1356.375"/>
      <point x="498.75" y="1199.25" type="qcurve" smooth="yes"/>
      <point x="475.875" y="1036.125"/>
      <point x="408.375" y="901.875"/>
      <point x="361.125" y="840.0" type="qcurve" smooth="yes"/>
      <point x="310.125" y="766.875"/>
      <point x="271.75" y="661.25"/>
      <point x="257.375" y="569.625" type="qcurve" smooth="yes"/>
      <point x="228.375" y="369.375" type="line"/>
      <point x="80.625" y="369.375" type="line"/>
      <point x="110.0" y="574.5" type="line" smooth="yes"/>
      <point x="125.875" y="682.625"/>
      <point x="174.375" y="819.0"/>
      <point x="221.25" y="887.625" type="qcurve" smooth="yes"/>
      <point x="271.125" y="958.125"/>
      <point x="303.75" y="1049.625"/>
      <point x="324.75" y="1185.75" type="qcurve" smooth="yes"/>
      <point x="339.75" y="1301.25"/>
      <point x="331.125" y="1349.625"/>
      <point x="311.0" y="1349.625" type="qcurve" smooth="yes"/>
      <point x="289.125" y="1349.625"/>
      <point x="265.0" y="1299.75"/>
      <point x="255.75" y="1237.5" type="qcurve" smooth="yes"/>
      <point x="224.625" y="1030.125" type="line"/>
    </contour>
  </outline>
</glyph>
<glyph name="at" format="2">
  <advance width="762"/>
  <unicode hex="0040"/>
  <outline>
    <contour>
      <point x="174.75" y="498.75" type="qcurve" smooth="yes"/>
      <point x="217.875" y="797.25"/>
      <point x="363.0" y="1069.5"/>
      <point x="449.375" y="1069.5" type="qcurve" smooth="yes"/>
      <point x="486.0" y="1069.5"/>
      <point x="528.75" y="1024.875"/>
      <point x="534.375" y="989.25" type="qcurve"/>
      <point x="614.0" y="989.25" type="line"/>
      <point x="501.5" y="409.875" type="line" smooth="yes"/>
      <point x="478.5" y="289.875"/>
      <point x="475.75" y="156.75"/>
      <point x="499.125" y="156.75" type="qcurve" smooth="yes"/>
      <point x="531.0" y="156.75"/>
      <point x="588.25" y="316.125"/>
      <point x="636.625" y="633.0" type="qcurve" smooth="yes"/>
      <point x="702.625" y="1001.625"/>
      <point x="644.25" y="1360.875"/>
      <point x="503.625" y="1360.875" type="qcurve" smooth="yes"/>
      <point x="355.875" y="1360.875"/>
      <point x="167.375" y="979.125"/>
      <point x="99.5" y="502.5" type="qcurve" smooth="yes"/>
      <point x="36.875" y="75.75"/>
      <point x="109.5" y="-250.125"/>
      <point x="211.5" y="-250.125" type="qcurve" smooth="yes"/>
      <point x="257.25" y="-250.125"/>
      <point x="331.125" y="-211.875"/>
      <point x="362.25" y="-171.75" type="qcurve"/>
      <point x="364.5" y="-265.5" type="line"/>
      <point x="333.375" y="-306.75"/>
      <point x="259.5" y="-351.0"/>
      <point x="196.5" y="-351.0" type="qcurve" smooth="yes"/>
      <point x="48.375" y="-351.0"/>
      <point x="-80.25" y="25.5"/>
      <point x="-10.5" y="518.625" type="qcurve" smooth="yes"/>
      <point x="60.75" y="1009.875"/>
      <point x="317.25" y="1464.75"/>
      <point x="508.5" y="1464.75" type="qcurve" smooth="yes"/>
      <point x="681.75" y="1464.75"/>
      <point x="799.625" y="1073.625"/>
      <point x="743.25" y="683.25" type="qcurve" smooth="yes"/>
      <point x="692.125" y="320.625"/>
      <point x="561.625" y="55.875"/>
      <point x="471.375" y="55.875" type="qcurve" smooth="yes"/>
      <point x="415.25" y="55.875"/>
      <point x="371.625" y="167.25"/>
      <point x="375.125" y="274.125" type="qcurve"/>
      <point x="340.625" y="163.875"/>
      <point x="271.625" y="55.875"/>
      <point x="227.75" y="55.875" type="qcurve" smooth="yes"/>
      <point x="181.875" y="55.875"/>
      <point x="130.875" y="198.375"/>
    </contour>
    <contour>
      <point x="309.375" y="485.25" type="qcurve" smooth="yes"/>
      <point x="271.125" y="247.5"/>
      <point x="270.375" y="154.125"/>
      <point x="291.5" y="154.125" type="qcurve" smooth="yes"/>
      <point x="306.0" y="154.125"/>
      <point x="353.875" y="279.125"/>
      <point x="383.875" y="439.5" type="qcurve" smooth="yes"/>
      <point x="481.0" y="925.875" type="line"/>
      <point x="485.125" y="952.125"/>
      <point x="473.25" y="983.25"/>
      <point x="457.625" y="983.25" type="qcurve" smooth="yes"/>
      <point x="426.0" y="983.25"/>
      <point x="367.875" y="809.625"/>
    </contour>
  </outline>
</glyph>
<glyph name="A" format="2">
  <advance width="496"/>
  <unicode hex="0041"/>
  <outline>
    <contour>
      <point x="-112.5" y="0.75" type="line"/>
      <point x="237.375" y="1457.625" type="line"/>
      <point x="484.125" y="1456.875" type="line"/>
      <point x="384.375" y="-0.75" type="line"/>
      <point x="208.875" y="0.0" type="line"/>
      <point x="304.0" y="1078.125" type="line" smooth="yes"/>
      <point x="305.5" y="1093.75"/>
      <point x="315.75" y="1196.0"/>
      <point x="315.75" y="1199.0" type="qcurve"/>
      <point x="311.25" y="1199.0" type="line"/>
      <point x="310.125" y="1196.0"/>
      <point x="291.0" y="1094.125"/>
      <point x="288.0" y="1078.125" type="qcurve" smooth="yes"/>
      <point x="80.625" y="0.0" type="line"/>
    </contour>
    <contour>
      <point x="93.125" y="338.25" type="line"/>
      <point x="123.625" y="471.0" type="line"/>
      <point x="304.75" y="470.25" type="line"/>
      <point x="289.0" y="337.5" type="line"/>
    </contour>
  </outline>
</glyph>
<glyph name="B" format="2">
  <advance width="508"/>
  <unicode hex="0042"/>
  <outline>
    <contour>
      <point x="-76.5" y="0.75" type="line"/>
      <point x="147.375" y="1456.75" type="line"/>
      <point x="362.25" y="1456.0" type="line" smooth="yes"/>
      <point x="461.25" y="1455.625"/>
      <point x="543.375" y="1267.75"/>
      <point x="515.25" y="1089.75" type="qcurve" smooth="yes"/>
      <point x="488.25" y="919.75"/>
      <point x="409.125" y="777.5"/>
      <point x="357.75" y="766.75" type="qcurve"/>
      <point x="357.375" y="766.375" type="line"/>
      <point x="415.375" y="756.0"/>
      <point x="470.875" y="592.75"/>
      <point x="442.125" y="404.25" type="qcurve" smooth="yes"/>
      <point x="411.125" y="199.5"/>
      <point x="259.125" y="-0.375"/>
      <point x="153.375" y="0.0" type="qcurve" smooth="yes"/>
    </contour>
    <contour>
      <point x="121.875" y="144.125" type="line"/>
      <point x="159.375" y="144.125" type="line" smooth="yes"/>
      <point x="187.125" y="144.125"/>
      <point x="237.75" y="279.375"/>
      <point x="260.25" y="435.75" type="qcurve" smooth="yes"/>
      <point x="283.375" y="594.25"/>
      <point x="265.875" y="696.25"/>
      <point x="232.125" y="695.625" type="qcurve" smooth="yes"/>
      <point x="202.625" y="695.625" type="line"/>
    </contour>
    <contour>
      <point x="221.25" y="801.375" type="line"/>
      <point x="245.25" y="801.375" type="line" smooth="yes"/>
      <point x="283.625" y="801.375"/>
      <point x="320.875" y="911.125"/>
      <point x="343.875" y="1050.75" type="qcurve" smooth="yes"/>
      <point x="368.25" y="1200.25"/>
      <point x="349.625" y="1304.25"/>
      <point x="311.25" y="1304.25" type="qcurve" smooth="yes"/>
      <point x="293.5" y="1304.25" type="line"/>
    </contour>
  </outline>
</glyph>
<glyph name="C" format="2">
  <advance width="515"/>
  <unicode hex="0043"/>
  <outline>
    <contour>
      <point x="-25.125" y="362.625" type="qcurve" smooth="yes"/>
      <point x="80.625" y="1089.375" type="line" smooth="yes"/>
      <point x="113.125" y="1290.0"/>
      <point x="256.5" y="1465.125"/>
      <point x="377.625" y="1464.75" type="qcurve" smooth="yes"/>
      <point x="495.0" y="1464.375"/>
      <point x="584.625" y="1318.5"/>
      <point x="560.625" y="1171.875" type="qcurve" smooth="yes"/>
      <point x="511.875" y="863.25" type="line"/>
      <point x="329.25" y="864.0" type="line"/>
      <point x="382.5" y="1195.5" type="line" smooth="yes"/>
      <point x="391.125" y="1258.5"/>
      <point x="378.0" y="1307.625"/>
      <point x="352.875" y="1307.625" type="qcurve" smooth="yes"/>
      <point x="327.75" y="1307.625"/>
      <point x="299.0" y="1249.5"/>
      <point x="285.75" y="1158.0" type="qcurve" smooth="yes"/>
      <point x="155.125" y="293.625" type="line" smooth="yes"/>
      <point x="142.375" y="208.0"/>
      <point x="153.375" y="141.375"/>
      <point x="179.625" y="141.375" type="qcurve" smooth="yes"/>
      <point x="206.625" y="141.375"/>
      <point x="235.125" y="204.75"/>
      <point x="247.125" y="279.75" type="qcurve" smooth="yes"/>
      <point x="292.125" y="585.75" type="line"/>
      <point x="475.125" y="585.0" type="line"/>
      <point x="438.75" y="324.75" type="line" smooth="yes"/>
      <point x="409.5" y="151.875"/>
      <point x="265.125" y="-11.25"/>
      <point x="151.5" y="-10.875" type="qcurve" smooth="yes"/>
      <point x="36.75" y="-10.5"/>
      <point x="-58.5" y="159.375"/>
    </contour>
  </outline>
</glyph>
<glyph name="D" format="2">
  <advance width="542"/>
  <unicode hex="0044"/>
  <outline>
    <contour>
      <point x="-75.0" y="0.75" type="line"/>
      <point x="148.875" y="1456.75" type="line"/>
      <point x="400.875" y="1456.0" type="line" smooth="yes"/>
      <point x="512.5" y="1455.625"/>
      <point x="590.25" y="1273.625"/>
      <point x="567.125" y="1137.0" type="qcurve" smooth="yes"/>
      <point x="451.625" y="337.5" type="line" smooth="yes"/>
      <point x="421.25" y="151.875"/>
      <point x="279.0" y="-0.375"/>
      <point x="165.375" y="0.0" type="qcurve" smooth="yes"/>
    </contour>
    <contour>
      <point x="130.125" y="145.0" type="line"/>
      <point x="168.875" y="145.0" type="line" smooth="yes"/>
      <point x="202.25" y="145.0"/>
      <point x="231.875" y="192.375"/>
      <point x="242.125" y="262.125" type="qcurve" smooth="yes"/>
      <point x="383.625" y="1210.875" type="line" smooth="yes"/>
      <point x="390.0" y="1256.25"/>
      <point x="370.5" y="1300.875"/>
      <point x="338.25" y="1300.875" type="qcurve" smooth="yes"/>
      <point x="301.25" y="1300.875" type="line"/>
    </contour>
  </outline>
</glyph>
<glyph name="E" format="2">
  <advance width="428"/>
  <unicode hex="0045"/>
  <outline>
    <contour>
      <point x="-75.0" y="0.75" type="line"/>
      <point x="148.875" y="1456.75" type="line"/>
      <point x="522.375" y="1455.25" type="line"/>
      <point x="491.0" y="1277.375" type="line"/>
      <point x="296.875" y="1278.125" type="line"/>
      <point x="234.375" y="833.625" type="line"/>
      <point x="411.0" y="832.875" type="line"/>
      <point x="379.875" y="655.0" type="line"/>
      <point x="202.625" y="655.75" type="line"/>
      <point x="135.75" y="177.875" type="line"/>
      <point x="341.25" y="177.125" type="line"/>
      <point x="310.5" y="-0.75" type="line"/>
    </contour>
  </outline>
</glyph>
<glyph name="F" format="2">
  <advance width="388"/>
  <unicode hex="0046"/>
  <outline>
    <contour>
      <point x="-75.0" y="0.375" type="line"/>
      <point x="148.875" y="1456.375" type="line"/>
      <point x="495.0" y="1455.625" type="line"/>
      <point x="464.25" y="1278.125" type="line"/>
      <point x="304.375" y="1278.125" type="line"/>
      <point x="241.0" y="829.875" type="line"/>
      <point x="379.125" y="829.875" type="line"/>
      <point x="348.375" y="652.375" type="line"/>
      <point x="209.625" y="652.375" type="line"/>
      <point x="111.875" y="-0.375" type="line"/>
    </contour>
  </outline>
</glyph>
<glyph name="G" format="2">
  <advance width="539"/>
  <unicode hex="0047"/>
  <outline>
    <contour>
      <point x="-24.125" y="366.0" type="qcurve" smooth="yes"/>
      <point x="81.875" y="1090.625" type="line" smooth="yes"/>
      <point x="115.875" y="1299.125"/>
      <point x="266.125" y="1469.75"/>
      <point x="390.875" y="1469.375" type="qcurve" smooth="yes"/>
      <point x="511.625" y="1469.0"/>
      <point x="598.125" y="1317.125"/>
      <point x="569.375" y="1145.75" type="qcurve" smooth="yes"/>
      <point x="538.875" y="967.5" type="line"/>
      <point x="348.75" y="968.25" type="line"/>
      <point x="382.75" y="1168.25" type="line" smooth="yes"/>
      <point x="398.25" y="1260.25"/>
      <point x="380.375" y="1313.0"/>
      <point x="353.75" y="1313.0" type="qcurve" smooth="yes"/>
      <point x="328.625" y="1313.0"/>
      <point x="297.0" y="1251.5"/>
      <point x="284.0" y="1163.375" type="qcurve" smooth="yes"/>
      <point x="149.125" y="280.5" type="line" smooth="yes"/>
      <point x="137.375" y="199.0"/>
      <point x="154.875" y="130.125"/>
      <point x="183.375" y="130.125" type="qcurve" smooth="yes"/>
      <point x="208.5" y="130.125"/>
      <point x="236.0" y="166.25"/>
      <point x="241.875" y="185.625" type="qcurve" smooth="yes"/>
      <point x="306.375" y="626.25" type="line"/>
      <point x="247.875" y="626.25" type="line"/>
      <point x="272.75" y="763.5" type="line"/>
      <point x="519.375" y="763.5" type="line"/>
      <point x="420.0" y="123.75" type="line"/>
      <point x="392.875" y="78.5"/>
      <point x="265.125" y="-14.625"/>
      <point x="164.875" y="-14.25" type="qcurve" smooth="yes"/>
      <point x="49.75" y="-13.875"/>
      <point x="-56.875" y="164.875"/>
    </contour>
  </outline>
</glyph>
<glyph name="H" format="2">
  <advance width="531"/>
  <unicode hex="0048"/>
  <outline>
    <contour>
      <point x="-76.5" y="0.0" type="line"/>
      <point x="147.375" y="1456.0" type="line"/>
      <point x="329.75" y="1456.0" type="line"/>
      <point x="239.125" y="852.0" type="line"/>
      <point x="333.25" y="852.0" type="line"/>
      <point x="423.875" y="1456.0" type="line"/>
      <point x="605.875" y="1456.0" type="line"/>
      <point x="382.0" y="0.0" type="line"/>
      <point x="199.625" y="0.0" type="line"/>
      <point x="299.25" y="661.5" type="line"/>
      <point x="205.125" y="661.5" type="line"/>
      <point x="105.5" y="0.0" type="line"/>
    </contour>
  </outline>
</glyph>
<glyph name="J" format="2">
  <advance width="468"/>
  <unicode hex="004A"/>
  <outline>
    <contour>
      <point x="-57.875" y="271.5" type="qcurve" smooth="yes"/>
      <point x="-35.25" y="440.625" type="line"/>
      <point x="134.625" y="440.625" type="line"/>
      <point x="109.0" y="253.125" type="line" smooth="yes"/>
      <point x="101.0" y="177.875"/>
      <point x="107.625" y="138.0"/>
      <point x="121.5" y="138.0" type="qcurve" smooth="yes"/>
      <point x="135.625" y="138.0"/>
      <point x="159.375" y="176.25"/>
      <point x="171.75" y="250.875" type="qcurve" smooth="yes"/>
      <point x="354.375" y="1456.0" type="line"/>
      <point x="543.625" y="1456.0" type="line"/>
      <point x="368.125" y="298.875" type="line" smooth="yes"/>
      <point x="338.75" y="117.25"/>
      <point x="198.5" y="-12.75"/>
      <point x="97.5" y="-12.75" type="qcurve" smooth="yes"/>
      <point x="8.5" y="-12.75"/>
      <point x="-79.375" y="119.75"/>
    </contour>
  </outline>
</glyph>
<glyph name="K" format="2">
  <advance width="527"/>
  <unicode hex="004B"/>
  <outline>
    <contour>
      <point x="-76.5" y="0.0" type="line"/>
      <point x="147.375" y="1456.0" type="line"/>
      <point x="329.75" y="1456.0" type="line"/>
      <point x="234.375" y="810.75" type="line"/>
      <point x="459.375" y="1456.0" type="line"/>
      <point x="631.5" y="1456.0" type="line"/>
      <point x="174.25" y="479.625" type="line"/>
      <point x="106.625" y="0.0" type="line"/>
    </contour>
    <contour>
      <point x="220.375" y="0.0" type="line"/>
      <point x="241.0" y="748.25" type="line"/>
      <point x="397.875" y="981.5" type="line"/>
      <point x="413.25" y="0.0" type="line"/>
    </contour>
  </outline>
</glyph>
<glyph name="L" format="2">
  <advance width="383"/>
  <unicode hex="004C"/>
  <outline>
    <contour>
      <point x="-76.5" y="0.0" type="line"/>
      <point x="147.75" y="1456.0" type="line"/>
      <point x="335.0" y="1456.0" type="line"/>
      <point x="138.375" y="161.375" type="line"/>
      <point x="293.625" y="161.375" type="line"/>
      <point x="267.0" y="0.0" type="line"/>
    </contour>
  </outline>
</glyph>
<glyph name="M" format="2">
  <advance width="744"/>
  <unicode hex="004D"/>
  <outline>
    <contour>
      <point x="-78.75" y="0.0" type="line"/>
      <point x="182.625" y="1456.0" type="line"/>
      <point x="414.0" y="1456.0" type="line"/>
      <point x="328.25" y="397.5" type="line" smooth="yes"/>
      <point x="327.875" y="392.25"/>
      <point x="325.25" y="358.25"/>
      <point x="324.25" y="349.75" type="qcurve"/>
      <point x="324.625" y="349.75" type="line"/>
      <point x="326.25" y="357.875"/>
      <point x="333.625" y="393.375"/>
      <point x="334.375" y="397.5" type="qcurve" smooth="yes"/>
      <point x="549.625" y="1456.0" type="line"/>
      <point x="791.875" y="1456.0" type="line"/>
      <point x="593.5" y="0.0" type="line"/>
      <point x="419.0" y="0.0" type="line"/>
      <point x="570.875" y="1067.5" type="line" smooth="yes"/>
      <point x="571.25" y="1070.125"/>
      <point x="586.875" y="1173.625"/>
      <point x="588.0" y="1179.625" type="qcurve"/>
      <point x="586.875" y="1179.625" type="line"/>
      <point x="585.375" y="1173.625"/>
      <point x="563.375" y="1070.5"/>
      <point x="563.0" y="1067.875" type="qcurve" smooth="yes"/>
      <point x="343.5" y="0.0" type="line"/>
      <point x="163.5" y="0.0" type="line"/>
      <point x="267.75" y="1071.25" type="line" smooth="yes"/>
      <point x="268.125" y="1074.25"/>
      <point x="281.625" y="1176.25"/>
      <point x="282.0" y="1177.75" type="qcurve"/>
      <point x="281.625" y="1177.75" type="line"/>
      <point x="281.25" y="1176.25"/>
      <point x="259.5" y="1074.625"/>
      <point x="258.75" y="1071.25" type="qcurve" smooth="yes"/>
      <point x="95.0" y="0.0" type="line"/>
    </contour>
  </outline>
</glyph>
<glyph name="N" format="2">
  <advance width="536"/>
  <unicode hex="004E"/>
  <outline>
    <contour>
      <point x="-76.5" y="0.0" type="line"/>
      <point x="147.375" y="1456.0" type="line"/>
      <point x="305.75" y="1456.0" type="line"/>
      <point x="274.875" y="477.75" type="line" smooth="yes"/>
      <point x="275.25" y="467.625"/>
      <point x="276.25" y="412.125"/>
      <point x="275.625" y="392.875" type="qcurve"/>
      <point x="276.0" y="392.875" type="line"/>
      <point x="278.125" y="408.875"/>
      <point x="288.125" y="467.625"/>
      <point x="289.875" y="477.125" type="qcurve" smooth="yes"/>
      <point x="429.875" y="1456.0" type="line"/>
      <point x="610.0" y="1456.0" type="line"/>
      <point x="386.125" y="0.0" type="line"/>
      <point x="233.875" y="0.0" type="line"/>
      <point x="263.625" y="975.25" type="line" smooth="yes"/>
      <point x="263.25" y="983.875"/>
      <point x="260.125" y="1032.5"/>
      <point x="259.75" y="1041.5" type="qcurve"/>
      <point x="257.5" y="1041.5" type="line"/>
      <point x="256.375" y="1033.25"/>
      <point x="246.375" y="976.375"/>
      <point x="245.625" y="971.5" type="qcurve" smooth="yes"/>
      <point x="106.125" y="0.0" type="line"/>
    </contour>
  </outline>
</glyph>
<glyph name="O" format="2">
  <advance width="544"/>
  <unicode hex="004F"/>
  <outline>
    <contour>
      <point x="-24.75" y="372.0" type="qcurve" smooth="yes"/>
      <point x="80.625" y="1096.125" type="line" smooth="yes"/>
      <point x="113.5" y="1296.0"/>
      <point x="262.5" y="1465.875"/>
      <point x="382.875" y="1465.5" type="qcurve" smooth="yes"/>
      <point x="508.875" y="1465.125"/>
      <point x="600.625" y="1294.875"/>
      <point x="568.125" y="1095.0" type="qcurve" smooth="yes"/>
      <point x="462.125" y="370.5" type="line" smooth="yes"/>
      <point x="430.5" y="177.375"/>
      <point x="279.375" y="-12.0"/>
      <point x="156.75" y="-11.625" type="qcurve" smooth="yes"/>
      <point x="37.125" y="-11.25"/>
      <point x="-56.375" y="179.125"/>
    </contour>
    <contour>
      <point x="151.125" y="293.25" type="line" smooth="yes"/>
      <point x="138.375" y="208.125"/>
      <point x="157.875" y="141.375"/>
      <point x="183.375" y="141.375" type="qcurve" smooth="yes"/>
      <point x="212.625" y="141.375"/>
      <point x="246.25" y="210.375"/>
      <point x="258.0" y="293.25" type="qcurve" smooth="yes"/>
      <point x="389.625" y="1158.75" type="line" smooth="yes"/>
      <point x="402.625" y="1246.5"/>
      <point x="386.625" y="1309.0"/>
      <point x="357.0" y="1309.0" type="qcurve" smooth="yes"/>
      <point x="329.875" y="1309.0"/>
      <point x="295.75" y="1248.375"/>
      <point x="282.75" y="1158.75" type="qcurve" smooth="yes"/>
    </contour>
  </outline>
</glyph>
<glyph name="P" format="2">
  <advance width="511"/>
  <unicode hex="0050"/>
  <outline>
    <contour>
      <point x="-76.5" y="0.0" type="line"/>
      <point x="147.375" y="1456.0" type="line"/>
      <point x="392.25" y="1456.0" type="line" smooth="yes"/>
      <point x="492.75" y="1456.0"/>
      <point x="574.0" y="1248.0"/>
      <point x="535.5" y="1000.875" type="qcurve" smooth="yes"/>
      <point x="498.25" y="761.25"/>
      <point x="341.25" y="535.875"/>
      <point x="230.625" y="535.875" type="qcurve" smooth="yes"/>
      <point x="185.625" y="535.875" type="line"/>
      <point x="106.625" y="0.0" type="line"/>
    </contour>
    <contour>
      <point x="211.75" y="681.875" type="line"/>
      <point x="233.625" y="681.875" type="line" smooth="yes"/>
      <point x="271.5" y="681.875"/>
      <point x="323.25" y="808.5"/>
      <point x="352.125" y="995.625" type="qcurve" smooth="yes"/>
      <point x="380.25" y="1183.875"/>
      <point x="360.25" y="1297.875"/>
      <point x="324.625" y="1297.875" type="qcurve" smooth="yes"/>
      <point x="303.125" y="1297.875" type="line"/>
    </contour>
  </outline>
</glyph>
<glyph name="Q" format="2">
  <advance width="545"/>
  <unicode hex="0051"/>
  <outline>
    <contour>
      <point x="-25.5" y="369.75" type="qcurve" smooth="yes"/>
      <point x="81.0" y="1099.125" type="line" smooth="yes"/>
      <point x="114.25" y="1302.75"/>
      <point x="262.5" y="1468.5"/>
      <point x="382.875" y="1468.5" type="qcurve" smooth="yes"/>
      <point x="508.875" y="1468.5"/>
      <point x="601.75" y="1303.125"/>
      <point x="568.125" y="1099.5" type="qcurve" smooth="yes"/>
      <point x="461.0" y="369.75" type="line" smooth="yes"/>
      <point x="428.625" y="172.875"/>
      <point x="279.375" y="-8.625"/>
      <point x="156.75" y="-8.625" type="qcurve" smooth="yes"/>
      <point x="37.125" y="-8.625"/>
      <point x="-57.5" y="173.125"/>
    </contour>
    <contour>
      <point x="151.125" y="296.25" type="line" smooth="yes"/>
      <point x="138.375" y="211.125"/>
      <point x="157.875" y="144.375"/>
      <point x="183.375" y="144.375" type="qcurve" smooth="yes"/>
      <point x="212.625" y="144.375"/>
      <point x="245.25" y="213.375"/>
      <point x="258.0" y="296.25" type="qcurve" smooth="yes"/>
      <point x="389.625" y="1161.75" type="line" smooth="yes"/>
      <point x="402.25" y="1249.5"/>
      <point x="386.625" y="1312.0"/>
      <point x="357.0" y="1312.0" type="qcurve" smooth="yes"/>
      <point x="331.125" y="1312.0"/>
      <point x="295.375" y="1251.375"/>
      <point x="282.75" y="1161.75" type="qcurve" smooth="yes"/>
    </contour>
    <contour>
      <point x="315.375" y="-96.75" type="line"/>
      <point x="173.25" y="119.25" type="line"/>
      <point x="291.625" y="224.25" type="line"/>
      <point x="435.25" y="8.25" type="line"/>
    </contour>
  </outline>
</glyph>
<glyph name="R" format="2">
  <advance width="538"/>
  <unicode hex="0052"/>
  <outline>
    <contour>
      <point x="-76.5" y="0.0" type="line"/>
      <point x="147.375" y="1456.0" type="line"/>
      <point x="406.875" y="1456.0" type="line" smooth="yes"/>
      <point x="496.75" y="1456.0"/>
      <point x="574.25" y="1295.875"/>
      <point x="531.75" y="1011.0" type="qcurve" smooth="yes"/>
      <point x="492.625" y="754.875"/>
      <point x="351.75" y="571.125"/>
      <point x="270.625" y="571.125" type="qcurve" smooth="yes"/>
      <point x="191.75" y="571.125" type="line"/>
      <point x="106.25" y="0.0" type="line"/>
    </contour>
    <contour>
      <point x="216.375" y="710.375" type="line"/>
      <point x="243.0" y="710.375" type="line" smooth="yes"/>
      <point x="272.25" y="710.375"/>
      <point x="313.125" y="815.625"/>
      <point x="339.375" y="1005.0" type="qcurve" smooth="yes"/>
      <point x="370.0" y="1226.125"/>
      <point x="356.5" y="1302.0"/>
      <point x="331.875" y="1302.0" type="qcurve" smooth="yes"/>
      <point x="302.5" y="1302.0" type="line"/>
    </contour>
    <contour>
      <point x="233.875" y="0.0" type="line"/>
      <point x="223.375" y="653.25" type="line"/>
      <point x="389.625" y="653.25" type="line"/>
      <point x="429.375" y="0.0" type="line"/>
    </contour>
  </outline>
</glyph>
<glyph name="S" format="2">
  <advance width="507"/>
  <unicode hex="0053"/>
  <outline>
    <contour>
      <point x="-55.875" y="277.5" type="qcurve" smooth="yes"/>
      <point x="-29.625" y="474.375" type="line"/>
      <point x="148.875" y="474.375" type="line"/>
      <point x="122.625" y="286.125" type="line" smooth="yes"/>
      <point x="110.25" y="199.875"/>
      <point x="133.875" y="134.25"/>
      <point x="157.5" y="134.25" type="qcurve" smooth="yes"/>
      <point x="184.5" y="134.25"/>
      <point x="226.125" y="210.75"/>
      <point x="246.75" y="355.875" type="qcurve" smooth="yes"/>
      <point x="265.125" y="479.625"/>
      <point x="253.75" y="619.625"/>
      <point x="195.25" y="713.625" type="qcurve" smooth="yes"/>
      <point x="116.375" y="817.5"/>
      <point x="49.875" y="982.5"/>
      <point x="78.0" y="1172.25" type="qcurve" smooth="yes"/>
      <point x="105.0" y="1333.875"/>
      <point x="255.0" y="1464.75"/>
      <point x="368.25" y="1464.75" type="qcurve" smooth="yes"/>
      <point x="485.25" y="1464.75"/>
      <point x="570.75" y="1322.625"/>
      <point x="547.5" y="1173.375" type="qcurve" smooth="yes"/>
      <point x="523.5" y="1012.5" type="line"/>
      <point x="357.75" y="1012.5" type="line"/>
      <point x="380.625" y="1165.875" type="line" smooth="yes"/>
      <point x="392.625" y="1251.75"/>
      <point x="374.25" y="1313.25"/>
      <point x="348.0" y="1313.25" type="qcurve" smooth="yes"/>
      <point x="321.375" y="1313.25"/>
      <point x="285.75" y="1247.625"/>
      <point x="269.625" y="1151.25" type="qcurve" smooth="yes"/>
      <point x="253.125" y="1031.25"/>
      <point x="274.875" y="936.5"/>
      <point x="338.5" y="840.125" type="qcurve" smooth="yes"/>
      <point x="408.75" y="743.625"/>
      <point x="463.125" y="534.75"/>
      <point x="433.125" y="349.5" type="qcurve" smooth="yes"/>
      <point x="399.75" y="136.5"/>
      <point x="261.0" y="-10.5"/>
      <point x="142.125" y="-10.875" type="qcurve" smooth="yes"/>
      <point x="22.875" y="-11.25"/>
      <point x="-79.5" y="136.5"/>
    </contour>
  </outline>
</glyph>
<glyph name="T" format="2">
  <advance width="464"/>
  <unicode hex="0054"/>
  <outline>
    <contour>
      <point x="82.5" y="1278.125" type="line"/>
      <point x="113.25" y="1456.0" type="line"/>
      <point x="570.75" y="1456.0" type="line"/>
      <point x="540.0" y="1278.125" type="line"/>
      <point x="406.5" y="1278.125" type="line"/>
      <point x="214.625" y="0.0" type="line"/>
      <point x="27.125" y="0.0" type="line"/>
      <point x="219.625" y="1278.125" type="line"/>
    </contour>
  </outline>
</glyph>
<glyph name="U" format="2">
  <advance width="518"/>
  <unicode hex="0055"/>
  <outline>
    <contour>
      <point x="-34.125" y="293.25" type="qcurve" smooth="yes"/>
      <point x="140.625" y="1456.0" type="line"/>
      <point x="322.25" y="1456.0" type="line"/>
      <point x="143.5" y="281.25" type="line" smooth="yes"/>
      <point x="133.5" y="211.25"/>
      <point x="149.25" y="146.375"/>
      <point x="171.625" y="146.375" type="qcurve" smooth="yes"/>
      <point x="196.125" y="146.375"/>
      <point x="232.5" y="213.0"/>
      <point x="241.5" y="281.25" type="qcurve" smooth="yes"/>
      <point x="422.625" y="1456.0" type="line"/>
      <point x="602.75" y="1456.0" type="line"/>
      <point x="425.625" y="293.25" type="line" smooth="yes"/>
      <point x="399.375" y="129.75"/>
      <point x="255.125" y="-12.375"/>
      <point x="155.625" y="-12.375" type="qcurve" smooth="yes"/>
      <point x="53.125" y="-12.375"/>
      <point x="-59.625" y="135.375"/>
    </contour>
  </outline>
</glyph>
<glyph name="V" format="2">
  <advance width="497"/>
  <unicode hex="0056"/>
  <outline>
    <contour>
      <point x="117.375" y="1456.0" type="line"/>
      <point x="300.875" y="1456.0" type="line"/>
      <point x="189.25" y="284.125" type="line" smooth="yes"/>
      <point x="187.125" y="267.25"/>
      <point x="180.375" y="204.0"/>
      <point x="178.125" y="189.0" type="qcurve"/>
      <point x="180.375" y="189.0" type="line"/>
      <point x="183.75" y="203.625"/>
      <point x="196.0" y="266.625"/>
      <point x="199.375" y="284.125" type="qcurve" smooth="yes"/>
      <point x="428.0" y="1456.0" type="line"/>
      <point x="604.5" y="1456.0" type="line"/>
      <point x="263.25" y="-1.875" type="line"/>
      <point x="25.125" y="-1.875" type="line"/>
    </contour>
  </outline>
</glyph>
<glyph name="W" format="2">
  <advance width="807"/>
  <unicode hex="0057"/>
  <outline>
    <contour>
      <point x="27.0" y="-1.875" type="line"/>
      <point x="120.75" y="1456.0" type="line"/>
      <point x="306.5" y="1456.0" type="line"/>
      <point x="203.125" y="326.875" type="line" smooth="yes"/>
      <point x="202.375" y="320.125"/>
      <point x="198.125" y="274.625"/>
      <point x="196.375" y="264.875" type="qcurve"/>
      <point x="197.125" y="264.875" type="line"/>
      <point x="199.625" y="274.625"/>
      <point x="207.25" y="319.75"/>
      <point x="208.375" y="326.5" type="qcurve" smooth="yes"/>
      <point x="435.375" y="1456.0" type="line"/>
      <point x="602.625" y="1456.0" type="line"/>
      <point x="503.75" y="326.625" type="line" smooth="yes"/>
      <point x="503.375" y="323.625"/>
      <point x="497.625" y="266.375"/>
      <point x="497.25" y="264.875" type="qcurve"/>
      <point x="498.375" y="264.875" type="line"/>
      <point x="498.375" y="266.375"/>
      <point x="508.875" y="323.25"/>
      <point x="509.625" y="326.625" type="qcurve" smooth="yes"/>
      <point x="724.0" y="1456.0" type="line"/>
      <point x="904.125" y="1456.0" type="line"/>
      <point x="592.5" y="-1.875" type="line"/>
      <point x="384.0" y="-1.875" type="line"/>
      <point x="463.125" y="1025.5" type="line" smooth="yes"/>
      <point x="464.125" y="1038.0"/>
      <point x="467.125" y="1082.5"/>
      <point x="468.5" y="1093.25" type="qcurve"/>
      <point x="465.0" y="1093.25" type="line"/>
      <point x="463.75" y="1082.5"/>
      <point x="455.25" y="1037.5"/>
      <point x="452.25" y="1025.5" type="qcurve" smooth="yes"/>
      <point x="235.125" y="-1.875" type="line"/>
    </contour>
  </outline>
</glyph>
<glyph name="X" format="2">
  <advance width="511"/>
  <unicode hex="0058"/>
  <outline>
    <contour>
      <point x="-114.0" y="0.0" type="line"/>
      <point x="211.75" y="841.875" type="line"/>
      <point x="245.5" y="841.875" type="line"/>
      <point x="442.5" y="1456.0" type="line"/>
      <point x="613.875" y="1456.0" type="line"/>
      <point x="306.5" y="666.125" type="line"/>
      <point x="272.375" y="666.125" type="line"/>
      <point x="64.5" y="0.0" type="line"/>
    </contour>
    <contour>
      <point x="113.75" y="1456.0" type="line"/>
      <point x="301.375" y="1456.0" type="line"/>
      <point x="326.125" y="824.375" type="line"/>
      <point x="348.25" y="825.125" type="line"/>
      <point x="397.0" y="-0.375" type="line"/>
      <point x="213.125" y="-0.375" type="line"/>
      <point x="193.25" y="697.625" type="line"/>
      <point x="171.125" y="697.625" type="line"/>
    </contour>
  </outline>
</glyph>
<glyph name="Y" format="2">
  <advance width="493"/>
  <unicode hex="0059"/>
  <outline>
    <contour>
      <point x="44.25" y="0.0" type="line"/>
      <point x="126.375" y="527.625" type="line"/>
      <point x="108.75" y="1456.0" type="line"/>
      <point x="289.5" y="1456.0" type="line"/>
      <point x="261.0" y="748.875" type="line" smooth="yes"/>
      <point x="260.25" y="742.125"/>
      <point x="260.25" y="722.625"/>
      <point x="259.875" y="719.375" type="qcurve"/>
      <point x="260.625" y="719.375" type="line"/>
      <point x="261.0" y="722.625"/>
      <point x="265.875" y="742.5"/>
      <point x="267.0" y="748.5" type="qcurve" smooth="yes"/>
      <point x="424.125" y="1456.0" type="line"/>
      <point x="602.75" y="1456.0" type="line"/>
      <point x="317.625" y="527.625" type="line"/>
      <point x="235.5" y="0.0" type="line"/>
    </contour>
  </outline>
</glyph>
<glyph name="Z" format="2">
  <advance width="431"/>
  <unicode hex="005A"/>
  <outline>
    <contour>
      <point x="-108.75" y="0.0" type="line"/>
      <point x="-88.125" y="121.5" type="line"/>
      <point x="275.625" y="1278.125" type="line"/>
      <point x="100.5" y="1278.125" type="line"/>
      <point x="131.25" y="1456.0" type="line"/>
      <point x="536.625" y="1456.0" type="line"/>
      <point x="514.5" y="1328.25" type="line"/>
      <point x="150.5" y="170.375" type="line"/>
      <point x="340.125" y="170.375" type="line"/>
      <point x="310.5" y="0.0" type="line"/>
    </contour>
  </outline>
</glyph>
<glyph name="bracketleft" format="2">
  <advance width="308"/>
  <unicode hex="005B"/>
  <outline>
    <contour>
      <point x="-118.875" y="-311.25" type="line"/>
      <point x="151.5" y="1457.25" type="line"/>
      <point x="391.125" y="1457.25" type="line"/>
      <point x="369.375" y="1352.25" type="line"/>
      <point x="271.875" y="1352.25" type="line"/>
      <point x="33.75" y="-206.25" type="line"/>
      <point x="138.75" y="-206.25" type="line"/>
      <point x="120.75" y="-311.25" type="line"/>
    </contour>
  </outline>
</glyph>
<glyph name="backslash" format="2">
  <advance width="370"/>
  <unicode hex="005C"/>
  <outline>
    <contour>
      <point x="110.25" y="1457.25" type="line"/>
      <point x="236.625" y="1457.25" type="line"/>
      <point x="268.875" y="-57.0" type="line"/>
      <point x="142.875" y="-57.0" type="line"/>
    </contour>
  </outline>
</glyph>
<glyph name="bracketright" format="2">
  <advance width="308"/>
  <unicode hex="005D"/>
  <outline>
    <contour>
      <point x="104.25" y="-311.25" type="line"/>
      <point x="-139.125" y="-311.25" type="line"/>
      <point x="-124.875" y="-206.25" type="line"/>
      <point x="-12.375" y="-206.25" type="line"/>
      <point x="222.0" y="1352.25" type="line"/>
      <point x="117.0" y="1352.25" type="line"/>
      <point x="135.0" y="1457.25" type="line"/>
      <point x="374.625" y="1457.25" type="line"/>
    </contour>
  </outline>
</glyph>
<glyph name="asciicircum" format="2">
  <advance width="500"/>
  <unicode hex="005E"/>
  <outline>
    <contour>
      <point x="56.25" y="875.625" type="line"/>
      <point x="303.75" y="1421.625" type="line"/>
      <point x="411.125" y="1421.625" type="line"/>
      <point x="478.625" y="875.625" type="line"/>
      <point x="362.625" y="875.625" type="line"/>
      <point x="333.375" y="1289.0" type="line"/>
      <point x="172.0" y="875.625" type="line"/>
    </contour>
  </outline>
</glyph>
<glyph name="underscore" format="2">
  <advance width="381"/>
  <unicode hex="005F"/>
  <outline>
    <contour>
      <point x="-151.125" y="-283.5" type="line"/>
      <point x="-139.875" y="-178.5" type="line"/>
      <point x="240.0" y="-178.5" type="line"/>
      <point x="228.75" y="-283.5" type="line"/>
    </contour>
  </outline>
</glyph>
<glyph name="grave" format="2">
  <advance width="385"/>
  <unicode hex="0060"/>
  <outline>
    <contour>
      <point x="219.0" y="999.0" type="line"/>
      <point x="136.5" y="1299.0" type="line"/>
      <point x="296.25" y="1339.875" type="line"/>
      <point x="362.25" y="1037.625" type="line"/>
    </contour>
  </outline>
</glyph>
<glyph name="a" format="2">
  <advance width="483"/>
  <unicode hex="0061"/>
  <outline>
    <contour>
      <point x="-57.375" y="256.5" type="qcurve" smooth="yes"/>
      <point x="-36.75" y="402.75"/>
      <point x="71.625" y="542.25"/>
      <point x="200.625" y="542.25" type="qcurve" smooth="yes"/>
      <point x="239.75" y="542.25" type="line"/>
      <point x="269.25" y="740.25" type="line" smooth="yes"/>
      <point x="275.25" y="779.625"/>
      <point x="265.0" y="815.625"/>
      <point x="245.0" y="815.625" type="qcurve" smooth="yes"/>
      <point x="223.75" y="815.625"/>
      <point x="201.25" y="775.875"/>
      <point x="197.5" y="740.625" type="qcurve" smooth="yes"/>
      <point x="182.75" y="624.75" type="line"/>
      <point x="21.375" y="625.875" type="line"/>
      <point x="35.25" y="738.375" type="line" smooth="yes"/>
      <point x="47.625" y="830.125"/>
      <point x="173.125" y="927.875"/>
      <point x="274.625" y="927.875" type="qcurve" smooth="yes"/>
      <point x="372.5" y="927.875"/>
      <point x="465.0" y="834.75"/>
      <point x="446.625" y="727.125" type="qcurve" smooth="yes"/>
      <point x="352.25" y="115.125" type="line" smooth="yes"/>
      <point x="344.375" y="61.125"/>
      <point x="345.375" y="17.25"/>
      <point x="348.5" y="4.5" type="qcurve"/>
      <point x="348.375" y="0.0" type="line"/>
      <point x="169.125" y="0.0" type="line"/>
      <point x="166.375" y="9.875"/>
      <point x="166.375" y="47.5"/>
      <point x="168.375" y="65.625" type="qcurve"/>
      <point x="153.375" y="34.875"/>
      <point x="91.5" y="-6.125"/>
      <point x="46.375" y="-6.125" type="qcurve" smooth="yes"/>
      <point x="-19.25" y="-6.125"/>
      <point x="-82.125" y="99.0"/>
    </contour>
    <contour>
      <point x="121.25" y="272.25" type="qcurve" smooth="yes"/>
      <point x="104.5" y="157.5"/>
      <point x="111.375" y="98.625"/>
      <point x="133.75" y="98.625" type="qcurve" smooth="yes"/>
      <point x="152.25" y="98.625"/>
      <point x="177.75" y="133.5"/>
      <point x="185.625" y="180.75" type="qcurve" smooth="yes"/>
      <point x="226.75" y="464.5" type="line"/>
      <point x="208.125" y="464.5" type="line" smooth="yes"/>
      <point x="176.125" y="464.5"/>
      <point x="137.375" y="385.5"/>
    </contour>
  </outline>
</glyph>
<glyph name="b" format="2">
  <advance width="498"/>
  <unicode hex="0062"/>
  <outline>
    <contour>
      <point x="-80.625" y="0.0" type="line"/>
      <point x="141.375" y="1456.0" type="line"/>
      <point x="324.0" y="1456.0" type="line"/>
      <point x="227.75" y="848.25" type="line"/>
      <point x="239.75" y="874.875"/>
      <point x="308.375" y="925.625"/>
      <point x="357.75" y="925.625" type="qcurve" smooth="yes"/>
      <point x="425.375" y="925.625"/>
      <point x="484.875" y="820.875"/>
      <point x="463.875" y="697.125" type="qcurve" smooth="yes"/>
      <point x="400.625" y="239.375" type="line" smooth="yes"/>
      <point x="378.5" y="112.625"/>
      <point x="285.75" y="-8.75"/>
      <point x="210.0" y="-8.75" type="qcurve" smooth="yes"/>
      <point x="167.125" y="-8.75"/>
      <point x="114.125" y="19.625"/>
      <point x="102.25" y="39.375" type="qcurve"/>
      <point x="102.25" y="39.375" type="line"/>
      <point x="96.375" y="0.0" type="line"/>
    </contour>
    <contour>
      <point x="128.625" y="166.5" type="line" smooth="yes"/>
      <point x="128.25" y="152.625"/>
      <point x="146.375" y="131.625"/>
      <point x="166.875" y="131.625" type="qcurve" smooth="yes"/>
      <point x="188.875" y="131.625"/>
      <point x="212.125" y="169.125"/>
      <point x="217.5" y="208.625" type="qcurve" smooth="yes"/>
      <point x="288.625" y="712.125" type="line" smooth="yes"/>
      <point x="294.375" y="753.375"/>
      <point x="278.375" y="782.25"/>
      <point x="261.75" y="782.25" type="qcurve" smooth="yes"/>
      <point x="243.125" y="782.25"/>
      <point x="215.5" y="749.625"/>
      <point x="207.875" y="715.875" type="qcurve" smooth="yes"/>
    </contour>
  </outline>
</glyph>
<glyph name="c" format="2">
  <advance width="486"/>
  <unicode hex="0063"/>
  <outline>
    <contour>
      <point x="-49.875" y="242.25" type="qcurve" smooth="yes"/>
      <point x="13.875" y="676.875" type="line" smooth="yes"/>
      <point x="35.75" y="810.375"/>
      <point x="167.875" y="928.25"/>
      <point x="279.25" y="928.25" type="qcurve" smooth="yes"/>
      <point x="387.75" y="928.25"/>
      <point x="467.5" y="814.875"/>
      <point x="457.375" y="709.875" type="qcurve" smooth="yes"/>
      <point x="438.0" y="549.375" type="line"/>
      <point x="255.75" y="549.375" type="line"/>
      <point x="278.5" y="720.75" type="line" smooth="yes"/>
      <point x="282.0" y="750.5"/>
      <point x="271.75" y="781.5"/>
      <point x="251.125" y="781.5" type="qcurve" smooth="yes"/>
      <point x="228.625" y="781.5"/>
      <point x="205.375" y="745.5"/>
      <point x="198.75" y="698.625" type="qcurve" smooth="yes"/>
      <point x="126.125" y="215.25" type="line" smooth="yes"/>
      <point x="119.75" y="174.375"/>
      <point x="134.75" y="133.125"/>
      <point x="157.0" y="133.125" type="qcurve" smooth="yes"/>
      <point x="177.625" y="133.125"/>
      <point x="202.625" y="172.875"/>
      <point x="208.625" y="212.25" type="qcurve" smooth="yes"/>
      <point x="233.625" y="375.375" type="line"/>
      <point x="416.875" y="375.375" type="line"/>
      <point x="393.125" y="224.625" type="line" smooth="yes"/>
      <point x="372.625" y="110.375"/>
      <point x="242.25" y="-11.375"/>
      <point x="134.125" y="-11.375" type="qcurve" smooth="yes"/>
      <point x="25.5" y="-11.375"/>
      <point x="-71.625" y="111.5"/>
    </contour>
  </outline>
</glyph>
<glyph name="d" format="2">
  <advance width="501"/>
  <unicode hex="0064"/>
  <outline>
    <contour>
      <point x="-50.875" y="237.5" type="qcurve" smooth="yes"/>
      <point x="16.75" y="697.125" type="line" smooth="yes"/>
      <point x="37.0" y="817.125"/>
      <point x="136.875" y="925.625"/>
      <point x="203.875" y="925.625" type="qcurve" smooth="yes"/>
      <point x="252.5" y="925.625"/>
      <point x="299.625" y="878.875"/>
      <point x="304.875" y="849.75" type="qcurve"/>
      <point x="397.25" y="1456.0" type="line"/>
      <point x="582.5" y="1456.0" type="line"/>
      <point x="358.625" y="0.0" type="line"/>
      <point x="176.25" y="0.0" type="line"/>
      <point x="183.5" y="46.25" type="line"/>
      <point x="183.5" y="46.25" type="line"/>
      <point x="165.5" y="25.25"/>
      <point x="102.75" y="-8.75"/>
      <point x="61.875" y="-8.75" type="qcurve" smooth="yes"/>
      <point x="-6.25" y="-8.75"/>
      <point x="-71.875" y="112.25"/>
    </contour>
    <contour>
      <point x="125.125" y="206.75" type="line" smooth="yes"/>
      <point x="119.75" y="168.5"/>
      <point x="136.625" y="131.625"/>
      <point x="157.375" y="131.625" type="qcurve" smooth="yes"/>
      <point x="174.75" y="131.625"/>
      <point x="196.75" y="150.75"/>
      <point x="204.0" y="166.5" type="qcurve" smooth="yes"/>
      <point x="283.875" y="715.875" type="line" smooth="yes"/>
      <point x="284.875" y="750.75"/>
      <point x="267.75" y="782.25"/>
      <point x="250.375" y="782.25" type="qcurve" smooth="yes"/>
      <point x="232.5" y="782.25"/>
      <point x="206.375" y="750.875"/>
      <point x="200.625" y="712.125" type="qcurve" smooth="yes"/>
    </contour>
  </outline>
</glyph>
<glyph name="e" format="2">
  <advance width="479"/>
  <unicode hex="0065"/>
  <outline>
    <contour>
      <point x="-49.125" y="241.875" type="qcurve" smooth="yes"/>
      <point x="15.0" y="676.875" type="line" smooth="yes"/>
      <point x="36.875" y="806.625"/>
      <point x="174.625" y="928.25"/>
      <point x="278.125" y="928.25" type="qcurve" smooth="yes"/>
      <point x="393.0" y="928.25"/>
      <point x="470.875" y="792.875"/>
      <point x="448.0" y="670.875" type="qcurve" smooth="yes"/>
      <point x="418.375" y="472.5" type="line"/>
      <point x="87.875" y="472.5" type="line"/>
      <point x="95.625" y="515.75" type="line"/>
      <point x="254.375" y="515.75" type="line"/>
      <point x="283.625" y="708.375" type="line" smooth="yes"/>
      <point x="289.375" y="748.125"/>
      <point x="277.875" y="789.0"/>
      <point x="256.75" y="789.0" type="qcurve" smooth="yes"/>
      <point x="229.5" y="789.0"/>
      <point x="203.5" y="747.0"/>
      <point x="196.125" y="696.0" type="qcurve" smooth="yes"/>
      <point x="124.625" y="217.5" type="line" smooth="yes"/>
      <point x="117.875" y="171.625"/>
      <point x="134.875" y="127.5"/>
      <point x="160.0" y="127.5" type="qcurve" smooth="yes"/>
      <point x="183.375" y="127.5"/>
      <point x="213.375" y="185.5"/>
      <point x="222.625" y="241.125" type="qcurve"/>
      <point x="390.875" y="230.25" type="line"/>
      <point x="362.5" y="112.75"/>
      <point x="245.75" y="-11.375"/>
      <point x="131.25" y="-11.375" type="qcurve" smooth="yes"/>
      <point x="25.75" y="-11.375"/>
      <point x="-70.375" y="119.625"/>
    </contour>
  </outline>
</glyph>
<glyph name="f" format="2">
  <advance width="291"/>
  <unicode hex="0066"/>
  <outline>
    <contour>
      <point x="-67.125" y="0.0" type="line"/>
      <point x="125.25" y="1258.875" type="line" smooth="yes"/>
      <point x="143.875" y="1371.625"/>
      <point x="259.5" y="1476.125"/>
      <point x="342.0" y="1476.125" type="qcurve" smooth="yes"/>
      <point x="386.875" y="1476.125"/>
      <point x="435.625" y="1468.25"/>
      <point x="447.0" y="1464.75" type="qcurve"/>
      <point x="403.875" y="1312.875" type="line"/>
      <point x="397.0" y="1314.875"/>
      <point x="380.375" y="1317.75"/>
      <point x="371.25" y="1317.75" type="qcurve" smooth="yes"/>
      <point x="348.25" y="1317.75"/>
      <point x="310.625" y="1283.0"/>
      <point x="303.625" y="1234.875" type="qcurve" smooth="yes"/>
      <point x="251.375" y="882.75" type="line"/>
      <point x="254.375" y="879.375" type="line"/>
      <point x="119.0" y="0.0" type="line"/>
    </contour>
    <contour>
      <point x="2.625" y="761.875" type="line"/>
      <point x="28.5" y="912.75" type="line"/>
      <point x="93.5" y="912.75" type="line"/>
      <point x="100.25" y="912.75" type="line"/>
      <point x="316.5" y="912.75" type="line"/>
      <point x="290.625" y="761.875" type="line"/>
    </contour>
  </outline>
</glyph>
<glyph name="g" format="2">
  <advance width="501"/>
  <unicode hex="0067"/>
  <outline>
    <contour>
      <point x="-112.875" y="-412.875" type="qcurve"/>
      <point x="-90.75" y="-272.625" type="line"/>
      <point x="-77.125" y="-280.375"/>
      <point x="-15.0" y="-297.0"/>
      <point x="34.0" y="-297.0" type="qcurve" smooth="yes"/>
      <point x="80.625" y="-297.0"/>
      <point x="144.125" y="-225.125"/>
      <point x="156.75" y="-142.125" type="qcurve" smooth="yes"/>
      <point x="185.75" y="56.375" type="line"/>
      <point x="170.375" y="35.375"/>
      <point x="106.125" y="-0.875"/>
      <point x="61.125" y="-0.875" type="qcurve" smooth="yes"/>
      <point x="-7.375" y="-0.875"/>
      <point x="-71.5" y="114.5"/>
      <point x="-50.875" y="237.5" type="qcurve" smooth="yes"/>
      <point x="16.75" y="697.125" type="line" smooth="yes"/>
      <point x="37.0" y="817.125"/>
      <point x="134.625" y="922.25"/>
      <point x="199.375" y="922.25" type="qcurve" smooth="yes"/>
      <point x="251.375" y="922.25"/>
      <point x="298.5" y="872.5"/>
      <point x="301.875" y="842.0" type="qcurve"/>
      <point x="302.625" y="842.0" type="line"/>
      <point x="313.0" y="912.75" type="line"/>
      <point x="498.0" y="912.75" type="line"/>
      <point x="345.125" y="-108.375" type="line" smooth="yes"/>
      <point x="314.125" y="-298.0"/>
      <point x="140.25" y="-435.375"/>
      <point x="39.0" y="-435.375" type="qcurve" smooth="yes"/>
      <point x="-29.25" y="-435.375"/>
      <point x="-98.125" y="-420.625"/>
    </contour>
    <contour>
      <point x="125.5" y="206.75" type="line" smooth="yes"/>
      <point x="120.125" y="168.5"/>
      <point x="137.0" y="131.625"/>
      <point x="157.125" y="131.625" type="qcurve" smooth="yes"/>
      <point x="175.125" y="131.625"/>
      <point x="200.25" y="152.625"/>
      <point x="204.375" y="166.5" type="qcurve" smooth="yes"/>
      <point x="284.25" y="715.875" type="line" smooth="yes"/>
      <point x="285.25" y="750.75"/>
      <point x="268.125" y="782.25"/>
      <point x="250.75" y="782.25" type="qcurve" smooth="yes"/>
      <point x="232.875" y="782.25"/>
      <point x="206.75" y="750.875"/>
      <point x="201.0" y="712.125" type="qcurve" smooth="yes"/>
    </contour>
  </outline>
</glyph>
<glyph name="h" format="2">
  <advance width="501"/>
  <unicode hex="0068"/>
  <outline>
    <contour>
      <point x="-80.625" y="0.0" type="line"/>
      <point x="141.375" y="1456.0" type="line"/>
      <point x="323.5" y="1456.0" type="line"/>
      <point x="230.0" y="845.25" type="line"/>
      <point x="242.375" y="870.875"/>
      <point x="315.0" y="924.875"/>
      <point x="369.375" y="924.875" type="qcurve" smooth="yes"/>
      <point x="431.375" y="924.875"/>
      <point x="489.0" y="850.875"/>
      <point x="477.375" y="772.5" type="qcurve" smooth="yes"/>
      <point x="356.625" y="0.0" type="line"/>
      <point x="173.625" y="0.0" type="line"/>
      <point x="286.125" y="726.0" type="line" smooth="yes"/>
      <point x="290.25" y="757.875"/>
      <point x="278.5" y="786.0"/>
      <point x="260.625" y="786.0" type="qcurve" smooth="yes"/>
      <point x="243.0" y="786.0"/>
      <point x="216.375" y="748.5"/>
      <point x="209.75" y="718.875" type="qcurve" smooth="yes"/>
      <point x="101.75" y="0.0" type="line"/>
    </contour>
  </outline>
</glyph>
<glyph name="i" format="2">
  <advance width="258"/>
  <unicode hex="0069"/>
  <outline>
    <contour>
      <point x="-78.75" y="0.0" type="line"/>
      <point x="60.375" y="912.75" type="line"/>
      <point x="245.25" y="912.75" type="line"/>
      <point x="105.5" y="0.0" type="line"/>
    </contour>
    <contour>
      <point x="89.875" y="1222.125" type="qcurve" smooth="yes"/>
      <point x="92.125" y="1267.0"/>
      <point x="154.0" y="1328.25"/>
      <point x="205.0" y="1328.25" type="qcurve" smooth="yes"/>
      <point x="256.0" y="1328.25"/>
      <point x="306.625" y="1269.25"/>
      <point x="304.375" y="1222.75" type="qcurve" smooth="yes"/>
      <point x="299.875" y="1177.875"/>
      <point x="240.875" y="1113.75"/>
      <point x="189.25" y="1113.75" type="qcurve" smooth="yes"/>
      <point x="137.625" y="1113.75"/>
      <point x="85.375" y="1177.875"/>
    </contour>
  </outline>
</glyph>
<glyph name="j" format="2">
  <advance width="253"/>
  <unicode hex="006A"/>
  <outline>
    <contour>
      <point x="-291.0" y="-423.375" type="qcurve"/>
      <point x="-270.375" y="-275.625" type="line"/>
      <point x="-259.625" y="-280.0"/>
      <point x="-222.0" y="-287.625"/>
      <point x="-191.5" y="-287.625" type="qcurve" smooth="yes"/>
      <point x="-155.75" y="-287.625"/>
      <point x="-111.875" y="-237.125"/>
      <point x="-101.375" y="-170.625" type="qcurve" smooth="yes"/>
      <point x="60.375" y="912.75" type="line"/>
      <point x="245.625" y="912.75" type="line"/>
      <point x="77.375" y="-205.125" type="line" smooth="yes"/>
      <point x="59.625" y="-315.75"/>
      <point x="-70.5" y="-438.5"/>
      <point x="-175.25" y="-438.5" type="qcurve" smooth="yes"/>
      <point x="-220.5" y="-438.5"/>
      <point x="-271.375" y="-428.5"/>
    </contour>
    <contour>
      <point x="89.125" y="1222.125" type="qcurve" smooth="yes"/>
      <point x="93.625" y="1269.25"/>
      <point x="153.25" y="1330.5"/>
      <point x="204.25" y="1330.5" type="qcurve" smooth="yes"/>
      <point x="257.5" y="1330.5"/>
      <point x="308.125" y="1269.25"/>
      <point x="303.625" y="1222.75" type="qcurve" smooth="yes"/>
      <point x="301.375" y="1177.875"/>
      <point x="242.375" y="1113.75"/>
      <point x="188.5" y="1113.75" type="qcurve" smooth="yes"/>
      <point x="136.875" y="1113.75"/>
      <point x="86.875" y="1177.875"/>
    </contour>
  </outline>
</glyph>
<glyph name="k" format="2">
  <advance width="477"/>
  <unicode hex="006B"/>
  <outline>
    <contour>
      <point x="-80.625" y="0.0" type="line"/>
      <point x="142.0" y="1456.0" type="line"/>
      <point x="325.25" y="1456.0" type="line"/>
      <point x="185.375" y="534.375" type="line"/>
      <point x="327.0" y="912.75" type="line"/>
      <point x="508.625" y="912.75" type="line"/>
      <point x="146.0" y="301.75" type="line"/>
      <point x="101.375" y="0.0" type="line"/>
    </contour>
    <contour>
      <point x="194.875" y="0.0" type="line"/>
      <point x="164.375" y="480.625" type="line"/>
      <point x="299.5" y="646.875" type="line"/>
      <point x="381.75" y="0.0" type="line"/>
    </contour>
  </outline>
</glyph>
<glyph name="m" format="2">
  <advance width="755"/>
  <unicode hex="006D"/>
  <outline>
    <contour>
      <point x="-80.625" y="0.0" type="line"/>
      <point x="58.5" y="912.75" type="line"/>
      <point x="240.0" y="912.75" type="line"/>
      <point x="228.5" y="837.0" type="line"/>
      <point x="228.5" y="837.0" type="line"/>
      <point x="242.75" y="867.0"/>
      <point x="320.25" y="924.875"/>
      <point x="378.5" y="924.875" type="qcurve" smooth="yes"/>
      <point x="432.375" y="924.875"/>
      <point x="477.0" y="870.125"/>
      <point x="480.375" y="826.875" type="qcurve"/>
      <point x="484.125" y="826.875" type="line"/>
      <point x="502.0" y="867.75"/>
      <point x="576.75" y="924.875"/>
      <point x="630.25" y="924.875" type="qcurve" smooth="yes"/>
      <point x="690.875" y="924.875"/>
      <point x="743.25" y="850.875"/>
      <point x="731.625" y="772.5" type="qcurve" smooth="yes"/>
      <point x="614.625" y="0.0" type="line"/>
      <point x="431.625" y="0.0" type="line"/>
      <point x="540.375" y="726.0" type="line" smooth="yes"/>
      <point x="544.5" y="757.875"/>
      <point x="532.75" y="786.0"/>
      <point x="517.375" y="786.0" type="qcurve" smooth="yes"/>
      <point x="501.0" y="786.0"/>
      <point x="472.5" y="752.25"/>
      <point x="464.625" y="722.625" type="qcurve" smooth="yes"/>
      <point x="356.625" y="0.0" type="line"/>
      <point x="173.625" y="0.0" type="line"/>
      <point x="282.375" y="726.0" type="line" smooth="yes"/>
      <point x="287.125" y="757.875"/>
      <point x="278.5" y="786.0"/>
      <point x="261.25" y="786.0" type="qcurve" smooth="yes"/>
      <point x="243.0" y="786.0"/>
      <point x="215.75" y="748.5"/>
      <point x="209.125" y="718.875" type="qcurve" smooth="yes"/>
      <point x="101.75" y="0.0" type="line"/>
    </contour>
  </outline>
</glyph>
<glyph name="n" format="2">
  <advance width="501"/>
  <unicode hex="006E"/>
  <outline>
    <contour>
      <point x="-80.625" y="0.0" type="line"/>
      <point x="58.5" y="912.75" type="line"/>
      <point x="240.0" y="912.75" type="line"/>
      <point x="228.5" y="838.125" type="line"/>
      <point x="229.625" y="838.125" type="line"/>
      <point x="242.375" y="866.25"/>
      <point x="316.125" y="924.875"/>
      <point x="373.5" y="924.875" type="qcurve" smooth="yes"/>
      <point x="435.5" y="924.875"/>
      <point x="489.0" y="850.875"/>
      <point x="477.375" y="772.5" type="qcurve" smooth="yes"/>
      <point x="356.625" y="0.0" type="line"/>
      <point x="173.625" y="0.0" type="line"/>
      <point x="286.125" y="726.0" type="line" smooth="yes"/>
      <point x="290.25" y="757.875"/>
      <point x="278.5" y="786.0"/>
      <point x="260.625" y="786.0" type="qcurve" smooth="yes"/>
      <point x="243.0" y="786.0"/>
      <point x="216.75" y="748.5"/>
      <point x="209.75" y="718.875" type="qcurve" smooth="yes"/>
      <point x="101.75" y="0.0" type="line"/>
    </contour>
  </outline>
</glyph>
<glyph name="o" format="2">
  <advance width="499"/>
  <unicode hex="006F"/>
  <outline>
    <contour>
      <point x="-50.25" y="241.875" type="qcurve" smooth="yes"/>
      <point x="14.25" y="678.375" type="line" smooth="yes"/>
      <point x="36.125" y="808.125"/>
      <point x="170.125" y="928.25"/>
      <point x="277.375" y="928.25" type="qcurve" smooth="yes"/>
      <point x="385.125" y="928.25"/>
      <point x="480.625" y="808.125"/>
      <point x="458.75" y="678.375" type="qcurve" smooth="yes"/>
      <point x="398.0" y="241.875" type="line" smooth="yes"/>
      <point x="376.5" y="116.375"/>
      <point x="240.0" y="-11.375"/>
      <point x="132.625" y="-11.375" type="qcurve" smooth="yes"/>
      <point x="27.0" y="-11.375"/>
      <point x="-72.375" y="114.5"/>
    </contour>
    <contour>
      <point x="199.5" y="699.375" type="qcurve" smooth="yes"/>
      <point x="125.75" y="210.0" type="line" smooth="yes"/>
      <point x="119.75" y="169.5"/>
      <point x="135.0" y="130.125"/>
      <point x="157.375" y="130.125" type="qcurve" smooth="yes"/>
      <point x="178.75" y="130.125"/>
      <point x="205.375" y="168.875"/>
      <point x="210.75" y="209.625" type="qcurve" smooth="yes"/>
      <point x="280.75" y="699.375" type="line" smooth="yes"/>
      <point x="287.75" y="748.125"/>
      <point x="275.25" y="784.5"/>
      <point x="253.0" y="784.5" type="qcurve" smooth="yes"/>
      <point x="229.375" y="784.5"/>
      <point x="206.5" y="748.125"/>
    </contour>
  </outline>
</glyph>
<glyph name="p" format="2">
  <advance width="507"/>
  <unicode hex="0070"/>
  <outline>
    <contour>
      <point x="-142.75" y="-404.25" type="line"/>
      <point x="58.125" y="912.75" type="line"/>
      <point x="237.0" y="912.75" type="line"/>
      <point x="227.375" y="847.875" type="line"/>
      <point x="228.875" y="848.25" type="line"/>
      <point x="240.875" y="875.625"/>
      <point x="305.75" y="925.625"/>
      <point x="353.625" y="925.625" type="qcurve" smooth="yes"/>
      <point x="417.875" y="925.625"/>
      <point x="483.5" y="815.875"/>
      <point x="463.5" y="697.125" type="qcurve" smooth="yes"/>
      <point x="400.25" y="239.375" type="line" smooth="yes"/>
      <point x="378.125" y="112.625"/>
      <point x="276.0" y="-8.75"/>
      <point x="206.25" y="-8.75" type="qcurve" smooth="yes"/>
      <point x="167.125" y="-8.75"/>
      <point x="118.0" y="9.875"/>
      <point x="103.125" y="25.125" type="qcurve"/>
      <point x="39.375" y="-404.25" type="line"/>
    </contour>
    <contour>
      <point x="128.375" y="166.5" type="line" smooth="yes"/>
      <point x="128.0" y="152.625"/>
      <point x="146.0" y="131.625"/>
      <point x="166.5" y="131.625" type="qcurve" smooth="yes"/>
      <point x="188.5" y="131.625"/>
      <point x="211.75" y="169.125"/>
      <point x="217.125" y="208.625" type="qcurve" smooth="yes"/>
      <point x="288.25" y="712.125" type="line" smooth="yes"/>
      <point x="294.0" y="751.5"/>
      <point x="278.0" y="782.25"/>
      <point x="261.375" y="782.25" type="qcurve" smooth="yes"/>
      <point x="242.75" y="782.25"/>
      <point x="215.25" y="749.625"/>
      <point x="207.625" y="715.875" type="qcurve" smooth="yes"/>
    </contour>
  </outline>
</glyph>
<glyph name="q" format="2">
  <advance width="510"/>
  <unicode hex="0071"/>
  <outline>
    <contour>
      <point x="-49.0" y="237.5" type="qcurve" smooth="yes"/>
      <point x="18.625" y="697.125" type="line" smooth="yes"/>
      <point x="38.875" y="817.125"/>
      <point x="138.75" y="925.625"/>
      <point x="206.125" y="925.625" type="qcurve" smooth="yes"/>
      <point x="253.625" y="925.625"/>
      <point x="300.75" y="875.875"/>
      <point x="305.25" y="845.375" type="qcurve"/>
      <point x="310.125" y="845.375" type="line"/>
      <point x="320.875" y="912.75" type="line"/>
      <point x="501.625" y="912.75" type="line"/>
      <point x="299.5" y="-404.25" type="line"/>
      <point x="116.5" y="-404.25" type="line"/>
      <point x="186.125" y="46.25" type="line"/>
      <point x="186.125" y="46.25" type="line"/>
      <point x="167.75" y="25.25"/>
      <point x="105.75" y="-5.0"/>
      <point x="64.875" y="-5.0" type="qcurve" smooth="yes"/>
      <point x="-4.375" y="-5.0"/>
      <point x="-70.0" y="117.125"/>
    </contour>
    <contour>
      <point x="127.75" y="210.5" type="line" smooth="yes"/>
      <point x="122.375" y="172.875"/>
      <point x="139.25" y="135.375"/>
      <point x="160.0" y="135.375" type="qcurve" smooth="yes"/>
      <point x="177.375" y="135.375"/>
      <point x="199.375" y="154.5"/>
      <point x="206.625" y="170.25" type="qcurve" smooth="yes"/>
      <point x="285.75" y="715.875" type="line" smooth="yes"/>
      <point x="286.75" y="750.75"/>
      <point x="269.625" y="782.25"/>
      <point x="252.25" y="782.25" type="qcurve" smooth="yes"/>
      <point x="234.375" y="782.25"/>
      <point x="208.25" y="750.875"/>
      <point x="202.5" y="712.125" type="qcurve" smooth="yes"/>
    </contour>
  </outline>
</glyph>
<glyph name="r" format="2">
  <advance width="337"/>
  <unicode hex="0072"/>
  <outline>
    <contour>
      <point x="-80.625" y="0.0" type="line"/>
      <point x="58.5" y="912.75" type="line"/>
      <point x="240.0" y="912.75" type="line"/>
      <point x="228.5" y="837.75" type="line"/>
      <point x="229.625" y="837.75" type="line"/>
      <point x="241.75" y="871.625"/>
      <point x="293.25" y="921.875"/>
      <point x="323.0" y="921.875" type="qcurve" smooth="yes"/>
      <point x="336.625" y="921.875"/>
      <point x="357.375" y="915.25"/>
      <point x="362.25" y="912.5" type="qcurve"/>
      <point x="335.625" y="758.375" type="line"/>
      <point x="330.375" y="762.625"/>
      <point x="307.375" y="769.125"/>
      <point x="296.25" y="769.125" type="qcurve" smooth="yes"/>
      <point x="272.5" y="769.125"/>
      <point x="222.5" y="725.0"/>
      <point x="206.375" y="682.625" type="qcurve"/>
      <point x="105.5" y="0.0" type="line"/>
    </contour>
  </outline>
</glyph>
<glyph name="s" format="2">
  <advance width="429"/>
  <unicode hex="0073"/>
  <outline>
    <contour>
      <point x="-55.5" y="287.25" type="line"/>
      <point x="89.0" y="287.25" type="line"/>
      <point x="71.5" y="175.5" type="line" smooth="yes"/>
      <point x="64.5" y="129.125"/>
      <point x="79.625" y="92.625"/>
      <point x="102.125" y="92.625" type="qcurve" smooth="yes"/>
      <point x="124.25" y="92.625"/>
      <point x="151.375" y="137.25"/>
      <point x="163.375" y="219.5" type="qcurve" smooth="yes"/>
      <point x="175.5" y="299.25"/>
      <point x="153.375" y="383.25"/>
      <point x="92.75" y="438.125" type="qcurve" smooth="yes"/>
      <point x="35.25" y="490.125"/>
      <point x="0.375" y="596.625"/>
      <point x="17.25" y="709.0" type="qcurve" smooth="yes"/>
      <point x="36.625" y="834.25"/>
      <point x="142.5" y="928.25"/>
      <point x="238.125" y="928.25" type="qcurve" smooth="yes"/>
      <point x="338.75" y="928.25"/>
      <point x="406.375" y="833.5"/>
      <point x="393.0" y="745.5" type="qcurve" smooth="yes"/>
      <point x="377.25" y="634.875" type="line"/>
      <point x="232.375" y="634.875" type="line"/>
      <point x="244.125" y="724.5" type="line" smooth="yes"/>
      <point x="251.125" y="777.0"/>
      <point x="237.0" y="814.5"/>
      <point x="218.625" y="814.5" type="qcurve" smooth="yes"/>
      <point x="199.625" y="814.5"/>
      <point x="173.625" y="774.375"/>
      <point x="163.5" y="700.375" type="qcurve" smooth="yes"/>
      <point x="153.0" y="627.0"/>
      <point x="169.0" y="571.875"/>
      <point x="233.875" y="519.875" type="qcurve" smooth="yes"/>
      <point x="303.625" y="467.25"/>
      <point x="353.625" y="338.625"/>
      <point x="333.75" y="213.5" type="qcurve" smooth="yes"/>
      <point x="312.875" y="82.25"/>
      <point x="200.75" y="-11.0"/>
      <point x="95.75" y="-11.0" type="qcurve" smooth="yes"/>
      <point x="-7.0" y="-11.0"/>
      <point x="-88.5" y="83.625"/>
      <point x="-72.25" y="179.625" type="qcurve" smooth="yes"/>
    </contour>
  </outline>
</glyph>
<glyph name="t" format="2">
  <advance width="294"/>
  <unicode hex="0074"/>
  <outline>
    <contour>
      <point x="6.875" y="764.125" type="line"/>
      <point x="32.375" y="912.75" type="line"/>
      <point x="316.625" y="912.75" type="line"/>
      <point x="291.125" y="764.125" type="line"/>
    </contour>
    <contour>
      <point x="-42.25" y="171.0" type="qcurve" smooth="yes"/>
      <point x="69.5" y="895.125" type="line"/>
      <point x="77.75" y="899.25" type="line"/>
      <point x="104.5" y="1073.25" type="line"/>
      <point x="275.625" y="1073.25" type="line"/>
      <point x="146.375" y="223.875" type="line" smooth="yes"/>
      <point x="139.125" y="177.0"/>
      <point x="159.75" y="136.875"/>
      <point x="181.375" y="136.875" type="qcurve" smooth="yes"/>
      <point x="196.875" y="136.875"/>
      <point x="213.625" y="142.125"/>
      <point x="220.75" y="144.5" type="qcurve"/>
      <point x="198.75" y="11.5" type="line"/>
      <point x="182.375" y="4.75"/>
      <point x="123.125" y="-8.0"/>
      <point x="90.375" y="-8.0" type="qcurve" smooth="yes"/>
      <point x="12.75" y="-8.0"/>
      <point x="-57.0" y="79.125"/>
    </contour>
  </outline>
</glyph>
<glyph name="u" format="2">
  <advance width="503"/>
  <unicode hex="0075"/>
  <outline>
    <contour>
      <point x="-60.0" y="121.5" type="qcurve" smooth="yes"/>
      <point x="58.875" y="912.75" type="line"/>
      <point x="241.25" y="912.75" type="line"/>
      <point x="130.625" y="168.0" type="line" smooth="yes"/>
      <point x="127.75" y="146.75"/>
      <point x="138.625" y="126.75"/>
      <point x="154.0" y="126.75" type="qcurve" smooth="yes"/>
      <point x="170.375" y="126.75"/>
      <point x="198.75" y="161.125"/>
      <point x="207.0" y="193.875" type="qcurve" smooth="yes"/>
      <point x="316.875" y="912.75" type="line"/>
      <point x="499.25" y="912.75" type="line"/>
      <point x="357.0" y="0.0" type="line"/>
      <point x="176.75" y="0.0" type="line"/>
      <point x="188.25" y="74.625" type="line"/>
      <point x="187.125" y="74.625" type="line"/>
      <point x="173.5" y="45.875"/>
      <point x="97.5" y="-12.125"/>
      <point x="40.125" y="-12.125" type="qcurve" smooth="yes"/>
      <point x="-17.5" y="-12.125"/>
      <point x="-71.375" y="51.25"/>
    </contour>
  </outline>
</glyph>
<glyph name="v" format="2">
  <advance width="452"/>
  <unicode hex="0076"/>
  <outline>
    <contour>
      <point x="20.25" y="912.75" type="line"/>
      <point x="190.25" y="912.75" type="line"/>
      <point x="157.0" y="258.0" type="line" smooth="yes"/>
      <point x="157.0" y="250.5"/>
      <point x="155.625" y="231.25"/>
      <point x="154.875" y="224.875" type="qcurve"/>
      <point x="155.25" y="224.875" type="line"/>
      <point x="156.375" y="230.875"/>
      <point x="161.25" y="250.5"/>
      <point x="163.5" y="256.875" type="qcurve" smooth="yes"/>
      <point x="320.625" y="912.75" type="line"/>
      <point x="476.375" y="912.75" type="line"/>
      <point x="214.125" y="0.0" type="line"/>
      <point x="3.375" y="0.0" type="line"/>
    </contour>
  </outline>
</glyph>
<glyph name="w" format="2">
  <advance width="635"/>
  <unicode hex="0077"/>
  <outline>
    <contour>
      <point x="15.375" y="912.75" type="line"/>
      <point x="168.875" y="912.75" type="line"/>
      <point x="126.0" y="239.25" type="line" smooth="yes"/>
      <point x="125.625" y="233.625"/>
      <point x="125.375" y="207.75"/>
      <point x="125.375" y="207.375" type="qcurve"/>
      <point x="125.375" y="207.375" type="line"/>
      <point x="125.375" y="207.75"/>
      <point x="132.125" y="233.625"/>
      <point x="133.25" y="239.25" type="qcurve" smooth="yes"/>
      <point x="274.5" y="912.75" type="line"/>
      <point x="413.625" y="912.75" type="line"/>
      <point x="358.125" y="239.25" type="line" smooth="yes"/>
      <point x="357.375" y="233.625"/>
      <point x="356.125" y="207.75"/>
      <point x="356.125" y="207.375" type="qcurve"/>
      <point x="356.125" y="207.375" type="line"/>
      <point x="356.125" y="207.75"/>
      <point x="363.875" y="233.625"/>
      <point x="365.375" y="239.25" type="qcurve" smooth="yes"/>
      <point x="511.75" y="912.75" type="line"/>
      <point x="665.25" y="912.75" type="line"/>
      <point x="422.625" y="0.0" type="line"/>
      <point x="249.75" y="0.0" type="line"/>
      <point x="300.625" y="671.625" type="line" smooth="yes"/>
      <point x="301.0" y="674.625"/>
      <point x="302.625" y="693.75"/>
      <point x="303.0" y="694.875" type="qcurve"/>
      <point x="303.0" y="694.875" type="line"/>
      <point x="302.625" y="693.75"/>
      <point x="297.875" y="674.625"/>
      <point x="297.125" y="671.625" type="qcurve" smooth="yes"/>
      <point x="153.375" y="0.0" type="line"/>
      <point x="-20.25" y="0.0" type="line"/>
    </contour>
  </outline>
</glyph>
<glyph name="x" format="2">
  <advance width="452"/>
  <unicode hex="0078"/>
  <outline>
    <contour>
      <point x="-135.375" y="0.0" type="line"/>
      <point x="135.375" y="522.25" type="line"/>
      <point x="151.125" y="522.25" type="line"/>
      <point x="320.125" y="912.75" type="line"/>
      <point x="487.5" y="912.75" type="line"/>
      <point x="224.875" y="414.125" type="line"/>
      <point x="209.125" y="414.125" type="line"/>
      <point x="33.875" y="0.0" type="line"/>
    </contour>
    <contour>
      <point x="19.375" y="912.75" type="line"/>
      <point x="202.125" y="912.75" type="line"/>
      <point x="245.625" y="531.125" type="line"/>
      <point x="259.5" y="531.125" type="line"/>
      <point x="351.75" y="0.0" type="line"/>
      <point x="161.875" y="0.0" type="line"/>
      <point x="124.75" y="407.0" type="line"/>
      <point x="111.25" y="407.0" type="line"/>
    </contour>
  </outline>
</glyph>
<glyph name="y" format="2">
  <advance width="445"/>
  <unicode hex="0079"/>
  <outline>
    <contour>
      <point x="-293.25" y="-391.5" type="qcurve"/>
      <point x="-253.5" y="-261.5" type="line"/>
      <point x="-238.5" y="-268.125"/>
      <point x="-193.125" y="-278.875"/>
      <point x="-155.25" y="-278.875" type="qcurve" smooth="yes"/>
      <point x="-98.625" y="-278.875"/>
      <point x="-32.75" y="-182.75"/>
      <point x="6.625" y="-3.5" type="qcurve" smooth="yes"/>
      <point x="7.375" y="1.0" type="line"/>
      <point x="16.875" y="912.75" type="line"/>
      <point x="185.375" y="912.75" type="line"/>
      <point x="155.375" y="310.5" type="line" smooth="yes"/>
      <point x="154.75" y="293.625"/>
      <point x="151.5" y="232.5"/>
      <point x="150.125" y="218.625" type="qcurve"/>
      <point x="150.5" y="218.625" type="line"/>
      <point x="152.875" y="232.125"/>
      <point x="168.25" y="292.625"/>
      <point x="173.5" y="310.125" type="qcurve" smooth="yes"/>
      <point x="316.5" y="912.75" type="line"/>
      <point x="473.0" y="912.75" type="line"/>
      <point x="219.875" y="23.25" type="line" smooth="yes"/>
      <point x="139.625" y="-252.375"/>
      <point x="-16.125" y="-417.625"/>
      <point x="-132.375" y="-417.0" type="qcurve" smooth="yes"/>
      <point x="-196.5" y="-417.0"/>
      <point x="-274.625" y="-401.375"/>
    </contour>
  </outline>
</glyph>
<glyph name="z" format="2">
  <advance width="400"/>
  <unicode hex="007A"/>
  <outline>
    <contour>
      <point x="-102.375" y="0.0" type="line"/>
      <point x="-83.625" y="110.625" type="line"/>
      <point x="155.875" y="761.875" type="line"/>
      <point x="21.75" y="761.875" type="line"/>
      <point x="47.625" y="912.75" type="line"/>
      <point x="409.125" y="912.75" type="line"/>
      <point x="388.875" y="794.625" type="line"/>
      <point x="150.125" y="143.375" type="line"/>
      <point x="309.0" y="143.375" type="line"/>
      <point x="284.25" y="0.0" type="line"/>
    </contour>
  </outline>
</glyph>
<glyph name="braceleft" format="2">
  <advance width="329"/>
  <unicode hex="007B"/>
  <outline>
    <contour>
      <point x="166.125" y="-312.0" type="line"/>
      <point x="3.375" y="-316.5"/>
      <point x="-48.375" y="-81.375"/>
      <point x="8.625" y="112.125" type="qcurve" smooth="yes"/>
      <point x="72.375" y="319.5" type="line" smooth="yes"/>
      <point x="104.25" y="424.875"/>
      <point x="53.25" y="517.5"/>
      <point x="-3.0" y="517.5" type="qcurve"/>
      <point x="5.625000000000007" y="629.25" type="line"/>
      <point x="62.25" y="629.25"/>
      <point x="141.25" y="721.875"/>
      <point x="145.75" y="827.25" type="qcurve" smooth="yes"/>
      <point x="150.75" y="1034.625" type="line" smooth="yes"/>
      <point x="150.625" y="1225.875"/>
      <point x="277.875" y="1461.625"/>
      <point x="436.875" y="1459.375" type="qcurve"/>
      <point x="427.5" y="1358.625" type="line"/>
      <point x="366.0" y="1358.625"/>
      <point x="288.25" y="1174.875"/>
      <point x="281.25" y="1014.375" type="qcurve" smooth="yes"/>
      <point x="276.625" y="815.25" type="line" smooth="yes"/>
      <point x="274.375" y="716.25"/>
      <point x="204.625" y="592.125"/>
      <point x="144.375" y="573.375" type="qcurve"/>
      <point x="200.625" y="551.5"/>
      <point x="232.875" y="433.625"/>
      <point x="202.875" y="335.25" type="qcurve" smooth="yes"/>
      <point x="139.125" y="132.375" type="line" smooth="yes"/>
      <point x="93.125" y="-28.125"/>
      <point x="112.5" y="-209.375"/>
      <point x="175.875" y="-209.375" type="qcurve"/>
    </contour>
  </outline>
</glyph>
<glyph name="bar" format="2">
  <advance width="317"/>
  <unicode hex="007C"/>
  <outline>
    <contour>
      <point x="-94.5" y="-414.75" type="line"/>
      <point x="199.875" y="1457.25" type="line"/>
      <point x="349.125" y="1457.25" type="line"/>
      <point x="55.125" y="-414.75" type="line"/>
    </contour>
  </outline>
</glyph>
<glyph name="braceright" format="2">
  <advance width="329"/>
  <unicode hex="007D"/>
  <outline>
    <contour>
      <point x="-145.125" y="-312.375" type="qcurve"/>
      <point x="-135.375" y="-209.75" type="line"/>
      <point x="-71.75" y="-209.75"/>
      <point x="10.125" y="-28.5"/>
      <point x="14.25" y="131.625" type="qcurve" smooth="yes"/>
      <point x="16.125" y="334.875" type="line" smooth="yes"/>
      <point x="17.625" y="433.875"/>
      <point x="87.125" y="551.75"/>
      <point x="149.625" y="573.0" type="qcurve"/>
      <point x="94.875" y="591.75"/>
      <point x="64.5" y="715.25"/>
      <point x="93.25" y="814.875" type="qcurve" smooth="yes"/>
      <point x="153.875" y="1014.0" type="line" smooth="yes"/>
      <point x="198.375" y="1175.125"/>
      <point x="182.375" y="1351.375"/>
      <point x="119.375" y="1355.125" type="qcurve"/>
      <point x="129.75" y="1458.375" type="line"/>
      <point x="293.125" y="1459.125"/>
      <point x="341.5" y="1227.375"/>
      <point x="286.0" y="1034.25" type="qcurve" smooth="yes"/>
      <point x="224.125" y="826.875" type="line" smooth="yes"/>
      <point x="193.5" y="721.5"/>
      <point x="242.25" y="628.875"/>
      <point x="298.875" y="628.875" type="qcurve"/>
      <point x="286.125" y="516.75" type="line"/>
      <point x="233.625" y="516.75"/>
      <point x="151.5" y="424.125"/>
      <point x="146.625" y="319.125" type="qcurve" smooth="yes"/>
      <point x="144.75" y="111.375" type="line" smooth="yes"/>
      <point x="147.375" y="-79.5"/>
      <point x="17.625" y="-314.625"/>
    </contour>
  </outline>
</glyph>
<glyph name="asciitilde" format="2">
  <advance width="462"/>
  <unicode hex="007E"/>
  <outline>
    <contour>
      <point x="12.0" y="562.875" type="qcurve"/>
      <point x="44.75" y="728.0" type="line"/>
      <point x="65.375" y="756.0"/>
      <point x="119.25" y="787.125"/>
      <point x="147.75" y="786.375" type="qcurve" smooth="yes"/>
      <point x="171.0" y="786.0"/>
      <point x="216.375" y="771.375"/>
      <point x="243.0" y="756.75" type="qcurve" smooth="yes"/>
      <point x="270.75" y="742.125"/>
      <point x="309.375" y="725.625"/>
      <point x="327.0" y="725.25" type="qcurve" smooth="yes"/>
      <point x="349.875" y="724.875"/>
      <point x="394.875" y="750.25"/>
      <point x="418.5" y="777.375" type="qcurve"/>
      <point x="384.5" y="596.625" type="line"/>
      <point x="367.5" y="576.875"/>
      <point x="322.125" y="552.75"/>
      <point x="295.125" y="553.5" type="qcurve" smooth="yes"/>
      <point x="275.625" y="553.875"/>
      <point x="224.375" y="569.25"/>
      <point x="193.125" y="585.375" type="qcurve" smooth="yes"/>
      <point x="168.375" y="597.5"/>
      <point x="129.375" y="611.625"/>
      <point x="109.875" y="612.0" type="qcurve" smooth="yes"/>
      <point x="78.0" y="612.375"/>
      <point x="34.125" y="584.25"/>
    </contour>
  </outline>
</glyph>
<glyph name="exclamdown" format="2">
  <advance width="652"/>
  <unicode hex="00A1"/>
  <outline>
    <contour>
      <point x="501.5451941787585" y="1041.375" type="qcurve" smooth="yes"/>
      <point x="496.14518039456175" y="987.5"/>
      <point x="416.1808749885664" y="910.75"/>
      <point x="348.3058749885664" y="910.75" type="qcurve" smooth="yes"/>
      <point x="280.8058749885664" y="910.75"/>
      <point x="216.64518039456175" y="987.5"/>
      <point x="222.0451941787585" y="1041.375" type="qcurve" smooth="yes"/>
      <point x="227.44520796295524" y="1095.25"/>
      <point x="307.40951336895057" y="1172.0"/>
      <point x="374.9095133689506" y="1172.0" type="qcurve" smooth="yes"/>
      <point x="442.4095133689506" y="1172.0"/>
      <point x="506.94520796295524" y="1095.25"/>
    </contour>
    <contour>
      <point x="422.8012285776651" y="734.0" type="line"/>
      <point x="324.7774649395061" y="-306.0" type="line"/>
      <point x="99.65246493950607" y="-306.0" type="line"/>
      <point x="231.80122857766509" y="734.0" type="line"/>
    </contour>
  </outline>
</glyph>
<glyph name="cent" format="2">
  <advance width="1095"/>
  <unicode hex="00A2"/>
  <outline>
    <contour>
      <point x="535.5776303498669" y="302.25" type="qcurve" smooth="yes"/>
      <point x="627.0776303498669" y="302.25"/>
      <point x="797.066949540059" y="410.0"/>
      <point x="816.720546567853" y="473.625" type="qcurve"/>
      <point x="1018.5955465678529" y="473.625" type="line"/>
      <point x="991.7261183040912" y="346.875"/>
      <point x="689.8265671825627" y="130.0"/>
      <point x="518.8265671825627" y="130.0" type="qcurve" smooth="yes"/>
      <point x="251.8265671825628" y="130.0"/>
      <point x="38.40778077602694" y="466.375"/>
      <point x="62.21192317166972" y="668.875" type="qcurve" smooth="yes"/>
      <point x="66.8405064152669" y="712.75" type="line" smooth="yes"/>
      <point x="90.64464881090967" y="913.75"/>
      <point x="375.47586240437386" y="1252.0"/>
      <point x="642.4758624043739" y="1252.0" type="qcurve" smooth="yes"/>
      <point x="836.7258624043739" y="1252.0"/>
      <point x="1068.569676379303" y="1020.375"/>
      <point x="1059.9007521308" y="858.875" type="qcurve"/>
      <point x="858.7757521307999" y="858.875" type="line"/>
      <point x="860.0609840621362" y="939.875"/>
      <point x="732.7247992370696" y="1080.125"/>
      <point x="624.9747992370696" y="1080.125" type="qcurve" smooth="yes"/>
      <point x="441.4747992370697" y="1080.125"/>
      <point x="296.7691172272576" y="822.75"/>
      <point x="281.3405064152669" y="712.75" type="qcurve" smooth="yes"/>
      <point x="276.7119231716697" y="668.875" type="line" smooth="yes"/>
      <point x="261.06290363379344" y="549.0"/>
      <point x="349.702630349867" y="302.25"/>
    </contour>
    <contour>
      <point x="419.0" y="0.0" type="line"/>
      <point x="445.11843401744136" y="255.75" type="line"/>
      <point x="453.53629509864044" y="269.75" type="line"/>
      <point x="503.89968896349575" y="708.0" type="line"/>
      <point x="655.1496889634957" y="708.0" type="line"/>
      <point x="604.6760907356976" y="268.75" type="line"/>
      <point x="610.4490471062697" y="258.75" type="line"/>
      <point x="584.0" y="0.0" type="line"/>
    </contour>
    <contour>
      <point x="503.89968896349575" y="708.0" type="line"/>
      <point x="556.1365569983785" y="1182.0" type="line"/>
      <point x="550.3636006278064" y="1192.0" type="line"/>
      <point x="573.5065168457925" y="1402.0" type="line"/>
      <point x="738.5065168457925" y="1402.0" type="line"/>
      <point x="715.3636006278064" y="1192.0" type="line"/>
      <point x="707.0559439095501" y="1179.0" type="line"/>
      <point x="655.1496889634957" y="708.0" type="line"/>
    </contour>
  </outline>
</glyph>
<glyph name="sterling" format="2">
  <advance width="1074"/>
  <unicode hex="00A3"/>
  <outline>
    <contour>
      <point x="1006.875" y="0.0" type="line"/>
      <point x="-44.0" y="0.0" type="line"/>
      <point x="-26.3673019291535" y="183.25" type="line"/>
      <point x="33.0076980708465" y="183.25" type="line" smooth="yes"/>
      <point x="130.2576980708465" y="183.25"/>
      <point x="225.70621359346416" y="324.0"/>
      <point x="226.7154374942832" y="467.0" type="qcurve" smooth="yes"/>
      <point x="231.37733309755944" y="1039.0" type="line" smooth="yes"/>
      <point x="233.83095769374685" y="1219.75"/>
      <point x="481.0366397035589" y="1476.0"/>
      <point x="695.9116397035589" y="1476.0" type="qcurve" smooth="yes"/>
      <point x="896.0366397035589" y="1476.0"/>
      <point x="1100.5845409373442" y="1265.125"/>
      <point x="1082.180412325898" y="1103.0" type="qcurve" smooth="yes"/>
      <point x="1080.4171425188135" y="1087.0" type="line"/>
      <point x="857.6671425188134" y="1087.0" type="line"/>
      <point x="859.430412325898" y="1103.0" type="line" smooth="yes"/>
      <point x="862.4789140643189" y="1211.625"/>
      <point x="765.132511092113" y="1283.125"/>
      <point x="679.507511092113" y="1283.125" type="qcurve" smooth="yes"/>
      <point x="587.757511092113" y="1283.125"/>
      <point x="451.84217008720685" y="1178.625"/>
      <point x="449.3773330975595" y="1039.0" type="qcurve" smooth="yes"/>
      <point x="444.85881637493765" y="489.25" type="line" smooth="yes"/>
      <point x="442.1210230147181" y="366.0"/>
      <point x="370.81230312915767" y="227.625"/>
      <point x="295.91892424850323" y="189.25" type="qcurve"/>
      <point x="1025.1689242485033" y="189.25" type="line"/>
    </contour>
    <contour>
      <point x="859.3777268392441" y="606.25" type="line"/>
      <point x="42.00272683924414" y="606.25" type="line"/>
      <point x="59.08440309537667" y="782.625" type="line"/>
      <point x="876.4594030953767" y="782.625" type="line"/>
    </contour>
  </outline>
</glyph>
<glyph name="currency" format="2">
  <advance width="1158"/>
  <unicode hex="00A4"/>
  <guideline x="19.294131011454336" y="901.0" angle="0" identifier="bRYxxRaQQf"/>
  <guideline x="-18.836578566751214" y="555.0" angle="0" identifier="917FhrihjR"/>
  <outline>
    <contour>
      <point x="243.3405064152669" y="710.5" type="qcurve"/>
      <point x="227.3608737885623" y="558.375"/>
      <point x="401.2312273776609" y="352.75"/>
      <point x="536.731227377661" y="352.75" type="qcurve" smooth="yes"/>
      <point x="671.231227377661" y="352.75"/>
      <point x="887.2358737885622" y="558.375"/>
      <point x="903.2155064152669" y="710.5" type="qcurve" smooth="yes"/>
      <point x="918.974730316086" y="859.875"/>
      <point x="745.7293767269873" y="1065.875"/>
      <point x="611.2293767269873" y="1065.875" type="qcurve" smooth="yes"/>
      <point x="475.7293767269873" y="1065.875"/>
      <point x="259.099730316086" y="859.875"/>
    </contour>
    <contour>
      <point x="32.126732592923645" y="716.875" type="qcurve"/>
      <point x="55.820670625623634" y="950.25"/>
      <point x="411.7503446049185" y="1270.375"/>
      <point x="629.6253446049185" y="1270.375" type="qcurve" smooth="yes"/>
      <point x="847.5003446049185" y="1270.375"/>
      <point x="1139.4456706256237" y="950.25"/>
      <point x="1115.7517325929236" y="716.875" type="qcurve" smooth="yes"/>
      <point x="1092.1679989231666" y="484.5"/>
      <point x="735.5327118550432" y="164.75"/>
      <point x="517.6577118550432" y="164.75" type="qcurve" smooth="yes"/>
      <point x="299.7827118550432" y="164.75"/>
      <point x="8.542998923166458" y="486.375"/>
    </contour>
    <contour>
      <point x="1211.7253308207216" y="1207.5" type="line"/>
      <point x="971.6482320545069" y="985.75" type="line"/>
      <point x="848.6441861482413" y="1128.5" type="line"/>
      <point x="1088.3462849144562" y="1350.25" type="line"/>
    </contour>
    <contour>
      <point x="278.26234448174785" y="322.125" type="line"/>
      <point x="38.56024571553301" y="100.375" type="line"/>
      <point x="-83.55400455367537" y="242.125" type="line"/>
      <point x="156.0378898495967" y="462.875" type="line"/>
    </contour>
    <contour>
      <point x="990.8316762561326" y="107.75" type="line"/>
      <point x="796.1587750223474" y="329.875" type="line"/>
      <point x="948.4195247531391" y="471.625" type="line"/>
      <point x="1142.827630349867" y="250.5" type="line"/>
    </contour>
    <contour>
      <point x="230.94109313570598" y="1000.875" type="line"/>
      <point x="36.26819190192083" y="1222.625" type="line"/>
      <point x="186.15394163271242" y="1364.75" type="line"/>
      <point x="380.8268428664976" y="1143.0" type="line"/>
    </contour>
  </outline>
</glyph>
<glyph name="yen" format="2">
  <advance width="1056"/>
  <unicode hex="00A5"/>
  <outline>
    <contour>
      <point x="13.273556875207873" y="299.0" type="line"/>
      <point x="30.79605058311159" y="481.25" type="line"/>
      <point x="976.7960505831115" y="481.25" type="line"/>
      <point x="959.2735568752079" y="299.0" type="line"/>
    </contour>
    <contour>
      <point x="47.43690938747297" y="628.5" type="line"/>
      <point x="64.40838128066272" y="803.875" type="line"/>
      <point x="430.4083812806627" y="803.875" type="line"/>
      <point x="471.72671880872696" y="691.875" type="line"/>
      <point x="580.7267188087269" y="691.875" type="line"/>
      <point x="640.4083812806628" y="803.875" type="line"/>
      <point x="1010.4083812806628" y="803.875" type="line"/>
      <point x="993.436909387473" y="628.5" type="line"/>
    </contour>
    <contour>
      <point x="342.125" y="0.0" type="line"/>
      <point x="402.51699089264923" y="548.0" type="line"/>
      <point x="47.58255244470314" y="1456.0" type="line"/>
      <point x="290.33255244470314" y="1456.0" type="line"/>
      <point x="479.56350413842927" y="871.875" type="line" smooth="yes"/>
      <point x="489.8823732501455" y="841.875"/>
      <point x="511.90632386703805" y="738.875"/>
      <point x="514.8287624381549" y="701.875" type="qcurve"/>
      <point x="534.8287624381549" y="701.875" type="line"/>
      <point x="550.000206762951" y="757.875"/>
      <point x="590.6323732501455" y="841.875"/>
      <point x="607.5635041384293" y="871.875" type="qcurve" smooth="yes"/>
      <point x="934.9575524447032" y="1456.0" type="line"/>
      <point x="1169.3325524447032" y="1456.0" type="line"/>
      <point x="614.2669908926492" y="548.0" type="line"/>
      <point x="553.875" y="0.0" type="line"/>
    </contour>
  </outline>
</glyph>
<glyph name="brokenbar" format="2">
  <advance width="619"/>
  <unicode hex="00A6"/>
  <guideline x="19.294131011454336" y="901.0" angle="0" identifier="jmguX8NWKI"/>
  <guideline x="-18.836578566751214" y="555.0" angle="0" identifier="Z0RZpP7MTi"/>
  <outline>
    <contour>
      <point x="288.1549850157991" y="-416.0" type="line"/>
      <point x="79.15498501579911" y="-416.0" type="line"/>
      <point x="164.56336629646185" y="359.0" type="line"/>
      <point x="373.5633662964618" y="359.0" type="line"/>
    </contour>
    <contour>
      <point x="503.27390148012637" y="1536.0" type="line"/>
      <point x="417.8655201994636" y="761.0" type="line"/>
      <point x="208.86552019946365" y="761.0" type="line"/>
      <point x="294.27390148012637" y="1536.0" type="line"/>
    </contour>
  </outline>
</glyph>
<glyph name="section" format="2">
  <advance width="1261"/>
  <unicode hex="00A7"/>
  <guideline x="102.71883375914683" y="1658.0" angle="0" identifier="QzZ5gIiCyn"/>
  <guideline x="-16.301878219067028" y="578.0" angle="0" identifier="9Hxjf2sdFw"/>
  <outline>
    <contour>
      <point x="617.4071802713912" y="127.75" type="qcurve"/>
      <point x="630.5214994615833" y="257.25" type="line"/>
      <point x="737.8964994615833" y="256.875"/>
      <point x="904.9368404664892" y="377.5"/>
      <point x="914.5246200425121" y="459.25" type="qcurve"/>
      <point x="924.7736257961916" y="546.25"/>
      <point x="779.9323318975553" y="657.375"/>
      <point x="611.3900024000083" y="719.0" type="qcurve" smooth="yes"/>
      <point x="426.12726417657575" y="777.875"/>
      <point x="208.2089404327083" y="922.75"/>
      <point x="228.0457257624106" y="1118.125" type="qcurve" smooth="yes"/>
      <point x="247.44169364034173" y="1305.375"/>
      <point x="501.454500784758" y="1489.625"/>
      <point x="710.6897051477008" y="1491.0" type="qcurve" smooth="yes"/>
      <point x="910.1749095106436" y="1492.375"/>
      <point x="1115.354445647971" y="1289.125"/>
      <point x="1092.5997992370696" y="1088.75" type="qcurve"/>
      <point x="906.9747992370696" y="1088.75" type="line"/>
      <point x="919.3702355313487" y="1177.5"/>
      <point x="809.093233254511" y="1313.0"/>
      <point x="693.718233254511" y="1313.0" type="qcurve" smooth="yes"/>
      <point x="555.968233254511" y="1313.0"/>
      <point x="426.9182056861176" y="1225.875"/>
      <point x="416.0079737547813" y="1132.125" type="qcurve" smooth="yes"/>
      <point x="405.9793767269873" y="1046.375"/>
      <point x="521.1563927880218" y="971.875"/>
      <point x="714.8533135596832" y="907.875" type="qcurve" smooth="yes"/>
      <point x="887.9614605090013" y="851.75"/>
      <point x="1142.9782446386994" y="663.625"/>
      <point x="1123.802685486654" y="478.75" type="qcurve" smooth="yes"/>
      <point x="1105.8393743269792" y="307.125"/>
      <point x="801.6571802713912" y="126.25"/>
    </contour>
    <contour>
      <point x="561.1477004708548" y="897.0" type="qcurve"/>
      <point x="544.5644983847496" y="737.25" type="line"/>
      <point x="436.18949838474964" y="737.25"/>
      <point x="305.6476315498711" y="636.625"/>
      <point x="296.6108737885623" y="561.0" type="qcurve" smooth="yes"/>
      <point x="287.794524753139" y="496.0"/>
      <point x="417.14908845886" y="400.5"/>
      <point x="595.0597830528645" y="330.125" type="qcurve" smooth="yes"/>
      <point x="756.3964994615833" y="265.875"/>
      <point x="991.3984879542242" y="84.0"/>
      <point x="971.6719069874647" y="-103.625" type="qcurve" smooth="yes"/>
      <point x="951.2840998430484" y="-295.375"/>
      <point x="663.5309792621197" y="-509.0"/>
      <point x="467.7809792621196" y="-509.0" type="qcurve" smooth="yes"/>
      <point x="272.4059792621196" y="-509.0"/>
      <point x="10.483078028334447" y="-301.125"/>
      <point x="35.940285868119076" y="-59.625" type="qcurve"/>
      <point x="220.41069459400464" y="-57.625" type="line"/>
      <point x="202.77799652315815" y="-216.875"/>
      <point x="394.87745115530936" y="-333.25"/>
      <point x="484.75245115530936" y="-333.25" type="qcurve" smooth="yes"/>
      <point x="589.3774511553094" y="-333.25"/>
      <point x="772.9851354419591" y="-236.5"/>
      <point x="784.8872066397805" y="-134.125" type="qcurve" smooth="yes"/>
      <point x="796.0178472970023" y="-39.125"/>
      <point x="664.4842101166223" y="86.125"/>
      <point x="467.61790243378925" y="153.125" type="qcurve" smooth="yes"/>
      <point x="293.46536857329954" y="211.875"/>
      <point x="71.03583243597205" y="417.75"/>
      <point x="88.33791741799017" y="575.875" type="qcurve" smooth="yes"/>
      <point x="104.86857185940877" y="733.0"/>
      <point x="398.39770047085483" y="897.0"/>
    </contour>
  </outline>
</glyph>
<glyph name="dieresis" format="2">
  <advance width="540"/>
  <unicode hex="00A8"/>
  <outline>
    <contour>
      <point x="111.14518039456176" y="1056.875" type="qcurve" smooth="yes"/>
      <point x="111.91661093516132" y="1090.875"/>
      <point x="155.128858927532" y="1138.625"/>
      <point x="195.628858927532" y="1138.625" type="qcurve" smooth="yes"/>
      <point x="236.128858927532" y="1138.625"/>
      <point x="277.5416109351613" y="1090.875"/>
      <point x="276.77018039456175" y="1056.875" type="qcurve" smooth="yes"/>
      <point x="275.99874985396224" y="1024.75"/>
      <point x="232.16150186159155" y="977.75"/>
      <point x="191.66150186159155" y="977.75" type="qcurve" smooth="yes"/>
      <point x="151.16150186159155" y="977.75"/>
      <point x="110.37374985396224" y="1024.75"/>
    </contour>
    <contour>
      <point x="320.53497603161895" y="1055.5" type="qcurve" smooth="yes"/>
      <point x="321.4166109351613" y="1090.125"/>
      <point x="364.253858927532" y="1137.875"/>
      <point x="405.75385892753206" y="1137.875" type="qcurve" smooth="yes"/>
      <point x="445.50385892753206" y="1137.875"/>
      <point x="487.0416109351613" y="1090.125"/>
      <point x="486.159976031619" y="1055.5" type="qcurve" smooth="yes"/>
      <point x="485.3885454910194" y="1023.375"/>
      <point x="441.53650186159155" y="977.0"/>
      <point x="401.78650186159155" y="977.0" type="qcurve" smooth="yes"/>
      <point x="360.28650186159155" y="977.0"/>
      <point x="319.76354549101944" y="1023.375"/>
    </contour>
  </outline>
</glyph>
<glyph name="copyright" format="2">
  <advance width="1654"/>
  <unicode hex="00A9"/>
  <guideline x="19.294131011454336" y="901.0" angle="0" identifier="0Pjz0qKr8z"/>
  <guideline x="-18.836578566751214" y="555.0" angle="0" identifier="sJo8BlDiJ7"/>
  <outline>
    <contour>
      <point x="992.5465821667636" y="547.125" type="qcurve"/>
      <point x="1202.6715821667635" y="547.125" type="line"/>
      <point x="1183.8266361035467" y="367.125"/>
      <point x="910.591894403272" y="205.0"/>
      <point x="749.216894403272" y="205.0" type="qcurve" smooth="yes"/>
      <point x="581.216894403272" y="205.0"/>
      <point x="379.6593066059995" y="430.25"/>
      <point x="404.675696994013" y="660.625" type="qcurve" smooth="yes"/>
      <point x="408.97366714878183" y="702.25" type="line" smooth="yes"/>
      <point x="434.1002618997381" y="933.625"/>
      <point x="688.939104643065" y="1170.0"/>
      <point x="878.939104643065" y="1170.0" type="qcurve" smooth="yes"/>
      <point x="1070.439104643065" y="1170.0"/>
      <point x="1252.955888772763" y="980.75"/>
      <point x="1235.9844168795735" y="827.5" type="qcurve"/>
      <point x="1026.6094168795735" y="827.5" type="line"/>
      <point x="1036.307400818539" y="904.25"/>
      <point x="951.3655891204473" y="980.875"/>
      <point x="858.7405891204473" y="980.875" type="qcurve" smooth="yes"/>
      <point x="761.8655891204473" y="980.875"/>
      <point x="651.2823870343423" y="861.25"/>
      <point x="637.9476591182646" y="762.75" type="qcurve" smooth="yes"/>
      <point x="624.061909387473" y="601.5" type="line" smooth="yes"/>
      <point x="610.6169771084525" y="496.375"/>
      <point x="704.3939793852902" y="384.5"/>
      <point x="800.8939793852902" y="384.5" type="qcurve" smooth="yes"/>
      <point x="892.3939793852902" y="384.5"/>
      <point x="982.7383938648554" y="467.875"/>
    </contour>
    <contour>
      <point x="189.21039734169716" y="687.0" type="qcurve" smooth="yes"/>
      <point x="157.58174517711626" y="407.5"/>
      <point x="492.4408174517712" y="15.625"/>
      <point x="748.4408174517712" y="15.625" type="qcurve" smooth="yes"/>
      <point x="1003.4408174517711" y="15.625"/>
      <point x="1425.5817451771163" y="407.5"/>
      <point x="1457.2103973416972" y="687.0" type="qcurve" smooth="yes"/>
      <point x="1488.949253869221" y="968.625"/>
      <point x="1153.6493641427946" y="1355.0"/>
      <point x="898.6493641427948" y="1355.0" type="qcurve" smooth="yes"/>
      <point x="642.6493641427948" y="1355.0"/>
      <point x="220.94925386922085" y="968.625"/>
    </contour>
    <contour>
      <point x="26.21039734169716" y="687.0" type="qcurve" smooth="yes"/>
      <point x="65.00233309755944" y="1039.0"/>
      <point x="588.400427310099" y="1526.5"/>
      <point x="914.400427310099" y="1526.5" type="qcurve" smooth="yes"/>
      <point x="1239.4004273100988" y="1526.5"/>
      <point x="1658.0023330975594" y="1039.0"/>
      <point x="1619.2103973416972" y="687.0" type="qcurve" smooth="yes"/>
      <point x="1580.6388703117204" y="337.0"/>
      <point x="1055.7999586474098" y="-154.5"/>
      <point x="730.7999586474098" y="-154.5" type="qcurve" smooth="yes"/>
      <point x="404.79995864740977" y="-154.5"/>
      <point x="-12.361129688279568" y="337.0"/>
    </contour>
  </outline>
</glyph>
<glyph name="ordfeminine" format="2">
  <advance width="916"/>
  <unicode hex="00AA"/>
  <guideline x="105.25353410683103" y="1681.0" angle="0" identifier="3CJlALCfkl"/>
  <guideline x="20.17576591499667" y="909.0" angle="0" identifier="Zdl6NZVQAy"/>
  <outline>
    <contour>
      <point x="612.7461608566855" y="862.0" type="line"/>
      <point x="608.2277819760311" y="821.0"/>
      <point x="618.860411125894" y="736.0"/>
      <point x="638.5542802376102" y="706.0" type="qcurve"/>
      <point x="789.3042802376102" y="706.0" type="line"/>
      <point x="780.0430678441502" y="749.0"/>
      <point x="777.8512561460585" y="838.0"/>
      <point x="783.2512699302553" y="887.0" type="qcurve" smooth="yes"/>
      <point x="817.8554398942915" y="1201.0" type="line" smooth="yes"/>
      <point x="832.9534376174538" y="1339.5"/>
      <point x="682.8968440665017" y="1477.0"/>
      <point x="546.7718440665017" y="1477.0" type="qcurve" smooth="yes"/>
      <point x="419.7718440665017" y="1477.0"/>
      <point x="229.56211615042406" y="1356.0"/>
      <point x="217.59270167085896" y="1261.0" type="qcurve" smooth="yes"/>
      <point x="214.6171838714036" y="1234.0" type="line"/>
      <point x="387.2421838714036" y="1234.0" type="line"/>
      <point x="388.6748405896599" y="1247.0" type="line" smooth="yes"/>
      <point x="393.6340369220855" y="1284.875"/>
      <point x="468.58507252099616" y="1333.25"/>
      <point x="534.3350725209962" y="1333.25" type="qcurve" smooth="yes"/>
      <point x="597.2100725209962" y="1333.25"/>
      <point x="658.3707671150008" y="1271.5"/>
      <point x="650.2156442572343" y="1202.0" type="qcurve" smooth="yes"/>
    </contour>
    <contour>
      <point x="681.6248130212664" y="1149.0" type="line"/>
      <point x="523.6248130212664" y="1149.0" type="line" smooth="yes"/>
      <point x="348.24981302126645" y="1149.0"/>
      <point x="167.91508510518875" y="1027.625"/>
      <point x="155.79260518148175" y="918.0" type="qcurve" smooth="yes"/>
      <point x="144.55176016131713" y="818.625"/>
      <point x="260.5114191564111" y="692.0"/>
      <point x="383.2614191564111" y="692.0" type="qcurve" smooth="yes"/>
      <point x="484.26141915641114" y="692.0"/>
      <point x="625.841037998919" y="788.0"/>
      <point x="653.2410517831157" y="837.0" type="qcurve"/>
      <point x="645.7089404327082" y="961.375" type="line"/>
      <point x="641.5211746408822" y="923.375"/>
      <point x="500.5879863389739" y="834.375"/>
      <point x="436.5879863389739" y="834.375" type="qcurve" smooth="yes"/>
      <point x="377.0879863389739" y="834.375"/>
      <point x="326.11963502671296" y="886.875"/>
      <point x="330.8584226332529" y="922.0" type="qcurve" smooth="yes"/>
      <point x="336.03802769156414" y="962.625"/>
      <point x="426.9579461863878" y="1036.75"/>
      <point x="512.8329461863877" y="1037.125" type="qcurve" smooth="yes"/>
      <point x="669.8329461863877" y="1037.125" type="line"/>
    </contour>
  </outline>
</glyph>
<glyph name="guillemotleft" format="2">
  <advance width="1117"/>
  <unicode hex="00AB"/>
  <guideline x="19.294131011454336" y="901.0" angle="0" identifier="ZftBQarVKw"/>
  <guideline x="-18.836578566751214" y="555.0" angle="0" identifier="MVJpdoVRVd"/>
  <outline>
    <contour>
      <point x="85.52667745613671" y="524.25" type="line"/>
      <point x="92.02873486976134" y="591.5" type="line"/>
      <point x="440.7089404327083" y="961.75" type="line"/>
      <point x="622.9589404327082" y="961.75" type="line"/>
      <point x="316.9726039814776" y="557.375" type="line"/>
      <point x="535.236267530247" y="153.0" type="line"/>
      <point x="352.98626753024695" y="153.0" type="line"/>
    </contour>
    <contour>
      <point x="532.6516774561367" y="524.25" type="line"/>
      <point x="539.1537348697614" y="591.5" type="line"/>
      <point x="887.4589404327082" y="961.75" type="line"/>
      <point x="1070.0839404327082" y="961.75" type="line"/>
      <point x="764.0976039814776" y="557.375" type="line"/>
      <point x="982.361267530247" y="153.0" type="line"/>
      <point x="799.736267530247" y="153.0" type="line"/>
    </contour>
  </outline>
</glyph>
<glyph name="logicalnot" format="2">
  <advance width="1024"/>
  <unicode hex="00AC"/>
  <outline>
    <contour>
      <point x="982.3986947171753" y="823.5" type="line"/>
      <point x="935.5618404664892" y="376.0" type="line"/>
      <point x="722.0618404664892" y="376.0" type="line"/>
      <point x="750.8251791945576" y="634.375" type="line"/>
      <point x="48.200179194557606" y="634.375" type="line"/>
      <point x="66.27369471717529" y="823.5" type="line"/>
    </contour>
  </outline>
</glyph>
<glyph name="registered" format="2">
  <advance width="1654"/>
  <unicode hex="00AE"/>
  <outline>
    <contour>
      <point x="26.21039734169716" y="687.0" type="qcurve" smooth="yes"/>
      <point x="65.00233309755944" y="1039.0"/>
      <point x="588.400427310099" y="1526.5"/>
      <point x="914.400427310099" y="1526.5" type="qcurve" smooth="yes"/>
      <point x="1239.4004273100988" y="1526.5"/>
      <point x="1658.0023330975594" y="1039.0"/>
      <point x="1619.2103973416972" y="687.0" type="qcurve" smooth="yes"/>
      <point x="1580.6388703117204" y="337.0"/>
      <point x="1055.7999586474098" y="-150.75"/>
      <point x="730.7999586474098" y="-150.75" type="qcurve" smooth="yes"/>
      <point x="404.79995864740977" y="-150.75"/>
      <point x="-12.361129688279568" y="337.0"/>
    </contour>
    <contour>
      <point x="189.21039734169716" y="687.0" type="qcurve" smooth="yes"/>
      <point x="157.58174517711626" y="410.5"/>
      <point x="492.4408174517712" y="19.0"/>
      <point x="748.4408174517712" y="19.0" type="qcurve" smooth="yes"/>
      <point x="1003.4408174517711" y="19.0"/>
      <point x="1425.5817451771163" y="410.5"/>
      <point x="1457.2103973416972" y="687.0" type="qcurve" smooth="yes"/>
      <point x="1488.949253869221" y="966.75"/>
      <point x="1153.6493641427946" y="1355.75"/>
      <point x="898.6493641427948" y="1355.75" type="qcurve" smooth="yes"/>
      <point x="642.6493641427948" y="1355.75"/>
      <point x="220.94925386922085" y="966.75"/>
    </contour>
    <contour>
      <point x="833.667004676846" y="588.75" type="line"/>
      <point x="659.167004676846" y="588.75" type="line"/>
      <point x="618.1709816621279" y="225.0" type="line"/>
      <point x="432.5459816621279" y="225.0" type="line"/>
      <point x="535.3666522877515" y="1158.0" type="line"/>
      <point x="868.6166522877515" y="1158.0" type="line" smooth="yes"/>
      <point x="1042.4916522877515" y="1158.0"/>
      <point x="1240.4380414757609" y="1018.0"/>
      <point x="1224.8992263008274" y="873.25" type="qcurve" smooth="yes"/>
      <point x="1212.446133288292" y="755.75"/>
      <point x="1089.405792283386" y="634.75"/>
      <point x="974.9812962986447" y="612.75" type="qcurve"/>
      <point x="1006.8215959509604" y="589.75"/>
      <point x="1024.4792388850199" y="559.0"/>
      <point x="1038.658312359679" y="530.0" type="qcurve" smooth="yes"/>
      <point x="1181.6546601950981" y="243.0" type="line"/>
      <point x="1179.6709816621278" y="225.0" type="line"/>
      <point x="975.5459816621278" y="225.0" type="line"/>
    </contour>
    <contour>
      <point x="852.9757934833901" y="987.5" type="qcurve" smooth="yes"/>
      <point x="704.3507934833901" y="987.5" type="line"/>
      <point x="674.7058198517794" y="746.25" type="line"/>
      <point x="848.3308198517794" y="746.25" type="line" smooth="yes"/>
      <point x="910.8308198517796" y="746.25"/>
      <point x="1008.2374685395187" y="792.75"/>
      <point x="1015.2905477678571" y="851.125" type="qcurve" smooth="yes"/>
      <point x="1024.2171011662233" y="930.625"/>
      <point x="972.7405891204473" y="986.5"/>
    </contour>
  </outline>
</glyph>
<glyph name="macron" format="2">
  <advance width="540"/>
  <unicode hex="00AF"/>
  <outline>
    <contour>
      <point x="377.85895421690503" y="1117.25" type="line"/>
      <point x="378.52018039456175" y="1007.75" type="line"/>
      <point x="223.64518039456175" y="1007.75" type="line"/>
      <point x="222.98395421690503" y="1117.25" type="line"/>
    </contour>
  </outline>
</glyph>
<glyph name="degree" format="2">
  <advance width="765"/>
  <unicode hex="00B0"/>
  <outline>
    <contour>
      <point x="177.99370970137616" y="1217.0" type="qcurve"/>
      <point x="189.67537217331196" y="1326.0"/>
      <point x="361.8725903351584" y="1484.5"/>
      <point x="468.7718440665017" y="1484.5" type="qcurve" smooth="yes"/>
      <point x="574.7662470515763" y="1484.5"/>
      <point x="709.9220824908361" y="1325.9589552238806"/>
      <point x="698.2437097013761" y="1217.0" type="qcurve" smooth="yes"/>
      <point x="686.4830948500187" y="1107.3899253731345"/>
      <point x="517.7812630519446" y="952.5"/>
      <point x="411.796188425079" y="952.5" type="qcurve" smooth="yes"/>
      <point x="305.0648451414969" y="952.5"/>
      <point x="166.20184286649757" y="1107.0"/>
    </contour>
    <contour>
      <point x="312.8687097013762" y="1217.0" type="qcurve"/>
      <point x="306.7827971209534" y="1163.1921641791046"/>
      <point x="373.7717498668308" y="1091.75"/>
      <point x="425.9023468817562" y="1091.75" type="qcurve" smooth="yes"/>
      <point x="478.03294389668156" y="1091.75"/>
      <point x="557.2827971209534" y="1163.1921641791046"/>
      <point x="563.3687097013761" y="1217.0" type="qcurve" smooth="yes"/>
      <point x="569.5368643436965" y="1271.4589552238806"/>
      <point x="506.7962826247499" y="1345.25"/>
      <point x="454.6656856098245" y="1345.25" type="qcurve" smooth="yes"/>
      <point x="402.53508859489915" y="1345.25"/>
      <point x="319.03686434369655" y="1271.4589552238806"/>
    </contour>
  </outline>
</glyph>
<glyph name="plusminus" format="2">
  <advance width="1024"/>
  <unicode hex="00B1"/>
  <outline>
    <contour>
      <point x="34.584865758045055" y="605.375" type="line"/>
      <point x="52.65838128066273" y="794.875" type="line"/>
      <point x="980.6583812806628" y="794.875" type="line"/>
      <point x="962.584865758045" y="605.375" type="line"/>
    </contour>
    <contour>
      <point x="355.0806820098121" y="263.0" type="line"/>
      <point x="455.58706101363714" y="1167.5" type="line"/>
      <point x="662.5870610136371" y="1167.5" type="line"/>
      <point x="562.0806820098121" y="263.0" type="line"/>
    </contour>
    <contour>
      <point x="-30.389795637057205" y="1.0" type="line"/>
      <point x="-12.31628011443955" y="190.125" type="line"/>
      <point x="912.6837198855604" y="190.125" type="line"/>
      <point x="894.6102043629428" y="1.0" type="line"/>
    </contour>
  </outline>
</glyph>
<glyph name="twosuperior" format="2">
  <advance width="411"/>
  <unicode hex="00B2"/>
  <outline>
    <contour>
      <point x="48.393054059953435" y="698.875" type="line"/>
      <point x="48.61346278583902" y="740.625" type="line"/>
      <point x="249.52376363815898" y="1053.5" type="line" smooth="yes"/>
      <point x="295.16409085886824" y="1123.25"/>
      <point x="330.3983009754906" y="1215.375"/>
      <point x="340.6473067291701" y="1285.875" type="qcurve" smooth="yes"/>
      <point x="351.1167212087352" y="1363.25"/>
      <point x="320.26673499293196" y="1415.25"/>
      <point x="281.26673499293196" y="1415.25" type="qcurve" smooth="yes"/>
      <point x="237.51673499293196" y="1415.25"/>
      <point x="185.8600863051929" y="1349.25"/>
      <point x="170.25545367848827" y="1230.5" type="qcurve"/>
      <point x="102.88045367848827" y="1230.5" type="line"/>
      <point x="119.47692557167804" y="1375.875"/>
      <point x="207.17796117058873" y="1468.875"/>
      <point x="280.42796117058873" y="1468.875" type="qcurve" smooth="yes"/>
      <point x="349.42796117058873" y="1468.875"/>
      <point x="420.5871299346208" y="1387.75"/>
      <point x="409.8973067291701" y="1286.625" type="qcurve" smooth="yes"/>
      <point x="399.53809661254775" y="1197.875"/>
      <point x="340.78909085886824" y="1093.25"/>
      <point x="286.9135592752162" y="1017.25" type="qcurve" smooth="yes"/>
      <point x="139.41448460055295" y="758.75" type="line"/>
      <point x="361.5394846005529" y="758.75" type="line"/>
      <point x="360.76805405995344" y="698.875" type="line"/>
    </contour>
  </outline>
</glyph>
<glyph name="threesuperior" format="2">
  <advance width="403"/>
  <unicode hex="00B3"/>
  <outline>
    <contour>
      <point x="65.03086120436969" y="898.125" type="qcurve"/>
      <point x="123.15586120436969" y="898.125" type="line"/>
      <point x="105.85377622235157" y="783.125"/>
      <point x="143.98335371226923" y="732.125"/>
      <point x="185.60835371226923" y="732.125" type="qcurve" smooth="yes"/>
      <point x="227.73335371226923" y="732.125"/>
      <point x="271.0675500446948" y="779.75"/>
      <point x="285.17370850137206" y="878.125" type="qcurve" smooth="yes"/>
      <point x="298.39823205450693" y="973.0"/>
      <point x="268.60285089701483" y="1051.75"/>
      <point x="222.4778508970148" y="1052.125" type="qcurve" smooth="yes"/>
      <point x="179.72785089701478" y="1052.125" type="line"/>
      <point x="180.27887271172875" y="1101.0" type="line"/>
      <point x="221.77887271172875" y="1101.0" type="line" smooth="yes"/>
      <point x="263.15387271172875" y="1101.0"/>
      <point x="310.9686959171794" y="1182.625"/>
      <point x="321.65851912263014" y="1261.25" type="qcurve" smooth="yes"/>
      <point x="337.3075386605064" y="1366.5"/>
      <point x="309.84734808176034" y="1414.5"/>
      <point x="268.34734808176034" y="1414.5" type="qcurve" smooth="yes"/>
      <point x="230.72234808176034" y="1414.5"/>
      <point x="186.2417212087352" y="1364.0"/>
      <point x="169.49065804143106" y="1252.875" type="qcurve"/>
      <point x="111.36565804143106" y="1252.875" type="line"/>
      <point x="128.22692557167804" y="1386.375"/>
      <point x="205.02336989647432" y="1470.125"/>
      <point x="267.7733698964743" y="1470.125" type="qcurve" smooth="yes"/>
      <point x="333.3983698964743" y="1470.125"/>
      <point x="405.02794738639193" y="1395.125"/>
      <point x="389.04831475968734" y="1263.625" type="qcurve" smooth="yes"/>
      <point x="377.8074697395227" y="1180.75"/>
      <point x="330.62428143761434" y="1090.625"/>
      <point x="297.05846398584316" y="1079.875" type="qcurve"/>
      <point x="337.96305525995757" y="1070.0"/>
      <point x="365.07425386922085" y="978.0"/>
      <point x="351.298708501372" y="875.125" type="qcurve" smooth="yes"/>
      <point x="336.97214131880924" y="752.625"/>
      <point x="250.0573318975553" y="677.25"/>
      <point x="183.1823318975553" y="677.25" type="qcurve" smooth="yes"/>
      <point x="122.6823318975553" y="677.25"/>
      <point x="47.3981631335232" y="752.375"/>
    </contour>
  </outline>
</glyph>
<glyph name="acute" format="2">
  <advance width="397"/>
  <unicode hex="00B4"/>
  <outline>
    <contour>
      <point x="107.37527568393482" y="1038.875" type="line"/>
      <point x="239.69116205668962" y="1325.0" type="line"/>
      <point x="394.5957533308041" y="1286.625" type="line"/>
      <point x="246.27986695804918" y="999.0" type="line"/>
    </contour>
  </outline>
</glyph>
<glyph name="micro" format="2">
  <advance width="1240"/>
  <unicode hex="00B5"/>
  <outline>
    <contour>
      <point x="276.8099898158157" y="1103.75" type="line"/>
      <point x="492.43498981581575" y="1103.75" type="line"/>
      <point x="284.2608186517753" y="415.25" type="line" smooth="yes"/>
      <point x="244.2500689209837" y="284.75"/>
      <point x="321.23779336021954" y="172.0"/>
      <point x="428.98779336021954" y="172.0" type="qcurve" smooth="yes"/>
      <point x="520.9877933602195" y="172.0"/>
      <point x="686.5674122027274" y="271.375"/>
      <point x="749.8179437863795" y="350.0" type="qcurve"/>
      <point x="977.3099898158157" y="1103.75" type="line"/>
      <point x="1192.5599898158157" y="1103.75" type="line"/>
      <point x="865.5" y="14.625" type="line"/>
      <point x="669.0" y="14.625" type="line"/>
      <point x="702.6275889972767" y="154.5" type="line"/>
      <point x="696.2525889972767" y="154.5" type="line"/>
      <point x="614.6928748653958" y="79.875"/>
      <point x="423.7959127411442" y="-6.125"/>
      <point x="316.2959127411442" y="-6.125" type="qcurve" smooth="yes"/>
      <point x="272.9209127411442" y="-6.125"/>
      <point x="205.52806544414187" y="30.375"/>
      <point x="177.6285832435972" y="54.0" type="qcurve"/>
      <point x="36.90498501579913" y="-416.0" type="line"/>
      <point x="-179.09501498420087" y="-416.0" type="line"/>
    </contour>
  </outline>
</glyph>
<glyph name="paragraph" format="2">
  <advance width="1390"/>
  <unicode hex="00B6"/>
  <guideline x="19.294131011454336" y="901.0" angle="0" identifier="27539Lsr1A"/>
  <guideline x="-18.836578566751214" y="555.0" angle="0" identifier="e34wUdCmXR"/>
  <outline>
    <contour>
      <point x="701.4101630103526" y="-146.0" type="line"/>
      <point x="486.91016301035256" y="-146.0" type="line"/>
      <point x="579.7022366081823" y="640.125" type="line"/>
      <point x="486.32723660818226" y="640.125" type="line" smooth="yes"/>
      <point x="277.07723660818226" y="640.125"/>
      <point x="76.50637900382503" y="871.875"/>
      <point x="94.5798945264427" y="1048.25" type="qcurve" smooth="yes"/>
      <point x="112.43300132317478" y="1221.875"/>
      <point x="360.83255244470314" y="1456.0"/>
      <point x="570.0825524447032" y="1456.0" type="qcurve" smooth="yes"/>
      <point x="877.9575524447032" y="1456.0" type="line"/>
    </contour>
    <contour>
      <point x="1020.2881655335315" y="1459.0" type="line"/>
      <point x="1235.9131655335316" y="1459.0" type="line"/>
      <point x="1059.0351630103526" y="-146.0" type="line"/>
      <point x="843.4101630103526" y="-146.0" type="line"/>
    </contour>
  </outline>
</glyph>
<glyph name="periodcentered" format="2">
  <advance width="600"/>
  <unicode hex="00B7"/>
  <outline>
    <contour>
      <point x="178.54306784415013" y="749.0" type="qcurve" smooth="yes"/>
      <point x="183.94308162834687" y="798.0"/>
      <point x="255.65738703434224" y="868.0"/>
      <point x="315.65738703434226" y="868.0" type="qcurve" smooth="yes"/>
      <point x="375.6573870343422" y="868.0"/>
      <point x="431.9430816283469" y="798.0"/>
      <point x="426.54306784415013" y="749.0" type="qcurve" smooth="yes"/>
      <point x="421.1430540599534" y="700.0"/>
      <point x="349.4287486539581" y="630.0"/>
      <point x="289.4287486539581" y="630.0" type="qcurve" smooth="yes"/>
      <point x="229.42874865395808" y="630.0"/>
      <point x="173.14305405995344" y="700.0"/>
    </contour>
  </outline>
</glyph>
<glyph name="cedilla" format="2">
  <advance width="540"/>
  <unicode hex="00B8"/>
  <outline>
    <contour>
      <point x="135.18929162179862" y="28.875" type="line"/>
      <point x="205.3142916217986" y="28.875" type="line"/>
      <point x="186.19386911171625" y="-37.875" type="line"/>
      <point x="229.45866474877346" y="-42.25"/>
      <point x="280.77089895694746" y="-93.75"/>
      <point x="276.3627244392358" y="-151.0" type="qcurve" smooth="yes"/>
      <point x="270.19128011443956" y="-220.125"/>
      <point x="177.4836096119866" y="-300.125"/>
      <point x="63.73360961198654" y="-300.125" type="qcurve"/>
      <point x="61.01983578964328" y="-243.125" type="line"/>
      <point x="106.76983578964325" y="-243.125"/>
      <point x="164.13209756621075" y="-195.5"/>
      <point x="169.75252007629302" y="-152.75" type="qcurve" smooth="yes"/>
      <point x="173.94028586811908" y="-118.875"/>
      <point x="144.67243857111674" y="-89.5"/>
      <point x="105.76784729700233" y="-86.75" type="qcurve"/>
    </contour>
  </outline>
</glyph>
<glyph name="onesuperior" format="2">
  <advance width="438"/>
  <unicode hex="00B9"/>
  <outline>
    <contour>
      <point x="126.44375105396637" y="1306.625" type="line"/>
      <point x="125.45038595750871" y="1371.25" type="line"/>
      <point x="336.20755244470314" y="1467.25" type="line"/>
      <point x="356.45755244470314" y="1467.25" type="line"/>
      <point x="267.6328359128139" y="665.0" type="line"/>
      <point x="203.1328359128139" y="665.0" type="line"/>
      <point x="291.18612190410363" y="1388.625" type="line"/>
    </contour>
  </outline>
</glyph>
<glyph name="ordmasculine" format="2">
  <advance width="932"/>
  <unicode hex="00BA"/>
  <guideline x="137.65361681201145" y="1975.0" angle="0" identifier="Jnt0R9CyOf"/>
  <outline>
    <contour>
      <point x="153.0681505493306" y="1043.0" type="qcurve"/>
      <point x="161.99470394769662" y="1124.0" type="line"/>
      <point x="178.96617584088636" y="1278.0"/>
      <point x="390.9490828724719" y="1477.0"/>
      <point x="547.7718440665017" y="1477.0" type="qcurve" smooth="yes"/>
      <point x="705.9024410814271" y="1477.0"/>
      <point x="872.3115686986032" y="1277.7313432835822"/>
      <point x="855.3697039476966" y="1124.0" type="qcurve"/>
      <point x="846.4431505493307" y="1043.0" type="line"/>
      <point x="829.501285798424" y="889.2686567164179"/>
      <point x="619.9739759874982" y="691.0"/>
      <point x="463.15121479346834" y="691.0" type="qcurve" smooth="yes"/>
      <point x="305.02061777854294" y="691.0"/>
      <point x="136.09667865614085" y="889.0"/>
    </contour>
    <contour>
      <point x="344.8697039476966" y="1124.0" type="qcurve"/>
      <point x="335.9431505493306" y="1043.0" type="line"/>
      <point x="325.9096189978228" y="963.580223880597"/>
      <point x="391.9285764663968" y="845.0"/>
      <point x="478.4696212425162" y="845.0" type="qcurve" smooth="yes"/>
      <point x="561.27559139177" y="845.0"/>
      <point x="654.9096189978228" y="963.580223880597"/>
      <point x="664.9431505493307" y="1043.0" type="qcurve"/>
      <point x="673.8697039476966" y="1124.0" type="line"/>
      <point x="683.6565093135116" y="1200.8059701492537"/>
      <point x="616.5315363542547" y="1321.0"/>
      <point x="532.2330288915682" y="1321.0" type="qcurve" smooth="yes"/>
      <point x="447.93452142888174" y="1321.0"/>
      <point x="354.6565093135116" y="1200.8059701492537"/>
    </contour>
  </outline>
</glyph>
<glyph name="guillemotright" format="2">
  <advance width="1117"/>
  <unicode hex="00BB"/>
  <guideline x="-69.19997243160653" y="98.0" angle="0" identifier="MTEldNnfdj"/>
  <guideline x="-31.17946721634376" y="443.0" angle="0" identifier="G9bQni2n1K"/>
  <outline>
    <contour>
      <point x="8.111267530246963" y="153.0" type="line"/>
      <point x="314.0976039814776" y="557.375" type="line"/>
      <point x="95.83394043270829" y="961.75" type="line"/>
      <point x="278.4589404327083" y="961.75" type="line"/>
      <point x="545.6537348697614" y="591.5" type="line"/>
      <point x="539.1516774561367" y="524.25" type="line"/>
      <point x="190.73626753024695" y="153.0" type="line"/>
    </contour>
    <contour>
      <point x="455.23626753024695" y="153.0" type="line"/>
      <point x="761.2226039814776" y="557.375" type="line"/>
      <point x="542.9589404327082" y="961.75" type="line"/>
      <point x="725.2089404327082" y="961.75" type="line"/>
      <point x="992.7787348697614" y="591.5" type="line"/>
      <point x="986.2766774561367" y="524.25" type="line"/>
      <point x="637.486267530247" y="153.0" type="line"/>
    </contour>
  </outline>
</glyph>
<glyph name="questiondown" format="2">
  <advance width="1022"/>
  <unicode hex="00BF"/>
  <guideline x="-99.9469896926451" y="-181.0" angle="0" identifier="apukwP5ffL"/>
  <guideline x="21.498218270310154" y="921.0" angle="0" identifier="5ZPZZL8Rim"/>
  <outline>
    <contour>
      <point x="722.0747854528729" y="1039.375" type="qcurve" smooth="yes"/>
      <point x="716.6747716686762" y="985.5"/>
      <point x="636.7104662626809" y="908.75"/>
      <point x="569.2104662626809" y="908.75" type="qcurve" smooth="yes"/>
      <point x="501.7104662626809" y="908.75"/>
      <point x="437.1747716686762" y="985.5"/>
      <point x="442.57478545287296" y="1039.375" type="qcurve" smooth="yes"/>
      <point x="447.9747992370697" y="1093.25"/>
      <point x="527.939104643065" y="1170.0"/>
      <point x="595.439104643065" y="1170.0" type="qcurve" smooth="yes"/>
      <point x="663.314104643065" y="1170.0"/>
      <point x="727.4747992370696" y="1093.25"/>
    </contour>
    <contour>
      <point x="893.8408312359679" y="49.625" type="line"/>
      <point x="891.636743977112" y="30.375" type="line" smooth="yes"/>
      <point x="873.4530240915517" y="-132.375"/>
      <point x="614.2279689547647" y="-328.0"/>
      <point x="408.4779689547647" y="-328.0" type="qcurve" smooth="yes"/>
      <point x="202.7279689547647" y="-328.0"/>
      <point x="-6.194932279020463" y="-116.0"/>
      <point x="12.539809421253949" y="62.625" type="qcurve" smooth="yes"/>
      <point x="27.307194055587892" y="193.25"/>
      <point x="223.72970154768834" y="417.0"/>
      <point x="298.2827807760269" y="468.625" type="qcurve" smooth="yes"/>
      <point x="392.8935167226218" y="539.625"/>
      <point x="443.76447081635627" y="661.75"/>
      <point x="451.4787762223516" y="729.875" type="qcurve" smooth="yes"/>
      <point x="452.58081985177944" y="739.875" type="line"/>
      <point x="665.9558198517794" y="739.875" type="line"/>
      <point x="664.8537762223516" y="729.875" type="line" smooth="yes"/>
      <point x="651.0782308545027" y="600.75"/>
      <point x="576.0838025907409" y="465.75"/>
      <point x="464.0995924741186" y="370.625" type="qcurve" smooth="yes"/>
      <point x="371.2980390757525" y="291.875"/>
      <point x="237.685245715533" y="157.75"/>
      <point x="226.66480942125395" y="62.625" type="qcurve" smooth="yes"/>
      <point x="215.6443731269749" y="-34.375"/>
      <point x="313.70607575149677" y="-140.125"/>
      <point x="426.70607575149677" y="-140.125" type="qcurve" smooth="yes"/>
      <point x="539.3310757514968" y="-140.125"/>
      <point x="668.417329497547" y="-51.125"/>
      <point x="678.886743977112" y="30.375" type="qcurve" smooth="yes"/>
      <point x="681.0908312359679" y="49.625" type="line"/>
    </contour>
  </outline>
</glyph>
<glyph name="AE" format="2">
  <advance width="2025"/>
  <unicode hex="00C6"/>
  <outline>
    <contour>
      <point x="268.7771401188051" y="338.0" type="line"/>
      <point x="405.31290363379344" y="543.0" type="line"/>
      <point x="1048.4379036337934" y="543.0" type="line"/>
      <point x="1029.152140118805" y="338.0" type="line"/>
    </contour>
    <contour>
      <point x="-97.25" y="0.0" type="line"/>
      <point x="944.2075524447032" y="1456.0" type="line"/>
      <point x="2000.4575524447032" y="1456.0" type="line"/>
      <point x="1983.0452630997422" y="1275.875" type="line"/>
      <point x="1232.2952630997422" y="1275.875" type="line"/>
      <point x="1180.719621242516" y="840.875" type="line"/>
      <point x="1841.719621242516" y="840.875" type="line"/>
      <point x="1824.3073318975553" y="660.75" type="line"/>
      <point x="1163.3073318975553" y="660.75" type="line"/>
      <point x="1106.662289344961" y="180.125" type="line"/>
      <point x="1867.412289344961" y="180.125" type="line"/>
      <point x="1850.0" y="0.0" type="line"/>
      <point x="866.5" y="0.0" type="line"/>
      <point x="1002.9330013231747" y="1212.5" type="line"/>
      <point x="171.375" y="0.0" type="line"/>
    </contour>
  </outline>
</glyph>
<glyph name="multiply" format="2">
  <advance width="1024"/>
  <unicode hex="00D7"/>
  <outline>
    <contour>
      <point x="125.99343401744137" y="212.625" type="line"/>
      <point x="17.961322667033926" y="338.5" type="line"/>
      <point x="868.7906166888408" y="1129.5" type="line"/>
      <point x="976.7125236763054" y="1002.25" type="line"/>
    </contour>
    <contour>
      <point x="762.2434340174414" y="212.625" type="line"/>
      <point x="91.62527568393482" y="987.125" type="line"/>
      <point x="240.79061668884086" y="1129.5" type="line"/>
      <point x="911.2985706594046" y="353.625" type="line"/>
    </contour>
  </outline>
</glyph>
<glyph name="Thorn" format="2">
  <advance width="1252"/>
  <unicode hex="00DE"/>
  <guideline x="19.294131011454336" y="901.0" angle="0" identifier="i9jYwjBDP4"/>
  <guideline x="-18.836578566751214" y="555.0" angle="0" identifier="T8KKW8oxop"/>
  <outline>
    <contour>
      <point x="265.45755244470314" y="1456.0" type="line"/>
      <point x="478.58255244470314" y="1456.0" type="line"/>
      <point x="446.29267410246547" y="1163.0" type="line"/>
      <point x="729.5426741024655" y="1163.0" type="line" smooth="yes"/>
      <point x="976.1676741024654" y="1163.0"/>
      <point x="1222.9160793515093" y="938.0"/>
      <point x="1201.2058198517796" y="737.25" type="qcurve" smooth="yes"/>
      <point x="1179.4955603520498" y="536.5"/>
      <point x="882.6041699640363" y="313.625"/>
      <point x="635.9791699640363" y="314.0" type="qcurve" smooth="yes"/>
      <point x="352.72916996403626" y="314.0" type="line"/>
      <point x="318.125" y="0.0" type="line"/>
      <point x="105.0" y="0.0" type="line"/>
    </contour>
    <contour>
      <point x="712.9018152981041" y="992.5" type="qcurve" smooth="yes"/>
      <point x="429.6518152981041" y="992.5" type="line"/>
      <point x="369.3700287683976" y="484.5" type="line"/>
      <point x="652.6200287683977" y="484.5" type="line" smooth="yes"/>
      <point x="811.8700287683977" y="484.5"/>
      <point x="973.6884352174457" y="604.375"/>
      <point x="988.235411125894" y="734.875" type="qcurve" smooth="yes"/>
      <point x="1002.7823870343423" y="865.0"/>
      <point x="872.1518152981041" y="992.875"/>
    </contour>
  </outline>
</glyph>
<glyph name="germandbls" format="2">
  <advance width="1242"/>
  <unicode hex="00DF"/>
  <outline>
    <contour>
      <point x="411.34316433352734" y="1091.625" type="qcurve" name="hr00"/>
      <point x="291.0" y="0.0" type="line"/>
      <point x="79.25" y="0.0" type="line"/>
      <point x="199.59316433352734" y="1091.625" type="line" smooth="yes"/>
      <point x="221.96465001091386" y="1294.625"/>
      <point x="473.9284927542408" y="1533.25"/>
      <point x="680.8034927542408" y="1533.25" type="qcurve" smooth="yes"/>
      <point x="851.5534927542408" y="1533.25"/>
      <point x="1037.988137965138" y="1360.25"/>
      <point x="1021.8983009754907" y="1214.625" type="qcurve" smooth="yes"/>
      <point x="1012.200317036525" y="1126.625"/>
      <point x="948.0926327498753" y="1015.625"/>
      <point x="904.8538451433353" y="972.625" type="qcurve" smooth="yes"/>
      <point x="867.5410793515092" y="934.625"/>
      <point x="797.9155477678571" y="865.75"/>
      <point x="794.7196212425163" y="836.75" type="qcurve" smooth="yes"/>
      <point x="789.4298118212623" y="788.75"/>
      <point x="922.1741711640404" y="688.875"/>
      <point x="999.7165006615874" y="626.875" type="qcurve" smooth="yes"/>
      <point x="1074.2144432479627" y="567.875"/>
      <point x="1163.293993169487" y="413.625"/>
      <point x="1149.077630349867" y="282.0" type="qcurve" smooth="yes"/>
      <point x="1135.3020849820182" y="157.0"/>
      <point x="889.1709127411441" y="-20.0"/>
      <point x="715.4209127411441" y="-20.0" type="qcurve" smooth="yes"/>
      <point x="545.0459127411441" y="-20.0"/>
      <point x="359.96636281962" y="129.0"/>
      <point x="374.1368128980958" y="278.0" type="qcurve" smooth="yes"/>
      <point x="377.00212633460836" y="304.0" type="line"/>
      <point x="561.3771263346084" y="304.0" type="line"/>
      <point x="560.3852870681233" y="295.0" type="line" smooth="yes"/>
      <point x="551.1281205809289" y="218.875"/>
      <point x="643.5617715455055" y="150.875"/>
      <point x="734.0617715455055" y="150.875" type="qcurve" smooth="yes"/>
      <point x="830.5617715455055" y="150.875"/>
      <point x="941.8995511215284" y="227.0"/>
      <point x="951.1567176087228" y="302.0" type="qcurve" smooth="yes"/>
      <point x="958.7608186517753" y="373.625"/>
      <point x="866.4802331313405" y="465.625"/>
      <point x="812.2996338267088" y="511.625" type="qcurve" smooth="yes"/>
      <point x="743.9562825144478" y="568.625"/>
      <point x="579.9292802376102" y="705.625"/>
      <point x="589.957877265404" y="796.625" type="qcurve" smooth="yes"/>
      <point x="598.1130001231707" y="870.625"/>
      <point x="696.7206844098204" y="981.625"/>
      <point x="735.0696763793031" y="1025.625" type="qcurve" smooth="yes"/>
      <point x="769.2278508970148" y="1065.625"/>
      <point x="814.8748130212664" y="1148.625"/>
      <point x="820.9360529831199" y="1203.625" type="qcurve" smooth="yes"/>
      <point x="830.7442412850282" y="1284.0"/>
      <point x="733.1626339498794" y="1362.375"/>
      <point x="659.7876339498794" y="1362.375" type="qcurve" smooth="yes"/>
      <point x="559.0376339498794" y="1362.375"/>
      <point x="427.7636144120031" y="1234.25"/>
    </contour>
  </outline>
</glyph>
<glyph name="ae" format="2">
  <advance width="1861"/>
  <unicode hex="00E6"/>
  <outline>
    <contour>
      <point x="272.140396141693" y="342.125" type="qcurve" smooth="yes"/>
      <point x="262.2220034768418" y="251.375"/>
      <point x="353.85615845667724" y="144.125"/>
      <point x="467.98115845667724" y="144.125" type="qcurve" smooth="yes"/>
      <point x="579.1061584566772" y="144.125"/>
      <point x="774.2322216239813" y="299.125"/>
      <point x="783.5995924741186" y="381.875" type="qcurve"/>
      <point x="800.2404512784799" y="537.375" type="line"/>
      <point x="575.8654512784799" y="537.375" type="line" smooth="yes"/>
      <point x="438.86545127847995" y="537.375"/>
      <point x="282.05878880654416" y="431.375"/>
    </contour>
    <contour>
      <point x="54.31130888283718" y="315.75" type="qcurve" smooth="yes"/>
      <point x="73.0460505831116" y="499.625"/>
      <point x="365.0374271869283" y="684.75"/>
      <point x="570.0374271869283" y="684.75" type="qcurve" smooth="yes"/>
      <point x="814.7874271869283" y="684.75" type="line"/>
      <point x="822.7221413188092" y="748.125" type="line" smooth="yes"/>
      <point x="833.1915557983743" y="844.25"/>
      <point x="752.8058749885664" y="971.125"/>
      <point x="626.0558749885664" y="971.125" type="qcurve" smooth="yes"/>
      <point x="502.3058749885664" y="971.125"/>
      <point x="394.0206430572302" y="865.75"/>
      <point x="386.8573594659488" y="806.375" type="qcurve" smooth="yes"/>
      <point x="386.3063376512348" y="808.5" type="line"/>
      <point x="172.4313376512348" y="808.5" type="line"/>
      <point x="172.98235946594878" y="801.5" type="line" smooth="yes"/>
      <point x="186.7579048337976" y="934.375"/>
      <point x="446.49112070409944" y="1137.5"/>
      <point x="648.8661207040994" y="1137.5" type="qcurve" smooth="yes"/>
      <point x="831.6161207040994" y="1137.5"/>
      <point x="996.0839404327082" y="984.25"/>
      <point x="990.4732044861134" y="906.125" type="qcurve"/>
      <point x="1007.819144795651" y="986.375"/>
      <point x="1195.2411207040996" y="1137.5"/>
      <point x="1359.9911207040996" y="1137.5" type="qcurve" smooth="yes"/>
      <point x="1589.9911207040996" y="1137.5"/>
      <point x="1808.9134903542324" y="837.125"/>
      <point x="1782.4644432479627" y="587.375" type="qcurve" smooth="yes"/>
      <point x="1774.0889116643107" y="499.0" type="line"/>
      <point x="918.9639116643107" y="499.0" type="line"/>
      <point x="935.2741573798437" y="666.875" type="line"/>
      <point x="1572.3991573798437" y="666.875" type="line"/>
      <point x="1576.4190620904708" y="698.375" type="line"/>
      <point x="1587.6073594659488" y="812.75"/>
      <point x="1470.2400575367953" y="965.625"/>
      <point x="1339.1150575367953" y="965.625" type="qcurve" smooth="yes"/>
      <point x="1202.4900575367953" y="965.625"/>
      <point x="1030.1940758746673" y="729.75"/>
      <point x="1012.2307647149926" y="567.5" type="qcurve" smooth="yes"/>
      <point x="1008.7042251008232" y="535.5" type="line" smooth="yes"/>
      <point x="990.7409139411483" y="373.25"/>
      <point x="1121.0699322790206" y="138.5"/>
      <point x="1290.9449322790206" y="138.5" type="qcurve" smooth="yes"/>
      <point x="1392.4449322790206" y="138.5"/>
      <point x="1550.642916217986" y="231.0"/>
      <point x="1605.2551779945534" y="290.25" type="qcurve"/>
      <point x="1732.0357635149883" y="186.625" type="line"/>
      <point x="1668.895436294279" y="106.75"/>
      <point x="1430.1938691117164" y="-33.75"/>
      <point x="1273.4438691117164" y="-33.75" type="qcurve" smooth="yes"/>
      <point x="1121.8188691117164" y="-33.75"/>
      <point x="884.6683926648511" y="85.875"/>
      <point x="838.2235293068144" y="218.625" type="qcurve"/>
      <point x="790.2852319313363" y="102.0"/>
      <point x="567.0459127411441" y="-22.625"/>
      <point x="403.4209127411442" y="-22.625" type="qcurve" smooth="yes"/>
      <point x="248.5459127411442" y="-22.625"/>
      <point x="37.78065444141859" y="159.0"/>
    </contour>
  </outline>
</glyph>
<glyph name="eth" format="2">
  <advance width="1183"/>
  <unicode hex="00F0"/>
  <outline>
    <contour>
      <point x="300.7253997417055" y="1437.125" type="qcurve"/>
      <point x="385.858097812552" y="1624.875" type="line"/>
      <point x="733.3427705918426" y="1547.625"/>
      <point x="1119.710997846333" y="1074.375"/>
      <point x="1078.3843617427865" y="673.125" type="qcurve"/>
      <point x="1067.584334174393" y="569.125" type="line"/>
      <point x="1040.4740608904665" y="306.625"/>
      <point x="725.4209127411441" y="-20.0"/>
      <point x="514.0459127411441" y="-20.0" type="qcurve" smooth="yes"/>
      <point x="292.4209127411442" y="-20.0"/>
      <point x="45.079156179839515" y="285.625"/>
      <point x="67.450641857226" y="498.0" type="qcurve" smooth="yes"/>
      <point x="92.79764533406785" y="744.5"/>
      <point x="389.9048669580492" y="1039.125"/>
      <point x="590.0298669580492" y="1039.125" type="qcurve" smooth="yes"/>
      <point x="767.6548669580492" y="1039.125"/>
      <point x="974.8078634812073" y="792.625"/>
      <point x="959.9302744839307" y="651.625" type="qcurve"/>
      <point x="883.5404788468734" y="652.625" type="line"/>
      <point x="890.8139668010976" y="713.0"/>
      <point x="779.7788037907451" y="866.5"/>
      <point x="628.5288037907451" y="866.5" type="qcurve" smooth="yes"/>
      <point x="477.2788037907451" y="866.5"/>
      <point x="300.0241573798437" y="669.5"/>
      <point x="281.950641857226" y="498.0" type="qcurve" smooth="yes"/>
      <point x="268.39550521526274" y="379.875"/>
      <point x="390.79697590844836" y="152.625"/>
      <point x="534.7969759084484" y="152.625" type="qcurve" smooth="yes"/>
      <point x="663.1719759084484" y="152.625"/>
      <point x="833.004183748233" y="392.625"/>
      <point x="851.959334174393" y="569.125" type="qcurve" smooth="yes"/>
      <point x="862.9797704686721" y="675.125" type="line" smooth="yes"/>
      <point x="901.441093135706" y="1042.125"/>
      <point x="558.3269117874813" y="1370.0"/>
    </contour>
    <contour>
      <point x="1073.5116259193621" y="1458.875" type="line"/>
      <point x="469.17682908230086" y="1082.75" type="line"/>
      <point x="388.1513526354357" y="1217.0" type="line"/>
      <point x="992.3759451095543" y="1592.125" type="line"/>
    </contour>
  </outline>
</glyph>
<glyph name="divide" format="2">
  <advance width="969"/>
  <unicode hex="00F7"/>
  <outline>
    <contour>
      <point x="380.242646534072" y="1080.0" type="qcurve" smooth="yes"/>
      <point x="386.0834777700399" y="1139.375"/>
      <point x="464.67278317603524" y="1217.625"/>
      <point x="534.5477831760352" y="1217.625" type="qcurve" smooth="yes"/>
      <point x="603.0477831760352" y="1217.625"/>
      <point x="668.58347777004" y="1139.375"/>
      <point x="662.742646534072" y="1080.0" type="qcurve" smooth="yes"/>
      <point x="657.1222240239897" y="1022.625"/>
      <point x="576.2681229809372" y="945.375"/>
      <point x="507.7681229809371" y="945.375" type="qcurve" smooth="yes"/>
      <point x="437.8931229809371" y="945.375"/>
      <point x="374.6222240239897" y="1022.625"/>
    </contour>
    <contour>
      <point x="294.6138565275237" y="276.0" type="qcurve" smooth="yes"/>
      <point x="300.3444834005488" y="334.0"/>
      <point x="379.0439931694869" y="413.625"/>
      <point x="448.9189931694869" y="413.625" type="qcurve" smooth="yes"/>
      <point x="517.418993169487" y="413.625"/>
      <point x="582.8444834005488" y="334.0"/>
      <point x="577.1138565275237" y="276.0" type="qcurve" smooth="yes"/>
      <point x="571.4934340174414" y="218.625"/>
      <point x="490.529128611446" y="140.0"/>
      <point x="422.029128611446" y="140.0" type="qcurve" smooth="yes"/>
      <point x="352.154128611446" y="140.0"/>
      <point x="288.99343401744136" y="218.625"/>
    </contour>
    <contour>
      <point x="5.425165410360876" y="573.75" type="line"/>
      <point x="25.261950740063185" y="785.25" type="line"/>
      <point x="953.2619507400632" y="785.25" type="line"/>
      <point x="933.4251654103609" y="573.75" type="line"/>
    </contour>
  </outline>
</glyph>
<glyph name="thorn" format="2">
  <advance width="1257"/>
  <unicode hex="00FE"/>
  <outline>
    <contour>
      <point x="33.40498501579913" y="-405.5" type="line"/>
      <point x="248.52390148012637" y="1536.0" type="line"/>
      <point x="466.02390148012637" y="1536.0" type="line"/>
      <point x="399.0196488109097" y="982.75" type="line"/>
      <point x="455.18293240219106" y="1048.125"/>
      <point x="616.2640770746715" y="1123.75"/>
      <point x="730.3890770746715" y="1123.75" type="qcurve" smooth="yes"/>
      <point x="940.8890770746715" y="1123.75"/>
      <point x="1166.5777681918344" y="803.125"/>
      <point x="1141.2307647149926" y="565.625" type="qcurve" smooth="yes"/>
      <point x="1137.7042251008231" y="533.625" type="line" smooth="yes"/>
      <point x="1112.3572216239813" y="297.625"/>
      <point x="820.5459127411441" y="-20.0"/>
      <point x="610.0459127411441" y="-20.0" type="qcurve" smooth="yes"/>
      <point x="496.29591274114415" y="-20.0"/>
      <point x="353.6566486877391" y="57.0"/>
      <point x="321.7689104643065" y="115.875" type="qcurve"/>
      <point x="317.3939104643065" y="115.875" type="line"/>
      <point x="247.65498501579913" y="-405.5" type="line"/>
    </contour>
    <contour>
      <point x="329.25876123815067" y="334.5" type="line"/>
      <point x="352.54445583215534" y="264.125"/>
      <point x="481.92197590844836" y="152.25"/>
      <point x="582.6719759084483" y="152.25" type="qcurve" smooth="yes"/>
      <point x="734.5469759084483" y="152.25"/>
      <point x="900.0715270299768" y="373.625"/>
      <point x="917.7042251008232" y="533.25" type="qcurve" smooth="yes"/>
      <point x="921.2307647149926" y="565.625" type="line" smooth="yes"/>
      <point x="938.863462785839" y="725.625"/>
      <point x="821.3880139073674" y="951.875"/>
      <point x="669.5130139073674" y="951.875" type="qcurve" smooth="yes"/>
      <point x="568.3880139073674" y="951.875"/>
      <point x="415.14053398366036" y="839.625"/>
      <point x="376.4262285776651" y="768.875" type="qcurve"/>
    </contour>
  </outline>
</glyph>
<glyph name="kgreenlandic" format="2">
  <advance width="1179"/>
  <unicode hex="0138"/>
  <outline>
    <contour>
      <point x="422.36612070409944" y="1145.0" type="line"/>
      <point x="303.125" y="0.0" type="line"/>
      <point x="88.875" y="0.0" type="line"/>
      <point x="208.11612070409944" y="1145.0" type="line"/>
    </contour>
    <contour>
      <point x="1192.1161207040996" y="1145.0" type="line"/>
      <point x="549.0394156795693" y="478.875" type="line"/>
      <point x="249.7894156795693" y="478.875" type="line"/>
      <point x="267.64252247630134" y="665.25" type="line"/>
      <point x="462.76752247630134" y="665.25" type="line"/>
      <point x="928.3661207040994" y="1145.0" type="line"/>
    </contour>
    <contour>
      <point x="831.0" y="0.0" type="line"/>
      <point x="437.87513784196744" y="508.375" type="line"/>
      <point x="588.8925224763013" y="667.875" type="line"/>
      <point x="1102.875" y="0.0" type="line"/>
    </contour>
  </outline>
</glyph>
<glyph name="OE" format="2">
  <advance width="1988"/>
  <unicode hex="0152"/>
  <outline>
    <contour>
      <point x="806.6468440665017" y="1477.0" type="qcurve" smooth="yes"/>
      <point x="839.6468440665017" y="1477.0"/>
      <point x="989.2141873482454" y="1464.0"/>
      <point x="1055.3325524447032" y="1456.0" type="qcurve"/>
      <point x="1963.2075524447032" y="1456.0" type="line"/>
      <point x="1945.7952630997422" y="1275.875" type="line"/>
      <point x="1184.0452630997422" y="1275.875" type="line"/>
      <point x="1132.469621242516" y="840.875" type="line"/>
      <point x="1804.469621242516" y="840.875" type="line"/>
      <point x="1787.167536260498" y="662.125" type="line"/>
      <point x="1115.167536260498" y="662.125" type="line"/>
      <point x="1058.3020849820182" y="178.75" type="line"/>
      <point x="1830.0520849820182" y="178.75" type="line"/>
      <point x="1812.75" y="0.0" type="line"/>
      <point x="894.875" y="0.0" type="line"/>
      <point x="827.1035694594004" y="-7.0"/>
      <point x="676.5607083782014" y="-21.0"/>
      <point x="600.5607083782014" y="-21.0" type="qcurve" smooth="yes"/>
      <point x="386.5607083782014" y="-21.0"/>
      <point x="83.34448340054882" y="340.0"/>
      <point x="121.03437552698318" y="682.0" type="qcurve" smooth="yes"/>
      <point x="130.95276819183437" y="772.0" type="line" smooth="yes"/>
      <point x="167.65082105178362" y="1105.0"/>
      <point x="548.6468440665017" y="1477.0"/>
    </contour>
    <contour>
      <point x="347.1593755269832" y="682.0" type="line" smooth="yes"/>
      <point x="318.06542371008646" y="417.625"/>
      <point x="503.35615845667724" y="146.375"/>
      <point x="659.9811584566772" y="146.375" type="qcurve" smooth="yes"/>
      <point x="712.9811584566772" y="146.375"/>
      <point x="793.9729977231623" y="155.375"/>
      <point x="832.634223900819" y="161.375" type="qcurve"/>
      <point x="961.2427154550556" y="1290.5" type="line"/>
      <point x="910.0141459956552" y="1297.5"/>
      <point x="815.8957808991976" y="1305.5"/>
      <point x="793.8957808991976" y="1305.5" type="qcurve" smooth="yes"/>
      <point x="630.7707808991976" y="1305.5"/>
      <point x="385.5104938310743" y="1027.375"/>
      <point x="357.29817691771996" y="774.0" type="qcurve" smooth="yes"/>
    </contour>
  </outline>
</glyph>
<glyph name="oe" format="2">
  <advance width="1976"/>
  <unicode hex="0153"/>
  <outline>
    <contour>
      <point x="295.6057647149925" y="567.875" type="qcurve" smooth="yes"/>
      <point x="292.07922510082324" y="535.5" type="line" smooth="yes"/>
      <point x="274.11591394114834" y="371.375"/>
      <point x="404.06993227902046" y="138.5"/>
      <point x="558.6949322790203" y="138.5" type="qcurve" smooth="yes"/>
      <point x="712.5699322790203" y="138.5"/>
      <point x="892.0057095782056" y="370.0"/>
      <point x="910.0792251008232" y="535.125" type="qcurve" smooth="yes"/>
      <point x="913.6057647149926" y="567.875" type="line" smooth="yes"/>
      <point x="931.6792802376102" y="733.0"/>
      <point x="801.6150575367952" y="965.625"/>
      <point x="647.7400575367952" y="965.625" type="qcurve" smooth="yes"/>
      <point x="493.11505753679523" y="965.625"/>
      <point x="313.56907587466736" y="731.625"/>
    </contour>
    <contour>
      <point x="1053.5619783084567" y="918.875" type="qcurve"/>
      <point x="1069.6742400850242" y="964.625"/>
      <point x="1317.6161207040996" y="1137.5"/>
      <point x="1519.9911207040996" y="1137.5" type="qcurve" smooth="yes"/>
      <point x="1711.4911207040996" y="1137.5"/>
      <point x="1930.4134903542324" y="837.125"/>
      <point x="1903.9644432479627" y="587.375" type="qcurve" smooth="yes"/>
      <point x="1895.5889116643107" y="499.0" type="line"/>
      <point x="1040.4639116643107" y="499.0" type="line"/>
      <point x="1056.7741573798437" y="666.875" type="line"/>
      <point x="1693.8991573798437" y="666.875" type="line"/>
      <point x="1697.9190620904708" y="698.375" type="line"/>
      <point x="1709.1073594659488" y="812.75"/>
      <point x="1591.7400575367953" y="965.625"/>
      <point x="1475.7400575367953" y="965.625" type="qcurve" smooth="yes"/>
      <point x="1323.9900575367953" y="965.625"/>
      <point x="1151.80428023761" y="731.125"/>
      <point x="1133.7307647149926" y="567.5" type="qcurve" smooth="yes"/>
      <point x="1130.2042251008231" y="535.5" type="line" smooth="yes"/>
      <point x="1112.1307095782056" y="371.875"/>
      <point x="1228.8199322790206" y="138.5"/>
      <point x="1398.6949322790206" y="138.5" type="qcurve" smooth="yes"/>
      <point x="1500.1949322790206" y="138.5"/>
      <point x="1672.142916217986" y="231.0"/>
      <point x="1726.7551779945534" y="290.25" type="qcurve"/>
      <point x="1853.5357635149883" y="186.625" type="line"/>
      <point x="1790.395436294279" y="106.75"/>
      <point x="1551.6938691117164" y="-33.75"/>
      <point x="1423.8188691117164" y="-33.75" type="qcurve" smooth="yes"/>
      <point x="1199.4438691117164" y="-33.75"/>
      <point x="996.9974799237069" y="117.875"/>
      <point x="981.6378071444162" y="184.25" type="qcurve"/>
      <point x="950.6076842866497" y="118.875"/>
      <point x="723.0688691117163" y="-33.75"/>
      <point x="500.31886911171625" y="-33.75" type="qcurve" smooth="yes"/>
      <point x="300.56886911171625" y="-33.75"/>
      <point x="45.850586720439054" y="286.625"/>
      <point x="72.07922510082321" y="535.5" type="qcurve" smooth="yes"/>
      <point x="75.60576471499252" y="567.5" type="line" smooth="yes"/>
      <point x="101.83440309537667" y="817.125"/>
      <point x="421.25591634115665" y="1136.125"/>
      <point x="647.5059163411566" y="1136.125" type="qcurve" smooth="yes"/>
      <point x="857.8809163411566" y="1136.125"/>
      <point x="1050.1232182703102" y="957.75"/>
    </contour>
  </outline>
</glyph>
<glyph name="Schwa" format="2">
  <advance width="1446"/>
  <unicode hex="018F"/>
  <outline>
    <contour>
      <point x="91.76003116840592" y="1206.875" type="line"/>
      <point x="213.81211615042406" y="1372.125"/>
      <point x="536.775427310099" y="1541.5"/>
      <point x="777.400427310099" y="1541.5" type="qcurve" smooth="yes"/>
      <point x="1126.5254273100988" y="1541.5"/>
      <point x="1463.1885730594129" y="1093.25"/>
      <point x="1429.5762423618617" y="800.625" type="qcurve" smooth="yes"/>
      <point x="1391.6659415095419" y="470.125"/>
      <point x="924.5688691117163" y="-30.0"/>
      <point x="630.8188691117163" y="-30.0" type="qcurve" smooth="yes"/>
      <point x="339.06886911171625" y="-30.0"/>
      <point x="35.717425986924155" y="284.0"/>
      <point x="68.44812178093298" y="586.625" type="qcurve" smooth="yes"/>
      <point x="80.35019297875435" y="696.5" type="line"/>
      <point x="1264.1001929787544" y="696.5" type="line"/>
      <point x="1249.553217070306" y="551.0" type="line"/>
      <point x="667.9348519738483" y="559.0" type="line"/>
      <point x="298.7736257961916" y="553.0" type="line"/>
      <point x="290.5082985754823" y="477.25" type="line" smooth="yes"/>
      <point x="272.21437432697905" y="325.5"/>
      <point x="452.8148232054507" y="108.25"/>
      <point x="654.8148232054507" y="108.25" type="qcurve" smooth="yes"/>
      <point x="859.9398232054507" y="108.25"/>
      <point x="1174.1644156795692" y="483.375"/>
      <point x="1203.7930678441503" y="759.875" type="qcurve" smooth="yes"/>
      <point x="1234.2589680011017" y="1053.75"/>
      <point x="939.030999046337" y="1379.875"/>
      <point x="743.155999046337" y="1379.875" type="qcurve" smooth="yes"/>
      <point x="541.655999046337" y="1379.875"/>
      <point x="258.2421838714036" y="1232.875"/>
      <point x="185.71511267358224" y="1127.875" type="qcurve"/>
    </contour>
  </outline>
</glyph>
<glyph name="florin" format="2">
  <advance width="1059"/>
  <unicode hex="0192"/>
  <outline>
    <contour>
      <point x="957.5752481155413" y="889.875" type="line"/>
      <point x="941.926228577665" y="731.375" type="line"/>
      <point x="588.051228577665" y="731.375" type="line"/>
      <point x="518.7326842866497" y="111.0" type="line" smooth="yes"/>
      <point x="487.4346452108972" y="-180.5"/>
      <point x="244.8406933940005" y="-437.0"/>
      <point x="-28.90930660599949" y="-437.0" type="qcurve" smooth="yes"/>
      <point x="-59.90930660599949" y="-437.0"/>
      <point x="-112.13787606539998" y="-430.0"/>
      <point x="-139.03583243597205" y="-420.0" type="qcurve"/>
      <point x="-108.61538235749626" y="-250.0" type="line"/>
      <point x="-94.27660853515299" y="-256.0"/>
      <point x="-26.048039075752527" y="-263.0"/>
      <point x="-12.048039075752527" y="-263.0" type="qcurve" smooth="yes"/>
      <point x="108.95196092424747" y="-263.0"/>
      <point x="278.80506772097954" y="-122.0"/>
      <point x="304.48268428664977" y="111.0" type="qcurve" smooth="yes"/>
      <point x="373.8012285776651" y="731.375" type="line"/>
      <point x="105.05122857766507" y="731.375" type="line"/>
      <point x="120.70024811554133" y="889.875" type="line"/>
      <point x="389.45024811554134" y="889.875" type="line"/>
      <point x="416.3401126735822" y="1127.5" type="line" smooth="yes"/>
      <point x="435.6258761885706" y="1302.5"/>
      <point x="647.2488876959296" y="1490.375"/>
      <point x="812.8738876959296" y="1490.375" type="qcurve" smooth="yes"/>
      <point x="911.2488876959296" y="1490.375"/>
      <point x="1048.2830564599617" y="1427.625"/>
      <point x="1081.226925571678" y="1397.625" type="qcurve"/>
      <point x="971.8722929449734" y="1230.125" type="line"/>
      <point x="932.9136281961999" y="1264.125"/>
      <point x="846.2197590844836" y="1297.5"/>
      <point x="798.8447590844836" y="1297.5" type="qcurve" smooth="yes"/>
      <point x="735.5947590844836" y="1297.5"/>
      <point x="641.3901402419757" y="1210.125"/>
      <point x="630.5901126735822" y="1127.5" type="qcurve" smooth="yes"/>
      <point x="603.7002481155413" y="889.875" type="line"/>
    </contour>
  </outline>
</glyph>
<glyph name="schwa" format="2">
  <advance width="1140"/>
  <unicode hex="0259"/>
  <outline>
    <contour>
      <point x="1023.7307647149926" y="568.25" type="qcurve" smooth="yes"/>
      <point x="1020.2042251008232" y="536.25" type="line" smooth="yes"/>
      <point x="993.9755867204391" y="286.625"/>
      <point x="681.3188691117163" y="-33.75"/>
      <point x="450.94386911171625" y="-33.75" type="qcurve" smooth="yes"/>
      <point x="220.94386911171628" y="-33.75"/>
      <point x="2.0214994615832325" y="266.625"/>
      <point x="28.470546567852992" y="516.375" type="qcurve" smooth="yes"/>
      <point x="36.84607815150506" y="604.75" type="line"/>
      <point x="891.9710781515051" y="604.75" type="line"/>
      <point x="875.660832435972" y="436.875" type="line"/>
      <point x="238.53583243597205" y="436.875" type="line"/>
      <point x="234.51592772534508" y="405.375" type="line"/>
      <point x="223.32763034986698" y="291.0"/>
      <point x="340.69493227902046" y="138.125"/>
      <point x="456.6949322790204" y="138.125" type="qcurve" smooth="yes"/>
      <point x="608.4449322790205" y="138.125"/>
      <point x="780.7409139411483" y="374.0"/>
      <point x="798.7042251008232" y="536.25" type="qcurve" smooth="yes"/>
      <point x="802.2307647149926" y="568.25" type="line" smooth="yes"/>
      <point x="820.1940758746674" y="730.5"/>
      <point x="689.8650575367952" y="965.25"/>
      <point x="519.9900575367952" y="965.25" type="qcurve" smooth="yes"/>
      <point x="418.49005753679523" y="965.25"/>
      <point x="260.2920735978297" y="872.75"/>
      <point x="205.67981182126226" y="813.5" type="qcurve"/>
      <point x="78.89922630082737" y="917.125" type="line"/>
      <point x="142.03955352153665" y="997.0"/>
      <point x="380.74112070409944" y="1137.5"/>
      <point x="537.4911207040994" y="1137.5" type="qcurve" smooth="yes"/>
      <point x="802.7411207040994" y="1137.5"/>
      <point x="1049.9594030953767" y="816.375"/>
    </contour>
  </outline>
</glyph>
<glyph name="primemod" format="2">
  <advance width="624"/>
  <unicode hex="02B9"/>
  <outline>
    <contour>
      <point x="311.0269531400715" y="1502.0" type="line"/>
      <point x="519.9019531400716" y="1502.0" type="line"/>
      <point x="340.8375236763055" y="974.5" type="line"/>
      <point x="201.76354549101944" y="979.5" type="line"/>
    </contour>
  </outline>
</glyph>
<glyph name="doubleprimemod" format="2">
  <advance width="770"/>
  <unicode hex="02BA"/>
  <outline>
    <contour>
      <point x="311.0269531400715" y="1502.0" type="line"/>
      <point x="519.9019531400716" y="1502.0" type="line"/>
      <point x="343.64518039456175" y="992.375" type="line"/>
      <point x="204.57120220927573" y="997.375" type="line"/>
    </contour>
    <contour>
      <point x="611.0269531400716" y="1502.0" type="line"/>
      <point x="819.9019531400716" y="1502.0" type="line"/>
      <point x="643.6451803945617" y="992.375" type="line"/>
      <point x="504.5712022092757" y="997.375" type="line"/>
    </contour>
  </outline>
</glyph>
<glyph name="apostrophemod" format="2">
  <advance width="600"/>
  <unicode hex="02BC"/>
  <outline>
    <contour>
      <point x="192.03703344524365" y="1028.25" type="line"/>
      <point x="239.46816433352734" y="1060.5"/>
      <point x="367.7222791607767" y="1186.75"/>
      <point x="391.60597147794357" y="1258.25" type="qcurve"/>
      <point x="313.1059714779436" y="1258.25"/>
      <point x="232.7462986986529" y="1338.5"/>
      <point x="239.24835611227758" y="1401.625" type="qcurve" smooth="yes"/>
      <point x="245.64020916295942" y="1463.75"/>
      <point x="343.7509451095543" y="1546.0"/>
      <point x="413.5009451095543" y="1546.0" type="qcurve" smooth="yes"/>
      <point x="478.8759451095543" y="1546.0"/>
      <point x="574.7963262670464" y="1443.25"/>
      <point x="566.3105903204515" y="1361.0" type="qcurve" smooth="yes"/>
      <point x="552.8656580414311" y="1230.375"/>
      <point x="355.8972378081864" y="1029.25"/>
      <point x="234.1370196610469" y="975.875" type="qcurve"/>
    </contour>
  </outline>
</glyph>
<glyph name="circumflex" format="2">
  <advance width="540"/>
  <unicode hex="02C6"/>
  <outline>
    <contour>
      <point x="346.8176878866622" y="1282.125" type="line"/>
      <point x="453.140071320992" y="979.0" type="line"/>
      <point x="336.140071320992" y="979.0" type="line"/>
      <point x="318.2814617090055" y="1150.125" type="line"/>
      <point x="245.390071320992" y="979.0" type="line"/>
      <point x="129.515071320992" y="979.0" type="line"/>
      <point x="290.6926878866622" y="1282.125" type="line"/>
    </contour>
  </outline>
</glyph>
<glyph name="caron" format="2">
  <advance width="540"/>
  <unicode hex="02C7"/>
  <outline>
    <contour>
      <point x="261.515071320992" y="979.0" type="line"/>
      <point x="155.1926878866622" y="1282.125" type="line"/>
      <point x="272.1926878866622" y="1282.125" type="line"/>
      <point x="290.05129749864875" y="1111.0" type="line"/>
      <point x="362.9426878866622" y="1282.125" type="line"/>
      <point x="478.8176878866622" y="1282.125" type="line"/>
      <point x="317.640071320992" y="979.0" type="line"/>
    </contour>
  </outline>
</glyph>
<glyph name="breve" format="2">
  <advance width="540"/>
  <unicode hex="02D8"/>
  <outline>
    <contour>
      <point x="419.939104643065" y="1243.875" type="qcurve"/>
      <point x="497.0789002801222" y="1217.375" type="line"/>
      <point x="465.30182908230086" y="1103.375"/>
      <point x="363.86200587685016" y="964.0"/>
      <point x="296.73700587685016" y="964.0" type="qcurve" smooth="yes"/>
      <point x="235.11200587685016" y="964.0"/>
      <point x="152.80182908230086" y="1097.0"/>
      <point x="141.57890028012218" y="1218.125" type="qcurve"/>
      <point x="222.689104643065" y="1243.875" type="line"/>
      <point x="225.74264653407198" y="1165.125"/>
      <point x="263.64823205450693" y="1083.625"/>
      <point x="298.52323205450693" y="1083.625" type="qcurve" smooth="yes"/>
      <point x="335.14823205450693" y="1083.625"/>
      <point x="394.367646534072" y="1164.375"/>
    </contour>
  </outline>
</glyph>
<glyph name="dotaccent" format="2">
  <advance width="540"/>
  <unicode hex="02D9"/>
  <outline>
    <contour>
      <point x="214.27018039456175" y="1064.0" type="qcurve" smooth="yes"/>
      <point x="215.2620196610469" y="1099.625"/>
      <point x="262.0548807422459" y="1149.625"/>
      <point x="304.5548807422459" y="1149.625" type="qcurve" smooth="yes"/>
      <point x="346.6798807422459" y="1149.625"/>
      <point x="390.7620196610469" y="1099.625"/>
      <point x="389.77018039456175" y="1064.0" type="qcurve" smooth="yes"/>
      <point x="388.7783411280767" y="1030.25"/>
      <point x="341.61048004687757" y="981.0"/>
      <point x="299.48548004687757" y="981.0" type="qcurve" smooth="yes"/>
      <point x="256.98548004687757" y="981.0"/>
      <point x="213.27834112807668" y="1030.25"/>
    </contour>
  </outline>
</glyph>
<glyph name="ring" format="2">
  <advance width="540"/>
  <unicode hex="02DA"/>
  <outline>
    <contour>
      <point x="165.16866834878596" y="1116.125" type="qcurve"/>
      <point x="171.00949958475385" y="1190.125"/>
      <point x="258.68094390955014" y="1283.25"/>
      <point x="322.55594390955014" y="1283.25" type="qcurve" smooth="yes"/>
      <point x="385.68094390955014" y="1283.25"/>
      <point x="461.7594995847539" y="1190.125"/>
      <point x="455.91866834878596" y="1116.125" type="qcurve" smooth="yes"/>
      <point x="450.2982458387036" y="1042.625"/>
      <point x="361.98700587685016" y="952.375"/>
      <point x="298.86200587685016" y="952.375" type="qcurve" smooth="yes"/>
      <point x="234.98700587685016" y="952.375"/>
      <point x="159.54824583870362" y="1042.625"/>
    </contour>
    <contour>
      <point x="241.79366834878596" y="1116.5" type="qcurve"/>
      <point x="236.503858927532" y="1074.875"/>
      <point x="267.64823205450693" y="1024.375"/>
      <point x="299.52323205450693" y="1024.375" type="qcurve" smooth="yes"/>
      <point x="331.39823205450693" y="1024.375"/>
      <point x="374.003858927532" y="1074.5"/>
      <point x="379.29366834878596" y="1116.5" type="qcurve" smooth="yes"/>
      <point x="384.8038864959255" y="1159.375"/>
      <point x="353.87992209483616" y="1211.5"/>
      <point x="322.00492209483616" y="1211.5" type="qcurve" smooth="yes"/>
      <point x="290.12992209483616" y="1211.5"/>
      <point x="247.3038864959255" y="1159.375"/>
    </contour>
  </outline>
</glyph>
<glyph name="ogonek" format="2">
  <advance width="540"/>
  <unicode hex="02DB"/>
  <outline>
    <contour>
      <point x="159.63163490354236" y="27.125" type="qcurve"/>
      <point x="218.69081745177118" y="4.375" type="line"/>
      <point x="190.82550401525862" y="-21.25"/>
      <point x="148.11119860926323" y="-87.125"/>
      <point x="143.81322845449444" y="-125.0" type="qcurve" smooth="yes"/>
      <point x="139.62546266266838" y="-155.125"/>
      <point x="157.7172881449568" y="-188.0"/>
      <point x="179.7172881449568" y="-188.0" type="qcurve" smooth="yes"/>
      <point x="196.4672881449568" y="-188.0"/>
      <point x="228.450966677927" y="-173.0"/>
      <point x="237.44280594441204" y="-165.5" type="qcurve"/>
      <point x="245.00198849264098" y="-255.0" type="line"/>
      <point x="224.33412741144184" y="-269.75"/>
      <point x="167.18106196730002" y="-289.25"/>
      <point x="130.05606196730002" y="-289.25" type="qcurve" smooth="yes"/>
      <point x="76.55606196730002" y="-289.25"/>
      <point x="12.655053936782792" y="-226.125"/>
      <point x="17.173432817437202" y="-167.125" type="qcurve" smooth="yes"/>
      <point x="21.250994246320488" y="-115.5"/>
      <point x="100.43570837820141" y="-13.875"/>
    </contour>
  </outline>
</glyph>
<glyph name="tilde" format="2">
  <advance width="540"/>
  <unicode hex="02DC"/>
  <outline>
    <contour>
      <point x="99.55793240219107" y="1053.375" type="line"/>
      <point x="120.92324583870362" y="1109.0"/>
      <point x="191.3329461863878" y="1183.0"/>
      <point x="228.8329461863878" y="1183.0" type="qcurve" smooth="yes"/>
      <point x="251.9579461863878" y="1183.0"/>
      <point x="291.9298807422459" y="1165.0"/>
      <point x="311.0778371128181" y="1151.25" type="qcurve" smooth="yes"/>
      <point x="328.96099784633293" y="1138.125"/>
      <point x="368.51354549101944" y="1115.625"/>
      <point x="389.26354549101944" y="1115.625" type="qcurve" smooth="yes"/>
      <point x="412.8885454910194" y="1115.625"/>
      <point x="452.2620196610469" y="1143.5"/>
      <point x="468.5467200087311" y="1170.25" type="qcurve"/>
      <point x="504.1865156457883" y="1102.5" type="line"/>
      <point x="481.10079348339013" y="1042.625"/>
      <point x="419.2273193133627" y="986.625"/>
      <point x="382.6023193133627" y="986.625" type="qcurve" smooth="yes"/>
      <point x="356.4773193133627" y="986.625"/>
      <point x="308.38038475750454" y="1011.375"/>
      <point x="292.1370196610469" y="1022.375" type="qcurve" smooth="yes"/>
      <point x="274.253858927532" y="1034.75"/>
      <point x="238.42172000873109" y="1055.875"/>
      <point x="221.79672000873109" y="1055.875" type="qcurve" smooth="yes"/>
      <point x="194.54672000873109" y="1055.875"/>
      <point x="148.2472240239897" y="1016.25"/>
      <point x="133.1023193133627" y="991.5" type="qcurve"/>
    </contour>
  </outline>
</glyph>
<glyph name="hungarumlaut" format="2">
  <advance width="540"/>
  <unicode hex="02DD"/>
  <outline>
    <contour>
      <point x="132.1482320545069" y="1021.75" type="line"/>
      <point x="277.98196572426406" y="1289.75" type="line"/>
      <point x="384.5263526354357" y="1214.375" type="line"/>
      <point x="223.55282332862132" y="962.0" type="line"/>
    </contour>
    <contour>
      <point x="252.2732320545069" y="1021.75" type="line"/>
      <point x="398.48196572426406" y="1289.75" type="line"/>
      <point x="505.0263526354357" y="1214.375" type="line"/>
      <point x="343.67782332862134" y="962.0" type="line"/>
    </contour>
  </outline>
</glyph>
